<svg width="29" height="28" viewBox="0 0 29 28" fill="none" xmlns="http://www.w3.org/2000/svg">
<path fill-rule="evenodd" clip-rule="evenodd" d="M14.5573 2.31225e-05C11.1025 -0.00609892 7.75849 1.20364 5.12513 3.41226C2.49177 5.62087 0.741326 8.68385 0.187773 12.0518C-0.36578 15.4197 0.313775 18.8723 2.10455 21.7902C3.89533 24.708 6.68015 26.9003 9.95951 27.9738C10.6974 28.0859 10.9529 27.6654 10.9529 27.273V24.6102C7.29168 25.2829 6.35511 23.7413 6.04291 22.9284C5.90101 22.508 5.19148 21.2466 4.56709 20.9103C4.05623 20.63 3.31832 19.9572 4.53871 19.9572C5.70234 19.9292 6.49701 20.9943 6.78082 21.4148C8.08636 23.6011 10.1866 22.9845 11.0096 22.592C11.1515 21.6671 11.5205 21.0504 11.9462 20.686C8.71074 20.3216 5.33338 19.0883 5.33338 13.5945C5.33338 12.0248 5.90101 10.7354 6.8092 9.75439C6.6673 9.39001 6.15644 7.90443 6.95111 5.94234C6.95111 5.94234 8.1715 5.54992 10.9529 7.39989C13.3291 6.7432 15.8422 6.7432 18.2184 7.39989C20.9998 5.54992 22.2202 5.94234 22.2202 5.94234C23.0149 7.90443 22.504 9.39001 22.3621 9.75439C23.2987 10.7354 23.8663 12.0248 23.8663 13.5945C23.8663 19.1163 20.4605 20.3216 17.2251 20.686C17.7643 21.1345 18.2184 22.0034 18.2184 23.3488L18.1901 27.273C18.1901 27.6654 18.4739 28.1139 19.1834 27.9738C22.4306 26.8688 25.1777 24.6656 26.9392 21.7537C28.7007 18.8419 29.3632 15.4087 28.8096 12.061C28.256 8.71339 26.5219 5.6668 23.9138 3.45974C21.3058 1.25268 17.9917 0.0272429 14.5573 2.31225e-05Z" fill="white"/>
</svg>
