<svg width="29" height="29" viewBox="0 0 29 29" fill="none" xmlns="http://www.w3.org/2000/svg">
<g clip-path="url(#clip0)">
<path d="M28.9928 29V28.9988H29V18.3631C29 13.16 27.8799 9.15193 21.7972 9.15193C18.873 9.15193 16.9107 10.7566 16.1095 12.2779H16.0249V9.63768H10.2576V28.9988H16.263V19.4119C16.263 16.8877 16.7415 14.4469 19.8675 14.4469C22.9475 14.4469 22.9934 17.3275 22.9934 19.5738V29H28.9928Z" fill="white"/>
<path d="M0.478516 9.63887H6.49118V29H0.478516V9.63887Z" fill="white"/>
<path d="M3.48242 0C1.55996 0 0 1.55996 0 3.48242C0 5.40488 1.55996 6.99746 3.48242 6.99746C5.40488 6.99746 6.96483 5.40488 6.96483 3.48242C6.96362 1.55996 5.40367 0 3.48242 0V0Z" fill="white"/>
</g>
<defs>
<clipPath id="clip0">
<rect width="29" height="29" fill="white"/>
</clipPath>
</defs>
</svg>
