<svg xmlns="http://www.w3.org/2000/svg" width="552" height="455"><defs><linearGradient id="Gradient-0" x1="-.988" y1="5.018" x2="3.764" y2="-9.413"><stop offset="0" stop-color="#001b41"/><stop offset=".002" stop-color="#031d43"/><stop offset=".043" stop-color="#304665"/><stop offset=".086" stop-color="#596b83"/><stop offset=".136" stop-color="#7f8c9f"/><stop offset=".189" stop-color="#9faab8"/><stop offset=".248" stop-color="#bbc2cc"/><stop offset=".315" stop-color="#d1d6dc"/><stop offset=".393" stop-color="#e2e5e9"/><stop offset=".489" stop-color="#edeff2"/><stop offset=".625" stop-color="#f4f5f7"/><stop offset="1" stop-color="#f6f7f8"/></linearGradient><linearGradient id="Gradient-1" x1="-1.131" y1="5.136" x2="3.699" y2="-9.217"><stop offset="0" stop-color="#001b41"/><stop offset=".002" stop-color="#031d43"/><stop offset=".043" stop-color="#304665"/><stop offset=".086" stop-color="#596b83"/><stop offset=".136" stop-color="#7f8c9f"/><stop offset=".189" stop-color="#9faab8"/><stop offset=".248" stop-color="#bbc2cc"/><stop offset=".315" stop-color="#d1d6dc"/><stop offset=".393" stop-color="#e2e5e9"/><stop offset=".489" stop-color="#edeff2"/><stop offset=".625" stop-color="#f4f5f7"/><stop offset="1" stop-color="#f6f7f8"/></linearGradient><linearGradient id="Gradient-2" x1="0" y1=".5" x2="1" y2=".5"><stop offset="0" stop-color="#009190"/><stop offset="1" stop-color="#00ceb0"/></linearGradient><linearGradient id="Gradient-3" x1="0" y1=".5" x2="1" y2=".5"><stop offset="0" stop-color="#009190"/><stop offset="1" stop-color="#00ceb0"/></linearGradient><linearGradient id="Gradient-4" x1="0" y1=".5" x2="1" y2=".5"><stop offset="0" stop-color="#8c2de0"/><stop offset="0" stop-color="#ff9a9e"/><stop offset="1" stop-color="#fad0c4"/></linearGradient><linearGradient id="Gradient-5" x1="0" y1=".5" x2="1" y2=".5"><stop offset="0" stop-color="#8c2de0"/><stop offset="0" stop-color="#ff9a9e"/><stop offset="1" stop-color="#fad0c4"/></linearGradient><linearGradient id="Gradient-6" x1="0" y1=".5" x2="1" y2=".5"><stop offset="0" stop-color="#8c2de0"/><stop offset="0" stop-color="#ff9a9e"/><stop offset="1" stop-color="#fad0c4"/></linearGradient><mask id="Mask-4"><path id="_a0" fill="#fff" stroke="none" d="M34.532-75.013l2.25 191.5-70.4-41.1-2.1-190.2 70.25 39.8z" transform="translate(277.217 279.513)"/></mask><mask id="Mask-3"><path id="_a1" fill="#fff" stroke="none" d="M35.22 74.717l-68.4 40.8-2.1-190.5 68.4-40.4 2.1 190.1z" transform="translate(346.08 279.983)"/></mask><mask id="Mask-2"><path id="_a2" fill="#fff" stroke="none" d="M34.914-93.237l1.75 231.25-70.2-44.484-5.55-227.766 74 41z" transform="translate(383.335 205.737)"/></mask><mask id="Mask-1"><path id="_a3" fill="#fff" stroke="none" d="M35.802 92.783l-69 41-2-227 68.387-40.113 2.613 226.113z" transform="translate(452.698 203.717)"/></mask></defs><g transform="matrix(1.09 0 0 1.09 9.223 5.543)"><path id="Path" d="M232.4 224.035l-60.605-35.327a12.09 12.09 0 0 0-12.315.082l-86.26 51.856a4.65 4.65 0 0 1-7.045-3.974c-.021-11.167-.058-73.82-.058-67.658" stroke="#95A0B0" stroke-width="1.86" opacity=".3" stroke-linecap="round" stroke-linejoin="round" fill="none" fill-rule="evenodd"/><g id="Group" opacity=".05" stroke="none" stroke-width="1" fill="none" fill-rule="evenodd" transform="matrix(.93 0 0 .93 97.854 267.002)"><path id="Path-6" d="M128.586 89.56a8.213 8.213 0 0 0 4.072-.954l20.249-11.69a2.5 2.5 0 0 0 0-4.7 9.174 9.174 0 0 0-8.143 0l-20.305 11.722a2.913 2.913 0 0 0-1.7 2.32 2.827 2.827 0 0 0 1.7 2.319 8.455 8.455 0 0 0 4.127.983z"/><path id="Path-7" d="M201.825 128.54l20.249-11.691c2.2-1.271 2.2-3.431 0-4.7a8.976 8.976 0 0 0-8.143 0l-20.305 11.721c-2.256 1.3-2.311 3.368 0 4.7a9.185 9.185 0 0 0 8.199-.03z"/><path id="Path-8" d="M243.424 132.416a3.063 3.063 0 0 1 2.036-2.446 9.029 9.029 0 0 1 4.457-.794 6.76 6.76 0 0 1 4.017 1.493 2.15 2.15 0 0 1 .77 2.668c-.44.826 0 1.843 1.1 2.478a6.059 6.059 0 0 0 1.871.636 7.662 7.662 0 0 0 3.411-.255 3.13 3.13 0 0 0 2.036-1.556c1.1-2.288.385-4.734-1.926-6.767a16.321 16.321 0 0 0-7.978-3.4l-.881-.064a22.322 22.322 0 0 0-5.887-.159l-1.211.191a19.208 19.208 0 0 0-5.613 1.715 8.582 8.582 0 0 0-4.677 4.48l-.22.7c-.055.286-.385 12.167-.385 12.167a3.268 3.268 0 0 1-2.146 2.637 9.402 9.402 0 0 1-4.9.794 7.427 7.427 0 0 1-4.237-1.556 2.822 2.822 0 0 1-1.046-1.748v-.508l.111-.445c0-.063.055-.1.055-.159.44-.889 0-1.842-1.1-2.478a5.545 5.545 0 0 0-1.981-.635c-2.311-.318-4.567.413-5.337 1.747v.064c-1.046 2.383-.385 4.924 2.036 6.957a9.535 9.535 0 0 0 1.815 1.3 20.918 20.918 0 0 0 8.529 2.446 23.574 23.574 0 0 0 11.776-1.97c3.246-1.62 5.117-3.971 5.172-6.417l.333-11.116z" fill="#718095"/><path id="Shape" d="M207.988 132.1l20.249-11.691c5.668-3.272 5.613-8.577 0-11.818-5.667-3.272-14.857-3.24-20.469 0l-20.3 11.723c-5.667 3.272-5.612 8.577 0 11.818 5.718 3.238 14.852 3.238 20.52-.032zm-14.307-8.26l20.25-11.691a8.976 8.976 0 0 1 8.143 0c2.2 1.271 2.2 3.431 0 4.7l-20.3 11.723a8.978 8.978 0 0 1-8.144 0c-2.205-1.334-2.26-3.399.051-4.734v.002z" fill="#718095" fill-rule="nonzero"/><path id="Path-9" d="M186.473 86.383c.5-.922.055-1.938-1.1-2.6a3.156 3.156 0 0 0-.66-.318 6.755 6.755 0 0 0-5.447.349l-.716.413-18.269 30.173c-.5.921-.055 1.938 1.045 2.573.263.143.54.26.826.35a6.753 6.753 0 0 0 5.447-.35l.661-.381s17.773-29.386 18.268-30.18l-.055-.029z" fill="#718095"/><path id="Path-10" d="M202.045 97.025c1.761-1.016 1.706-2.573 0-3.558a6.7 6.7 0 0 0-6.163 0l-16.782 9.69-6.658 10.96 29.603-17.092z" fill="#718095"/><path id="Path-11" d="M144.6 103.76c-1.761 1.017-1.706 2.574 0 3.558a6.7 6.7 0 0 0 6.163 0l16.782-9.689 6.658-10.96L144.6 103.76z" fill="#718095"/><path id="Shape-2" d="M128.531 94.611a21.008 21.008 0 0 0 10.29-2.446l20.249-11.691c2.751-1.589 4.237-3.654 4.237-5.941 0-2.224-1.486-4.352-4.237-5.941a20.707 20.707 0 0 0-10.29-2.446 21.008 21.008 0 0 0-10.289 2.446l-20.305 11.723c-2.751 1.588-4.236 3.653-4.236 5.941 0 2.223 1.485 4.352 4.237 5.94a22.274 22.274 0 0 0 10.344 2.415zm-4.017-10.706l20.25-11.691a9.174 9.174 0 0 1 8.143 0 2.5 2.5 0 0 1 0 4.7l-20.3 11.722a9.176 9.176 0 0 1-8.144 0 2.91 2.91 0 0 1-1.7-2.319 2.942 2.942 0 0 1 1.751-2.412z" fill="#718095" fill-rule="nonzero"/><path id="Path-12" d="M133.1 56.774c.11-.063.11-.127.165-.159 1.1-1.08.771-2.414-.77-3.3a7.34 7.34 0 0 0-6.658-.031l-.055.031-33.951 19.6c-1.926 1.112-1.926 2.827-.055 3.907a7.394 7.394 0 0 0 6.823 0l33.951-19.6a2.36 2.36 0 0 0 .5-.35l.05-.098z" fill="#718095"/><path id="Shape-3" d="M62.611.575L.211 36.601l62.4 36.026 62.4-36.026L62.611.575zm0 70.908L2.248 36.632l60.363-34.85 60.362 34.851-60.362 34.85z" fill="#FFF" fill-rule="nonzero"/><path id="Shape-4" d="M2.248 36.632l60.363 34.851 60.362-34.85L62.611 1.782 2.248 36.632zm86.61-1.4l10.234 5.909L70.7 57.536l-5.668-3.272 23.826-13.756-4.567-2.636 4.567-2.64zm-29-2.637c.716-3.4 1.321-4.321 3.412-5.528 3.522-2.033 9.024-1.779 13.261.667 3.907 2.256 4.072 5.4.495 7.466-2.641 1.525-5.667 2-11.72 1.684l-1.761 6.671a16.614 16.614 0 0 0 5.173-2.16c.22-.127.825-.54 1.43-.953l4.567 2.637c-.605.349-1.43.889-1.65 1.016a21.681 21.681 0 0 1-10.345 3.3l-1.156 4.861-5.557-3.209.44-1.715a18.874 18.874 0 0 1-9.079-2.637c-5.668-3.336-6.713-7.307-1.926-10.516 2.858-1.899 8.2-2.566 14.417-1.579l-.001-.005zM52.54 14.264l10.235 5.909-28.393 16.393-5.668-3.272L52.54 19.538l-4.567-2.637 4.567-2.637z" fill="#718095" fill-rule="nonzero"/><path id="Path-13" d="M51.826 42.129a11.847 11.847 0 0 0 5.447 1.429l1.761-7.243c-4.182-.508-6.823-.127-8.309.794-2.256 1.366-1.761 3.368 1.101 5.02z" fill="#718095"/><path id="Path-14" d="M72.68 32.63c1.266-.731 1.211-1.716-.22-2.542a4.747 4.747 0 0 0-4.512-.127c-1.155.667-1.486 1.239-1.926 3.4 3.412.317 5.393-.001 6.658-.731z" fill="#718095"/><path id="Path-15" fill="#FFF" d="M65.032 54.264l5.668 3.272 28.392-16.392-10.234-5.909-4.567 2.637 4.567 2.636z"/><path id="Shape-5" d="M47.369 44.7a18.874 18.874 0 0 0 9.079 2.637l-.44 1.715 5.612 3.241 1.156-4.861a22.23 22.23 0 0 0 10.345-3.3c.22-.127 1.045-.667 1.65-1.017l-4.567-2.636c-.66.444-1.21.826-1.43.953-1.761 1.08-4.347 2.192-5.173 2.16l1.761-6.672c6.053.318 9.134-.19 11.72-1.683 3.577-2.065 3.412-5.21-.5-7.466-4.237-2.446-9.794-2.669-13.261-.667-2.036 1.175-2.641 2.16-3.412 5.528-6.272-.953-11.555-.318-14.416 1.588-4.837 3.18-3.793 7.146 1.876 10.48zM72.46 30.086c1.431.826 1.486 1.811.22 2.542-1.266.731-3.3 1.08-6.6.762.44-2.16.771-2.732 1.926-3.4a4.552 4.552 0 0 1 4.454.098v-.002zm-13.426 6.227l-1.761 7.243a12.07 12.07 0 0 1-5.447-1.429c-2.862-1.652-3.357-3.654-1.046-5.052 1.431-.887 4.127-1.237 8.254-.76v-.002z" fill="#FFF" fill-rule="nonzero"/><path id="Path-16" fill="#FFF" d="M28.66 33.265l5.723 3.304 28.393-16.393-10.235-5.909-4.567 2.637 4.512 2.605z"/></g><path id="Path-17" d="M113.953 149.013l-110.6 63.855c-1.414.816-2.572-.059-2.572-1.945l.375-140.946a6.185 6.185 0 0 1 2.572-4.915l110.6-63.854c1.415-.817 2.572.058 2.572 1.944l-.375 140.948a6.18 6.18 0 0 1-2.572 4.913z" fill="#718095" opacity=".3" stroke="none" stroke-width="1" fill-rule="evenodd" transform="matrix(.93 0 0 .93 -.726 -.839)"/><path id="Path-18" d="M124.32 154.2l-110.6 63.854c-1.414.817-2.572-.058-2.572-1.944l.375-140.947a6.18 6.18 0 0 1 2.573-4.914L124.7 6.391c1.415-.816 2.572.059 2.572 1.945l-.375 140.947a6.18 6.18 0 0 1-2.577 4.917z" fill="#003D8F" stroke="none" stroke-width="1" fill-rule="evenodd" transform="matrix(.93 0 0 .93 -.726 -.839)"/><path id="Path-19" fill="#001B41" opacity=".6" d="M120.129 100.008L20.152 157.73V78.785l99.977-57.722z" stroke="none" stroke-width="1" fill-rule="evenodd" transform="matrix(.93 0 0 .93 -.726 -.839)"/><path id="Path-20" fill="#001B41" opacity=".6" d="M68.997 174.145l-48.799 28.174v-42.112l48.799-28.174z" stroke="none" stroke-width="1" fill-rule="evenodd" transform="matrix(.93 0 0 .93 -.726 -.839)"/><path id="Path-21" fill="#001B41" opacity=".62" d="M120.139 144.618L71.34 172.792V130.68l48.799-28.174z" stroke="none" stroke-width="1" fill-rule="evenodd" transform="matrix(.93 0 0 .93 -.726 -.839)"/><ellipse id="Oval" fill="#28CCE8" opacity=".1" rx="18.272" ry="10.549" stroke="none" stroke-width="1" fill-rule="evenodd" fill-opacity="1" transform="rotate(-60 154.37 -12.42) scale(.93)"/><path id="Path-22" fill="#28CCE8" d="M40.321 171.539v-1.654l12.92-7.459v1.653z" stroke="none" stroke-width="1" fill-rule="evenodd" transform="matrix(.93 0 0 .93 -.726 -.839)"/><ellipse id="Oval-2" fill="#28CCE8" opacity=".1" rx="18.272" ry="10.549" stroke="none" stroke-width="1" fill-rule="evenodd" transform="rotate(-60 154.244 40.47) scale(.93)"/><path id="Path-23" fill="#28CCE8" d="M102.552 134.07l-5.744 3.316v-6.632l-1.432.826v6.633l-5.744 3.316v1.654l5.744-3.316v6.632l1.432-.827v-6.632l5.744-3.316z" stroke="none" stroke-width="1" fill-rule="evenodd" transform="matrix(.93 0 0 .93 -.726 -.839)"/><g id="Group-2" opacity=".3" stroke="none" stroke-width="1" fill="none" fill-rule="evenodd" transform="matrix(.93 0 0 .93 171.324 177.722)"><path id="Path-24" d="M132.62.836a4.9 4.9 0 0 0-4.431-.019l-126.3 72.4a1.346 1.346 0 0 0 0 2.551l213.753 123a4.931 4.931 0 0 0 4.437 0l124.115-71.657a1.363 1.363 0 0 0 .007-2.573L132.62.836z" fill="#718095"/><path id="Path-25" d="M132.62.836a4.9 4.9 0 0 0-4.431-.019l-126.3 72.4a1.346 1.346 0 0 0 0 2.551l213.753 123a4.931 4.931 0 0 0 4.437 0l124.115-71.657a1.363 1.363 0 0 0 .007-2.573L132.62.836z" stroke="#FFF" stroke-width=".5"/></g><path id="Path-26" d="M317.814 181.692a4.9 4.9 0 0 0-4.431-.019l-126.3 72.4a1.345 1.345 0 0 0 0 2.55l213.753 123a4.931 4.931 0 0 0 4.437 0l124.115-71.658a1.363 1.363 0 0 0 .007-2.573l-211.581-123.7z" fill="#F6F7F8" stroke="none" stroke-width="1" fill-rule="evenodd" transform="matrix(.93 0 0 .93 -.726 -.839)"/><path id="Path-27" d="M294.84 168.135a4.557 4.557 0 0 0-4.12-.018L173.26 235.45a1.25 1.25 0 0 0 0 2.372l198.791 114.39a4.586 4.586 0 0 0 4.127 0l115.427-66.642a1.267 1.267 0 0 0 .006-2.393l-196.77-115.041z" stroke="#FFF" stroke-width=".465" fill="none" fill-rule="evenodd"/><g id="Group-3" opacity=".7" fill="#001B41" stroke="none" stroke-width="1" fill-rule="evenodd" transform="matrix(.93 0 0 .93 223.404 189.812)"><path id="Path-28" d="M72.414 1.012a4.916 4.916 0 0 0-4.434.042L1.422 40.314a1.353 1.353 0 0 0 .024 2.56l67.28 38.01c1.4.691 3.046.676 4.434-.041l66.558-39.261a1.354 1.354 0 0 0-.024-2.56l-67.28-38.01z"/></g><path id="Path-29" fill="url(#Gradient-0)" d="M312.142 200.652l69.253 39.113-68.513 40.406-69.217-39.126z" stroke="none" stroke-width="1" fill-rule="evenodd" transform="matrix(.93 0 0 .93 -.726 -.839)"/><path id="Path-30" fill="#CEF6FD" opacity=".9" d="M310.056 16.47l63.89 36.083-63.206 37.278-63.858-36.097z" stroke="none" stroke-width="1" fill-rule="evenodd" transform="translate(-21.379 99.149)"/><path id="Path-31" fill="#28CCE8" opacity=".8" d="M241.553 50.855l2.112 190.19 69.217 39.126-2.111-190.19z" stroke="none" stroke-width="1" fill-rule="evenodd" mask="url(#Mask-4)" transform="matrix(.93 0 0 .93 -.726 -.839)"/><path id="Path-32" fill="#0B9DCC" opacity=".85" d="M379.278 49.5l2.117 190.265-68.513 40.406L310.766 89.9z" stroke="none" stroke-width="1" fill-rule="evenodd" mask="url(#Mask-3)" transform="matrix(.93 0 0 .93 -.726 -.839)"/><path id="Path-33" d="M288.411 295.267c-.27-.155-.235-.246-.173-.41.08-.207.189-.491-.437-.852a5.561 5.561 0 0 0-2-.552 2.462 2.462 0 0 1-.974-.252c-.269-.155-.233-.244-.17-.408.08-.207.192-.49-.436-.852a5.537 5.537 0 0 0-2-.553 2.524 2.524 0 0 1-.982-.254c-.268-.155-.233-.246-.17-.409.082-.207.192-.491-.434-.853a5.603 5.603 0 0 0-2-.553 2.51 2.51 0 0 1-.98-.254c-.269-.156-.234-.246-.171-.411.08-.207.189-.491-.439-.853a5.561 5.561 0 0 0-2-.552 2.493 2.493 0 0 1-.98-.254c-.27-.157-.235-.248-.173-.412.08-.208.188-.492-.44-.854a5.625 5.625 0 0 0-2-.554 2.508 2.508 0 0 1-.986-.257c-.27-.157-.237-.248-.174-.412.078-.208.186-.492-.443-.854l-.017-.007c-.013-.007-.017-.014-.03-.022a5.581 5.581 0 0 0-2-.552 2.462 2.462 0 0 1-.974-.252c-.268-.155-.233-.244-.169-.408.08-.207.191-.491-.437-.852a5.526 5.526 0 0 0-1.994-.553 2.913 2.913 0 0 1-.891-.211c-.2-.133-.178-.223-.122-.373.08-.207.19-.491-.436-.852-.025-.014-.053-.022-.078-.035a.67.67 0 0 0-.06-.045 5.583 5.583 0 0 0-2-.553 2.837 2.837 0 0 1-.893-.213c-.191-.129-.169-.218-.111-.366.08-.207.191-.491-.437-.852-.026-.015-.056-.024-.083-.039-.027-.015-.036-.031-.066-.049a5.608 5.608 0 0 0-2-.552 2.841 2.841 0 0 1-.894-.212c-.185-.128-.163-.218-.106-.364.081-.208.191-.491-.435-.853-.031-.018-.067-.029-.1-.046-.033-.017-.032-.028-.059-.044a5.606 5.606 0 0 0-2-.555 2.836 2.836 0 0 1-.894-.213c-.177-.125-.156-.215-.1-.36.08-.207.189-.491-.438-.854-.034-.019-.071-.03-.106-.048-.035-.018-.034-.031-.063-.047a1.036 1.036 0 0 0-.234-.089 7.02 7.02 0 0 0-1.593-.368 2.48 2.48 0 0 1-.981-.254c-.27-.157-.235-.247-.172-.411.08-.208.187-.492-.441-.854a5.606 5.606 0 0 0-2-.555 2.506 2.506 0 0 1-.986-.256c-.269-.157-.236-.248-.174-.412.079-.208.186-.492-.442-.854l-.018-.007c-.013-.008-.016-.014-.03-.022a5.581 5.581 0 0 0-2-.552 2.462 2.462 0 0 1-.974-.252c-.269-.155-.233-.245-.17-.408.08-.208.191-.491-.436-.852a5.537 5.537 0 0 0-2-.553 2.525 2.525 0 0 1-.982-.255c-.268-.155-.234-.245-.17-.409.082-.207.191-.49-.434-.853a5.608 5.608 0 0 0-2-.552 2.532 2.532 0 0 1-.98-.254c-.269-.156-.234-.247-.172-.411.08-.208.19-.491-.438-.854a5.608 5.608 0 0 0-2-.552 2.497 2.497 0 0 1-.981-.254c-.269-.157-.235-.247-.172-.412.08-.207.188-.491-.441-.853a5.606 5.606 0 0 0-2-.555 2.506 2.506 0 0 1-.986-.256c-.27-.157-.237-.248-.174-.412.078-.208.186-.492-.443-.854a2.477 2.477 0 0 0-1.444-.13c-.508.1-.681.313-.388.482.272.157.239.248.175.413-.078.207-.187.491.441.853a5.56 5.56 0 0 0 2 .555c.342.019.676.106.984.256.27.157.235.247.172.412-.08.207-.187.491.44.854a5.649 5.649 0 0 0 2 .552c.341.018.674.104.981.254.269.156.234.247.171.411-.08.207-.189.491.439.854a5.628 5.628 0 0 0 2 .552c.34.018.674.104.98.254.269.155.234.246.17.409-.082.207-.191.491.436.854a5.649 5.649 0 0 0 2 .552c.34.016.673.103.978.255.27.154.233.244.171.407-.081.208-.191.491.433.852a5.54 5.54 0 0 0 2 .551c.339.017.67.103.974.253.27.156.235.246.174.41-.08.208-.19.491.437.853.008 0 .021.008.03.013.009.005.014.012.026.019a5.56 5.56 0 0 0 2 .555c.342.019.676.106.984.256.27.157.235.248.172.412-.08.208-.188.492.44.854a5.628 5.628 0 0 0 2 .552c.303.023.6.093.881.207a.25.25 0 0 1 .139.157.25.25 0 0 1-.033.207c-.077.208-.186.491.442.853.028.017.06.026.089.041.029.015.039.035.072.054a5.65 5.65 0 0 0 2 .553c.305.022.604.093.887.209.186.129.165.219.109.366-.08.208-.188.492.439.854.029.017.062.026.092.042.03.016.033.029.06.045a5.608 5.608 0 0 0 2 .552c.31.021.614.094.9.216.18.127.159.217.1.362-.08.208-.189.491.438.854.027.016.058.025.086.039.028.014.032.028.058.044a5.558 5.558 0 0 0 2 .55c.31.021.615.096.9.22.184.127.162.217.106.362-.082.207-.192.491.436.854.027.015.057.024.085.039.028.015.03.027.056.041.071.038.147.067.225.088a6.97 6.97 0 0 0 1.63.384c.34.016.674.103.979.255.269.155.233.245.17.408-.08.207-.19.49.434.852a5.558 5.558 0 0 0 2 .55c.339.017.671.103.975.254.27.155.235.246.173.409-.08.208-.189.492.437.853.009 0 .022.009.031.013a.248.248 0 0 0 .026.019 5.54 5.54 0 0 0 2 .555c.342.019.676.106.984.257.27.157.235.247.172.411-.08.208-.187.492.44.854a5.65 5.65 0 0 0 2 .553c.341.017.674.103.98.254.269.156.235.246.172.411-.08.207-.19.491.438.853a5.63 5.63 0 0 0 2 .553c.341.017.674.103.98.254.269.155.234.245.17.409-.082.207-.191.49.437.853a5.608 5.608 0 0 0 2 .552c.34.017.673.104.978.255.27.155.233.245.171.408-.08.207-.191.49.433.852a5.558 5.558 0 0 0 2 .55c.339.017.67.103.974.254.27.155.235.246.174.41-.08.207-.19.491.437.852.122.063.253.107.388.129.35.064.709.064 1.059 0 .513-.097.683-.313.394-.482z" fill="#718095" opacity=".4" stroke="none" stroke-width="1" fill-rule="evenodd" transform="matrix(.93 0 0 .93 -.726 -.839)"/><path id="Path-34" d="M262.1 273.964a2.808 2.808 0 0 1-.894-.212c-.186-.128-.164-.218-.107-.364.081-.207.191-.491-.435-.853-.031-.018-.067-.029-.1-.046-.033-.017-.032-.028-.059-.044a5.625 5.625 0 0 0-2-.554 2.905 2.905 0 0 1-.894-.213c-.177-.126-.156-.216-.1-.361.08-.207.19-.491-.438-.853-.034-.02-.071-.031-.106-.049-.035-.018-.034-.03-.063-.047a1.036 1.036 0 0 0-.234-.089 6.914 6.914 0 0 0-1.593-.367 2.515 2.515 0 0 1-.981-.254c-.27-.157-.235-.248-.172-.412.08-.208.188-.492-.441-.854a5.625 5.625 0 0 0-2-.554 2.525 2.525 0 0 1-.986-.257c-.269-.157-.236-.248-.174-.412.079-.208.186-.492-.442-.854l-.018-.007c-.013-.007-.016-.014-.03-.022a5.581 5.581 0 0 0-2-.552 2.462 2.462 0 0 1-.974-.252c-.269-.155-.233-.244-.17-.408.08-.207.191-.491-.436-.852a5.537 5.537 0 0 0-2-.553 2.524 2.524 0 0 1-.982-.254c-.268-.156-.233-.246-.17-.409.082-.208.191-.491-.434-.853a5.603 5.603 0 0 0-2-.553 2.51 2.51 0 0 1-.98-.254c-.269-.156-.234-.246-.172-.411.081-.207.19-.491-.438-.854a5.608 5.608 0 0 0-2-.552 2.48 2.48 0 0 1-.981-.254c-.269-.157-.235-.247-.172-.412.08-.207.188-.491-.44-.853a5.606 5.606 0 0 0-2-.555 2.506 2.506 0 0 1-.986-.256c-.27-.157-.237-.248-.174-.412.078-.208.186-.492-.443-.854a2.478 2.478 0 0 0-1.444-.129c-.508.1-.681.313-.388.481.272.158.239.248.175.413-.078.208-.187.491.442.853a5.56 5.56 0 0 0 2 .555c.342.019.676.106.984.256.27.157.235.248.172.412-.08.208-.187.492.44.854a5.649 5.649 0 0 0 2 .552c.34.018.674.104.98.254.269.156.234.247.171.411-.08.208-.189.491.439.854a5.608 5.608 0 0 0 2 .552c.34.018.674.104.98.254.269.156.234.246.17.409-.082.207-.191.491.436.854a5.608 5.608 0 0 0 2 .552c.34.016.673.103.978.255.27.155.233.245.171.408-.08.207-.191.49.433.852a5.558 5.558 0 0 0 2 .55c.339.017.67.103.974.254.27.155.236.246.174.409-.08.208-.19.492.437.853.009 0 .021.009.03.013.009.004.014.013.026.019a5.56 5.56 0 0 0 2 .555c.342.019.676.107.984.257.27.157.235.247.172.411-.08.208-.188.492.44.855a5.691 5.691 0 0 0 2 .552c.303.022.6.092.881.206a.249.249 0 0 1 .139.158.25.25 0 0 1-.033.207c-.077.207-.186.49.442.852.028.017.06.026.089.042.029.016.039.034.072.053a5.65 5.65 0 0 0 2 .553c.305.023.605.093.888.209a.247.247 0 0 1 .108.366c-.08.208-.188.492.44.854.029.017.061.027.091.042.03.015.033.029.06.045a5.608 5.608 0 0 0 2 .552" fill="#718095" opacity=".8" stroke="none" stroke-width="1" fill-rule="evenodd" transform="matrix(.93 0 0 .93 -.726 -.839)"/><g id="Group-4" opacity=".7" fill="#001B41" stroke="none" stroke-width="1" fill-rule="evenodd" transform="matrix(.93 0 0 .93 322.914 243.752)"><path id="Path-35" d="M72.609 1.3a4.921 4.921 0 0 0-4.435.041L1.617 40.6a1.353 1.353 0 0 0 .024 2.56l67.28 38.01c1.4.69 3.046.675 4.434-.042l66.557-39.26a1.353 1.353 0 0 0-.024-2.561L72.609 1.3z"/></g><path id="Path-36" fill="url(#Gradient-1)" d="M418.259 258.938l69.253 39.113L419 338.457l-69.217-39.126z" stroke="none" stroke-width="1" fill-rule="evenodd" transform="matrix(.93 0 0 .93 -.726 -.839)"/><path id="Bar_2_C" fill="#7DEAE7" opacity=".9" d="M415.378 39.023l64.436 36.391-63.745 37.595-64.402-36.404z" stroke="none" stroke-width="1" fill-rule="evenodd" transform="translate(-29.754 -9.829)"/><path id="Bar_2_A" fill="url(#Gradient-2)" opacity=".8" d="M345.569 70.916l4.214 228.415L419 338.457l-2.112-226.313z" stroke="none" stroke-width="1" fill-rule="evenodd" mask="url(#Mask-2)" transform="matrix(.93 0 0 .93 -.726 -.839)"/><path id="Bar_2_B" fill="url(#Gradient-3)" opacity=".9" d="M485.387 70.75l2.125 227.301L419 338.457l-2.116-227.207z" stroke="none" stroke-width="1" fill-rule="evenodd" mask="url(#Mask-1)" transform="matrix(.93 0 0 .93 -1.191 -.141)"/><path id="Path-37" d="M393.154 353.388c-.27-.156-.235-.246-.173-.41.08-.208.189-.491-.437-.852a5.581 5.581 0 0 0-2-.552 2.467 2.467 0 0 1-.975-.252c-.268-.155-.232-.245-.169-.408.08-.208.191-.491-.436-.852a5.537 5.537 0 0 0-2-.553 2.508 2.508 0 0 1-.982-.255c-.268-.155-.234-.245-.17-.409.082-.207.191-.49-.434-.853a5.608 5.608 0 0 0-2-.552 2.532 2.532 0 0 1-.98-.254c-.269-.156-.234-.246-.172-.411.08-.207.19-.491-.438-.854a5.608 5.608 0 0 0-2-.552 2.497 2.497 0 0 1-.981-.254c-.269-.157-.235-.247-.172-.412.08-.207.188-.491-.441-.853a5.606 5.606 0 0 0-2-.555 2.506 2.506 0 0 1-.986-.256c-.27-.157-.237-.248-.174-.412.078-.208.186-.492-.443-.854l-.017-.007c-.013-.008-.017-.014-.03-.022a5.54 5.54 0 0 0-2-.552 2.5 2.5 0 0 1-.974-.252c-.269-.155-.233-.245-.169-.408.08-.208.191-.491-.437-.852a5.548 5.548 0 0 0-1.994-.554 2.884 2.884 0 0 1-.892-.211c-.2-.132-.177-.223-.121-.372.08-.208.19-.491-.436-.852-.025-.014-.053-.022-.078-.036-.025-.014-.033-.029-.06-.045a5.602 5.602 0 0 0-2-.552 2.87 2.87 0 0 1-.894-.213c-.19-.129-.168-.219-.11-.366.08-.208.191-.491-.437-.852-.026-.016-.057-.024-.084-.039-.027-.015-.035-.032-.065-.049a5.608 5.608 0 0 0-2-.552 2.836 2.836 0 0 1-.894-.213c-.185-.128-.163-.218-.106-.364.081-.207.191-.491-.435-.853-.031-.018-.067-.028-.1-.045-.033-.017-.032-.029-.059-.044a5.606 5.606 0 0 0-2-.555 2.836 2.836 0 0 1-.894-.213c-.178-.126-.156-.215-.1-.36.08-.208.189-.491-.438-.854-.034-.019-.072-.031-.106-.048s-.035-.031-.063-.048a1.163 1.163 0 0 0-.234-.089 7.027 7.027 0 0 0-1.594-.367 2.493 2.493 0 0 1-.98-.254c-.27-.157-.235-.247-.172-.412.08-.207.187-.491-.441-.853a5.606 5.606 0 0 0-2-.555 2.506 2.506 0 0 1-.986-.256c-.27-.157-.237-.248-.174-.413.079-.207.186-.491-.442-.853l-.018-.007a.572.572 0 0 0-.03-.022 5.54 5.54 0 0 0-2-.552 2.506 2.506 0 0 1-.975-.252c-.268-.156-.233-.245-.169-.409.08-.207.191-.49-.436-.851a5.538 5.538 0 0 0-2-.554 2.524 2.524 0 0 1-.982-.254c-.269-.155-.234-.245-.17-.409.082-.207.191-.491-.434-.853a5.603 5.603 0 0 0-2-.553 2.513 2.513 0 0 1-.98-.253c-.269-.157-.234-.247-.172-.411.08-.208.19-.492-.438-.854a5.561 5.561 0 0 0-2-.552 2.515 2.515 0 0 1-.981-.254c-.27-.157-.235-.248-.172-.412.08-.207.188-.492-.441-.854a5.625 5.625 0 0 0-2-.554 2.52 2.52 0 0 1-.985-.257c-.27-.157-.237-.247-.174-.412.078-.208.186-.492-.443-.854a2.48 2.48 0 0 0-1.445-.129c-.507.1-.68.313-.387.482.271.157.238.248.174.413-.077.207-.186.491.442.853a5.606 5.606 0 0 0 2 .555c.342.019.676.106.984.256.27.157.235.247.172.412-.08.207-.188.491.44.854a5.649 5.649 0 0 0 2 .552c.341.017.675.103.981.254.269.156.234.246.171.411-.08.207-.189.491.438.853a5.63 5.63 0 0 0 2 .553c.341.017.674.103.98.254.269.155.234.245.17.409-.082.207-.191.491.436.853a5.608 5.608 0 0 0 2 .552c.34.017.673.104.978.255.27.155.233.245.17.408-.08.207-.19.49.434.852a5.54 5.54 0 0 0 2 .551c.339.016.67.102.974.253.27.156.235.246.173.41-.08.207-.189.491.438.853.008 0 .021.008.03.013.009.005.014.012.026.019a5.56 5.56 0 0 0 2 .555c.341.019.676.106.983.256.27.157.236.247.173.412-.08.207-.188.491.439.854a5.649 5.649 0 0 0 2 .552c.303.023.6.093.881.207a.245.245 0 0 1 .138.157.245.245 0 0 1-.032.207c-.077.207-.187.491.442.853.028.016.06.026.089.041.029.015.039.035.072.054a5.649 5.649 0 0 0 2 .552c.305.023.604.094.887.21.186.129.165.219.109.366-.08.207-.188.491.439.854.029.017.062.026.092.042.03.016.033.029.06.045a5.649 5.649 0 0 0 2 .552c.31.021.614.094.9.216.181.126.16.216.1.362-.08.207-.19.491.438.854.027.015.058.024.086.039.028.015.031.028.058.043a5.54 5.54 0 0 0 2 .551c.31.022.615.096.9.219.184.127.162.217.106.363-.082.207-.192.491.436.853.027.016.057.025.085.039.028.014.03.027.055.042.072.038.148.067.226.088a6.97 6.97 0 0 0 1.63.384c.34.016.674.103.979.255.269.154.233.244.17.407-.08.208-.19.49.434.852a5.54 5.54 0 0 0 2 .551c.339.017.671.103.975.253.27.156.235.246.173.41-.08.207-.19.491.437.853.009 0 .021.008.031.013.01.005.014.012.025.019a5.56 5.56 0 0 0 2 .555c.342.019.676.106.984.256.27.157.235.248.172.412-.08.208-.187.492.44.854a5.649 5.649 0 0 0 2 .552c.341.018.674.104.981.254.269.156.234.247.171.411-.08.208-.189.491.439.854a5.608 5.608 0 0 0 2 .552c.34.018.674.104.98.254.269.155.234.246.17.409-.082.207-.191.491.436.854a5.649 5.649 0 0 0 2 .552c.34.016.673.103.978.255.27.154.233.245.17.407-.079.208-.19.491.434.853a5.579 5.579 0 0 0 2 .55c.339.017.67.103.974.254.27.155.235.245.173.409-.079.208-.189.491.438.853.122.063.253.107.388.129.35.063.709.063 1.059 0 .516-.097.689-.313.397-.482z" fill="#718095" opacity=".4" stroke="none" stroke-width="1" fill-rule="evenodd" transform="matrix(.93 0 0 .93 -.726 -.839)"/><path id="Path-38" d="M366.845 332.085a2.81 2.81 0 0 1-.894-.213c-.185-.127-.163-.217-.106-.364.081-.207.191-.49-.435-.853-.031-.018-.067-.028-.1-.045-.033-.017-.032-.029-.059-.044a5.606 5.606 0 0 0-2-.555 2.836 2.836 0 0 1-.894-.213c-.178-.125-.156-.215-.1-.36.08-.207.189-.491-.438-.854-.034-.019-.072-.03-.106-.048-.034-.018-.035-.031-.063-.047a1.036 1.036 0 0 0-.234-.089 6.968 6.968 0 0 0-1.593-.368 2.497 2.497 0 0 1-.981-.254c-.27-.157-.235-.247-.172-.412.08-.207.187-.491-.441-.853a5.606 5.606 0 0 0-2-.555 2.506 2.506 0 0 1-.986-.256c-.27-.157-.236-.248-.174-.412.079-.208.186-.492-.442-.854l-.018-.007c-.013-.008-.016-.014-.03-.022a5.54 5.54 0 0 0-2-.552 2.506 2.506 0 0 1-.975-.252c-.268-.155-.233-.245-.169-.408.08-.208.191-.491-.436-.852a5.538 5.538 0 0 0-2-.554 2.524 2.524 0 0 1-.982-.254c-.268-.155-.234-.245-.17-.409.082-.207.191-.491-.434-.853a5.602 5.602 0 0 0-2-.552 2.532 2.532 0 0 1-.98-.254c-.269-.156-.234-.247-.172-.411.08-.208.19-.491-.438-.854a5.608 5.608 0 0 0-2-.552 2.497 2.497 0 0 1-.981-.254c-.27-.157-.235-.247-.172-.412.08-.207.188-.491-.441-.853a5.606 5.606 0 0 0-2-.555 2.502 2.502 0 0 1-.985-.256c-.27-.157-.237-.248-.174-.413.078-.207.186-.491-.443-.854a2.48 2.48 0 0 0-1.445-.129c-.507.1-.68.313-.387.482.271.157.238.248.175.413-.078.207-.187.491.441.853a5.606 5.606 0 0 0 2 .555c.342.019.676.106.984.256.27.157.235.247.172.412-.08.207-.187.491.44.854a5.649 5.649 0 0 0 2 .552c.341.017.675.104.981.254.269.156.234.246.171.411-.08.207-.189.491.438.854a5.649 5.649 0 0 0 2 .552c.34.018.674.104.98.254.269.155.234.246.17.409-.082.207-.191.491.436.853a5.63 5.63 0 0 0 2 .553c.34.016.673.103.978.255.27.154.233.244.17.407-.08.208-.19.49.434.852a5.54 5.54 0 0 0 2 .551c.339.017.67.103.974.253.27.156.235.246.173.41-.079.207-.189.491.438.853.008 0 .021.008.03.013.009.005.014.012.026.019a5.56 5.56 0 0 0 2 .555c.341.019.676.106.983.256.27.157.236.248.173.412-.08.208-.188.492.44.854a5.628 5.628 0 0 0 2 .552c.303.023.6.093.881.207a.245.245 0 0 1 .138.157.245.245 0 0 1-.032.207c-.077.207-.187.491.442.853.028.016.06.026.089.041.029.015.039.035.072.054a5.608 5.608 0 0 0 2 .552c.305.023.604.094.887.21.186.129.165.219.109.366-.08.207-.188.492.439.854.029.017.062.026.092.042.03.016.033.029.06.045a5.649 5.649 0 0 0 2 .552" fill="#718095" opacity=".8" stroke="none" stroke-width="1" fill-rule="evenodd" transform="matrix(.93 0 0 .93 -.726 -.839)"/><path id="Path-39" d="M141.594 353.41v-10.574c0-2.014-7.219-3.563-7.219-3.563L122.518 351.4s3.317 2.686 5.253 2.014c1.936-.672 6.734-5.007 8.017-5.681a3.47 3.47 0 0 1 2.765 0l-.277 5.789 3.318-.112z" fill="#718095" stroke="none" stroke-width="1" fill-rule="evenodd" transform="matrix(.93 0 0 .93 -.726 -.839)"/><path id="Path-40" d="M170.963 354.339V344.09c0-1.952-8.317-3.233-8.317-3.233l-9.915 11.53s3.171 2.6 5.02 1.952c1.849-.648 6.437-4.853 7.663-5.506a3.275 3.275 0 0 1 2.642 0l-.264 5.611 3.171-.105z" fill="#718095" stroke="none" stroke-width="1" fill-rule="evenodd" transform="matrix(.93 0 0 .93 -.726 -.839)"/><path id="Path-41" fill="#001B41" d="M150.647 233.854v47.403l3.647 64.073 20.836-2.605-.521-115.122z" stroke="none" stroke-width="1" fill-rule="evenodd" transform="matrix(.93 0 0 .93 -.726 -.839)"/><path id="Path-42" d="M132.057 227.082l-8.831 54.38 3.194 61.255s15.218 3.663 17.472.524c2.254-3.139-.94-55.5-.94-55.5l23.494-55.585-34.389-5.074z" fill="#263D5D" stroke="none" stroke-width="1" fill-rule="evenodd" transform="matrix(.93 0 0 .93 -.726 -.839)"/><path id="Path-43" d="M136.308 119.969s-1.467 24.11 9.058 21.929c10.525-2.181 15.083-12.454 15.083-12.454s-1.778-15.145-6.868-14.9c-5.09.245-16.549 3.068-17.273 5.425z" fill="#CE9C76" stroke="none" stroke-width="1" fill-rule="evenodd" transform="matrix(.93 0 0 .93 -.726 -.839)"/><path id="Path-44" d="M149.084 140.089l-.52 7.032 9.376.261s-2.344-8.856-1.563-11.981c.781-3.125-7.293 4.688-7.293 4.688z" fill="#AD7957" stroke="none" stroke-width="1" fill-rule="evenodd" transform="matrix(.93 0 0 .93 -.726 -.839)"/><path id="Path-45" d="M168.813 162.539s-31.121 6.676-33.86 4.165c-9.028-8.276-21.915-23.42-24.411-24.55-2.754-1.246-10.288-5.811-3.211-7.638a9.624 9.624 0 0 1 8.675 2.74c.889 1.008 3 4.015 4.109 5.022 8.332 7.533 13.008 13.671 18.947 14.381 8.951 1.071 32.609-2.807 33.029-.733.42 2.074-3.278 6.613-3.278 6.613z" fill="#D3A784" stroke="none" stroke-width="1" fill-rule="evenodd" transform="matrix(.93 0 0 .93 -.726 -.839)"/><path id="Path-46" d="M124.452 145.93c-.447-.441-2.124-1.25-2.6-.84-1.544 1.327-3.143 6.265-1.736 7.232 1.826 1.256 11.756 12.9 12.783 13.925 1.027 1.025 6.734 3.538 7.077 3.767.343.229 21.686 12.669 21.686 12.669l3.653-5.479s-34.584-24.2-36.068-26.252c-.001 0-3.347-3.593-4.795-5.022z" fill="url(#Gradient-4)" stroke="none" stroke-width="1" fill-rule="evenodd" transform="matrix(.93 0 0 .93 -.726 -.839)"/><path id="Path-47" d="M176.461 227.852c-20.733 19.455-50.183 9.182-50.183 9.182l3.95-10.629c6.013-9.452 5.4-50.988 3.66-54.773-5.228-11.391-1.911-17.837 0-21.085 4.7-8 28.193-5.222 31.893-4.12 7.319 2.181 9.893 15.782 7.058 25.69-3.4 11.875-2.222 22.66 1.239 29.242 3.602 6.848 6.135 22.972 2.383 26.493z" fill="url(#Gradient-5)" stroke="none" stroke-width="1" fill-rule="evenodd" transform="matrix(.93 0 0 .93 -.726 -.839)"/><path id="Path-48" d="M133.264 163.386c-5.015-13.119 6.911-16.292 7.915-4.707.43 4.967 2.425 17.1-.057 25.92-1.081 3.841-4.5 17.933-9.6 23.214-1.978 2.045-8.107 9.917-9.421 13.071s-1.015 10.616-3.579 11.552c-2.564.936-8.148-.141-7.589-3.487.559-3.346 3.153-7.583 6.494-10.711 3.341-3.128 10.073-15.402 11.573-18.954 5.163-12.284 6.787-29.299 4.264-35.898z" fill="#D3A784" stroke="none" stroke-width="1" fill-rule="evenodd" transform="matrix(.93 0 0 .93 -.726 -.839)"/><path id="Path-49" d="M133.328 152.067s-3.958 6.364.343 16.226c0 0 1.143 15.69-4.5 29.212l-6.048 12.055s2.818 5.062 4.2 4.017a54.677 54.677 0 0 0 13.48-25.156s4.537-8.608.7-31.762c.006 0-2.478-9.227-8.175-4.592z" fill="url(#Gradient-6)" stroke="none" stroke-width="1" fill-rule="evenodd" transform="matrix(.93 0 0 .93 -.726 -.839)"/><path id="Path-50" d="M132.762 118.732s.581 4.029 4.862 2.083c0 0 .18-.1 1.737.868 1.557.968 1.187-1.041 1.187-1.041a1.513 1.513 0 0 1 1.591 1.215c.389 1.362.778 5.254 2.724 5.449l1.362-2.919s4.476 1.167 2.725 4.67 2.5 10.656 2.5 10.656 1.093 1.8 1.96 1.388a1.574 1.574 0 0 1 1.675.14 3.477 3.477 0 0 0 2.981.612c3.114-.583 1.168-1.556 1.168-1.556s2.453 2.98 4.788 2.4a4.283 4.283 0 0 0 3-2.2s3.5.195 2.14-5.448c0 0 4.241-3.259.389-6.228 0 0 4.325-1.309 3.157-5.4 0 0 4.894-8.881-2.053-11.547 0 0-.779-3.892-3.5-5.643a4.972 4.972 0 0 0-4.515-1.563s-6.479-7.674-11.767-2.9c0 0-3.41-3.124-7-.195l-1.557 1.557s-3.7-1.752-5.643.973c-1.943 2.725-2.455 2.237-3.5 2.335-1.562.146-3.288 1.512-3.114 5.449.119 2.678-.341 4.294.39 5.448a7.886 7.886 0 0 0 2.313 1.397z" fill="#181A41" stroke="none" stroke-width="1" fill-rule="evenodd" transform="matrix(.93 0 0 .93 -.726 -.839)"/><path class="cls-5" d="M43.999 121.606l-16.95 9.786v-8.515L44 113.09v8.515z" fill="#11c7e6"/><path class="cls-6" d="M63.672 110.247l-16.95 9.786v-8.515l16.95-9.786v8.515z" fill="#11c7e6"/><path class="cls-7" d="M63.672 96.258l-16.95 9.786v-8.515l16.95-9.786v8.515z" fill="#11c7e6"/><path id="_a4" class="cls-8" d="M101.723 129.612l-20.25 11.691V131.13l20.25-11.692v10.174z" fill="#11c7e6" opacity="1" fill-opacity=".3" transform="matrix(.837 0 0 .837 -1.645 -9.683)"/><path id="_a5" class="cls-9" d="M101.723 112.898l-20.25 11.692v-10.174l20.25-11.691v10.173z" fill="#11c7e6" opacity="1" fill-opacity=".3" transform="matrix(.837 0 0 .837 -1.645 -9.683)"/><path id="_a6" class="cls-10" d="M101.723 95.821l-20.25 11.692V97.339l20.25-11.691v10.173z" fill="#11c7e6" opacity="1" fill-opacity=".3" transform="matrix(.837 0 0 .837 -1.645 -9.683)"/><path class="cls-11" d="M103.776 87.094l-16.95 9.786v-8.515l16.95-9.786v8.515z" fill="#11c7e6" opacity=".3"/><path class="cls-12" d="M103.776 73.105l-16.95 9.786v-8.516l16.95-9.785v8.515z" fill="#11c7e6" opacity=".3"/><path class="cls-13" d="M103.776 58.811l-16.95 9.786v-8.515l16.95-9.786v8.515z" fill="#11c7e6" opacity=".3"/><path class="cls-14" d="M103.776 44.518l-16.95 9.786v-8.516l16.95-9.785v8.515z" fill="#11c7e6" opacity=".3"/></g><script><![CDATA[/*
 KeyshapeJS v1.0.0 (c) 2018 Pixofield Ltd | pixofield.com/keyshapejs/mit-license */
window.KeyshapeJS=function(){function A(a){return"undefined"!==typeof a}function v(a,b){return a&&0==a.indexOf(b)}function H(a){if(!isFinite(a))throw Error("Non-finite value");}function Q(a){if(14>=a)return 16;var b=R[a];b||(b=A(ba[a])?0|(a.toLowerCase().indexOf("color")==a.length-5?48:0):1);return b}function J(a){return 0<=a?Math.pow(a,1/3):-Math.pow(-a,1/3)}function ca(a,b,c,d){if(0==a)return 0==b?b=-d/c:(a=Math.sqrt(c*c-4*b*d),d=(-c+a)/(2*b),0<=d&&1>=d?b=d:(d=(-c-a)/(2*b),b=0<=d&&1>=d?d:0)),b;
var e=c/a-b*b/(a*a)/3;c=b*b*b/(a*a*a)/13.5-b*c/(a*a)/3+d/a;var n=c*c/4+e*e*e/27;b=-b/(3*a);if(0>=n){if(0==e&&0==c)return-J(d/a);a=Math.sqrt(c*c/4-n);d=Math.acos(-c/2/a);c=Math.cos(d/3);d=Math.sqrt(3)*Math.sin(d/3);a=J(a);e=2*a*c+b;if(0<=e&&1>=e)return e;e=-a*(c+d)+b;if(0<=e&&1>=e)return e;e=a*(d-c)+b;if(0<=e&&1>=e)return e}else{a=J(-c/2+Math.sqrt(n));c=J(-c/2-Math.sqrt(n));d=a+c+b;if(0<=d&&1>=d)return d;d=-(a+c)/2+b;if(0<=d&&1>=d)return d}return 0}function da(a,b){if(48==a&&"number"===typeof b)return"#"+
("000000"+b.toString(16)).substr(-6);if(64==a)return b=b.map(function(a){return a+"px"}),b.join(",");if(96==a){a="";for(var c=b.length,d=0;d<c;d+=2)a+=b[d],a+=b[d+1].join(",");return a}if(80==a){if(0==b[0])return"none";a="";c=b.length;for(d=0;d<c;)a+=S[b[d]],1==b[d]?a+="("+b[d+1]+") ":5==b[d]?(a+="("+b[d+1]+"px "+b[d+2]+"px "+b[d+3]+"px rgba("+(b[d+4]>>>24)+","+(b[d+4]>>16&255)+","+(b[d+4]>>8&255)+","+(b[d+4]&255)/255+")) ",d+=3):a=2==b[d]?a+("("+b[d+1]+"px) "):7==b[d]?a+("("+b[d+1]+"deg) "):a+("("+
(0>b[d+1]?0:b[d+1])+") "),d+=2;return a}return 32==a?b+"px":b}function w(a){return 0>=a?0:255<=a?255:a}function ea(a,b,c,d){if(16==a||32==a)return(c-b)*d+b;if(0==a)return.5>d?b:c;if(48==a){if("number"===typeof b&&"number"===typeof c){var e=1-d;return w(e*(b>>16)+d*(c>>16))<<16|w(e*(b>>8&255)+d*(c>>8&255))<<8|w(e*(b&255)+d*(c&255))}return.5>d?b:c}if(64==a){0==b.length&&(b=[0]);0==c.length&&(c=[0]);var n=b.length;b.length!=c.length&&(n=b.length*c.length);var k=[];for(a=0;a<n;++a){var f=b[a%b.length];
var h=(c[a%c.length]-f)*d+f;0>h&&(h=0);k.push(h)}return k}if(96==a){if(b.length!=c.length)return.5>d?b:c;n=b.length;k=[];for(a=0;a<n;a+=2){if(b[a]!==c[a])return.5>d?b:c;k[a]=b[a];k[a+1]=[];for(f=0;f<b[a+1].length;++f)k[a+1].push((c[a+1][f]-b[a+1][f])*d+b[a+1][f])}return k}if(80==a){n=b.length;if(n!=c.length)return.5>d?b:c;k=[];for(a=0;a<n;){if(b[a]!=c[a]||1==b[a])return.5>d?b:c;k[a]=b[a];k[a+1]=(c[a+1]-b[a+1])*d+b[a+1];if(5==b[a]){k[a+2]=(c[a+2]-b[a+2])*d+b[a+2];k[a+3]=(c[a+3]-b[a+3])*d+b[a+3];e=
1-d;var g=b[a+4],q=c[a+4];h=e*(g>>>24)+d*(q>>>24);var m=e*(g>>16&255)+d*(q>>16&255);f=e*(g>>8&255)+d*(q>>8&255);k[a+4]=(w(m)<<16|w(f)<<8|w(e*(g&255)+d*(q&255)))+16777216*(w(h)|0);a+=3}a+=2}return k}return 0}function T(a,b){a:{var c=a+b[2];var d=b[4].length;for(var e=0;e<d;++e)if(c<b[4][e]){c=e;break a}c=d-1}d=b[2];e=b[4][c-1]-d;a=(a-e)/(b[4][c]-d-e);if(b[6]&&b[6].length>c-1)if(d=b[6][c-1],1==d[0])if(0>=a)a=0;else if(1<=a)a=1;else{e=d[1];var n=d[3];a=ca(3*e-3*n+1,-6*e+3*n,3*e,-a);a=3*a*(1-a)*(1-a)*
d[2]+3*a*a*(1-a)*d[4]+a*a*a}else 2==d[0]?(d=d[1],a=Math.ceil(a*d)/d):3==d[0]&&(d=d[1],a=Math.floor(a*d)/d);return ea(b[1]&240,b[5][c-1],b[5][c],a)}function K(){x||(u=(new Date).getTime()+U)}function N(a){if(a||!C){for(var b=!1,c=0;c<t.length;++c)t[c].I(a)&&(b=!0);if(a)for(;0<F.length;)if(a=F.shift(),c=a[0],1==a[1])c.onfinish&&(c.onfinish(),b=!0),c.H();else if(2==a[1]&&c.onloop)c.onloop();return b}}function V(){K();N(!0)&&!x?(C=!0,L(V)):C=!1}function M(){C||(C=!0,L(V))}function W(a,b){var c=[];a.split(b).forEach(function(a){c.push(parseFloat(a))});
return c}function y(a){-1==a.indexOf(",")&&(a=a.replace(" ",","));return W(a,",")}function X(a){a._ks||(a._ks={});if(!a._ks.transform){for(var b=a._ks.transform=[],c=0;14>=c;++c)b[c]=0;b[10]=1;b[11]=1;if(a=a.getAttribute("transform")){a=a.trim().split(") ");for(c=a.length-2;0<=c;--c)if(v(a[c],"translate(")){for(var d=0;d<c;d++)a.shift();break}c=a.shift();v(c,"translate(")&&(c=y(c.substring(10)),b[1]=c[0],b[2]=A(c[1])?c[1]:0,c=a.shift());v(c,"rotate(")&&(c=y(c.substring(7)),b[6]=c[0],c=a.shift());
v(c,"skewX(")&&(c=y(c.substring(6)),b[7]=c[0],c=a.shift());v(c,"skewY(")&&(c=y(c.substring(6)),b[8]=c[0],c=a.shift());v(c,"scale(")&&(c=y(c.substring(6)),b[10]=c[0],b[11]=A(c[1])?c[1]:0,c=a.shift());v(c,"translate(")&&(c=y(c.substring(10)),b[13]=c[0],b[14]=A(c[1])?c[1]:0)}}}function Y(a){this.D=a;this.B=[];this.w=[];this.s=0;this.o=this.a=this.c=null;this.h=this.f=this.g=0;this.b=1;this.i=this.C=this.m=!1}function I(a,b,c){b=a[b];void 0===b&&(b=a[c]);return b}function fa(a){return Array.isArray(a)?
a:v(a,"cubic-bezier(")?(a=a.substring(13,a.length-1).split(","),[1,parseFloat(a[0]),parseFloat(a[1]),parseFloat(a[2]),parseFloat(a[3])]):v(a,"steps(")?(a=a.substring(6,a.length-1).split(","),[a[1]&&"start"==a[1].trim()?2:3,parseFloat(a[0])]):[0]}function ha(a){a=a.trim();return v(a,"#")?(parseInt(a.substring(1),16)<<8)+255:v(a,"rgba(")?(a=a.substring(5,a.length-1),a=a.split(","),(parseInt(a[0],10)<<24)+(parseInt(a[1],10)<<16)+(parseInt(a[2],10)<<8)+255*parseFloat(a[3])<<0):a}function Z(a){!1===a.i&&
(t.push(a),a.i=!0,!1!==a.D.autoplay&&a.play());return this}function O(a){if(!0===a.i){a._cancel();var b=t.indexOf(a);-1<b&&t.splice(b,1);b=F.indexOf(a);-1<b&&F.splice(b,1);a.i=!1}return this}var P=Error("Not in timeline list"),aa="mpath posX posY    rotate skewX skewY  scaleX scaleY  anchorX anchorY".split(" "),ia=" translate translate    rotate skewX skewY  scale scale  translate translate".split(" "),S="none url blur brightness contrast drop-shadow grayscale hue-rotate invert opacity saturate sepia".split(" "),
L=window.requestAnimationFrame||window.webkitRequestAnimationFrame||window.mozRequestAnimationFrame||window.oRequestAnimationFrame||window.msRequestAnimationFrame||null;L||(L=function(a){window.setTimeout(a,16)});var R={d:97,fill:48,fillOpacity:16,filter:80,height:33,opacity:16,offsetDistance:33,stroke:48,strokeDasharray:64,strokeDashoffset:32,strokeOpacity:16,strokeWidth:32,transform:1,width:33},ba=window.getComputedStyle(document.documentElement),C=!1,u=(new Date).getTime(),x,U=0,t=[],F=[];Y.prototype=
{v:function(a){var b=0;if(null!==this.c){var c=this.j();0<this.b&&null!==c&&c>=this.f?this.h?(this.c=u-this.g/this.b,this.h--,b=2):(b=1,a?this.a=c:this.a=this.o?Math.max(this.o,this.f):this.f):0>this.b&&null!==c&&c<=this.g?this.h&&Infinity!=this.f?(this.c=u-this.f/this.b,this.h--,b=2):(this.h=0,b=1,a?this.a=c:this.a=this.o?Math.min(this.o,this.g):this.g):null!==c&&0!=this.b&&(a&&null!==this.a&&(this.c=u-this.a/this.b),this.a=null)}this.o=this.j();return b},I:function(a){a&&(this.m&&(this.m=!1,null===
this.c&&(0!=this.b&&null!==this.a?(this.c=u-this.a/this.b,this.a=null):this.c=u)),null===this.a&&null!==this.c&&(a=this.v(!1),0!=a&&F.push([this,a])));a=this.j();if(null===a)return!1;for(var b=this.B,c=this.w,d=0;d<b.length;++d){for(var e=b[d],n=!1,k=0;k<c[d].length;++k){var f=c[d][k],h=f[0];if(null!==h){var g=f[2];var q=f[4].length,m=f[4][q-1]-g;g=0==m?f[5][q-1]:a<=g?f[5][0]:a>=g+f[3]?0==f[3]%m?f[5][q-1]:T(f[3]%m,f):T((a-g)%m,f);0==h?(e._ks.mpath=f[8],e._ks.transform[h]=g,n=!0):14>=h?(e._ks.transform[h]=
g,n=!0):(g=da(f[1]&240,g),f[1]&1?e.setAttribute(h,g):e.style[h]=g)}}if(n){X(e);n=e._ks.transform;k="";if(f=e._ks.mpath)g=n[0],0>g&&(g=0),100<g&&(g=100),g=g*f[2]/100,h=f[1].getPointAtLength(g),k="translate("+h.x+","+h.y+") ",f[0]&&(.5>g?(g=h,h=f[1].getPointAtLength(.5)):g=f[1].getPointAtLength(g-.5),k+="rotate("+180*Math.atan2(h.y-g.y,h.x-g.x)/Math.PI+") ");for(f=1;f<n.length;++f)h=n[f],h!=(10==f||11==f?1:0)&&(k+=" "+ia[f]+"(",k=2>=f?k+(1==f?h+",0":"0,"+h):13<=f?k+(13==f?h+",0":"0,"+h):10<=f?k+(10==
f?h+",1":"1,"+h):k+h,k+=")");e.setAttribute("transform",k)}}return"running"==this.l()},H:function(){!1!==this.D.autoremove&&"finished"==this.l()&&O(this)},A:function(){if(!this.C){this.C=!0;for(var a=this.B,b=this.w,c=0;c<a.length;++c)for(var d=a[c],e=0;e<b[c].length;++e)14>=b[c][e][0]&&X(d)}},play:function(a){A(a)&&null!==a&&(H(a),0>this.b&&a<this.g&&(a=this.g),0<this.b&&a>this.f&&(a=this.f),this.u(a,!0));if(!this.i)throw P;a=this.j();if(0<this.b&&(null===a||a>=this.f))this.a=this.g;else if(0>this.b&&
(null===a||a<=this.g)){if(Infinity==this.f)throw Error("Cannot seek to Infinity");this.a=this.f}else 0==this.b&&null===a&&(this.a=this.g);if(null===this.a)return this;this.c=null;this.m=!0;this.A();M();return this},pause:function(a){if(!this.i)throw P;A(a)&&H(a);if("paused"!=this.l()){K();var b=this.j();if(null===b)if(0<=this.b)this.a=this.g;else{if(Infinity==this.f)throw Error("Cannot seek to Infinity");this.a=this.f}null!==this.c&&null===this.a&&(this.a=b);this.c=null;this.m=!1;this.v(!1);this.A();
M()}A(a)&&this.u(a,!0);return this},range:function(a,b){if(0==arguments.length)return{"in":this.g,out:this.f};var c=+a,d=this.s;A(b)&&(d=+b);H(c);if(0>c||0>d||c>=d||isNaN(d))throw Error("Invalid range");var e=this.l();this.g=c;this.f=d;"finished"==e&&"running"==this.l()&&this.play();return this},loop:function(a){if(!A(a))return{count:this.h};this.h=!0===a?Infinity:Math.floor(a);if(0>this.h||isNaN(this.h))this.h=0;return this},j:function(){return null!==this.a?this.a:null===this.c?null:(u-this.c)*
this.b},u:function(a,b){b&&K();null!==a&&(this.A(),null!==this.a||null===this.c||0==this.b?(this.a=a,N(!1)):this.c=u-a/this.b,this.i||(this.c=null),this.o=null,this.v(!0),M())},F:function(){return this.j()},time:function(a){if(A(a)){if(!this.i)throw P;H(a);this.u(a,!0);return this}return this.F()},l:function(){var a=this.j();return this.m?"running":null===a?"idle":null===this.c?"paused":0<this.b&&a>=this.f||0>this.b&&a<=this.g?"finished":"running"},state:function(){return this.l()},duration:function(){return this.s},
G:function(a){H(a);K();var b=this.j();this.b=a;null!==b&&this.u(b,!1)},rate:function(a){return A(a)?(this.G(a),this):this.b},_cancel:function(){if(!this.i||"idle"==this.l())return this;this.c=this.a=null;this.m=!1;return this}};return{version:"1.0.0",animate:function(){var a={};if(1==arguments.length%2){a=arguments[arguments.length-1];var b={};for(c in a)b[c]=a[c];a=b}var c=new Y(a);a=arguments;for(var d=b=0;d<a.length-1;d+=2){var e=a[d];var n=e instanceof Element?e:document.getElementById(e.substring(1));
if(!n)throw Error("Invalid target: "+e);e=n;n=a[d+1];e._ks||(e._ks={});for(var k=[],f=0;f<n.length;++f){var h=n[f],g=I(h,"p","property");if("string"!=typeof g||-1!=g.indexOf("-")||""===g||!(0<R[g]||0<=aa.indexOf(g)))throw Error("Invalid property: "+g);var q=aa.indexOf(g);""!==g&&0<=q&&(g=q);q=Q(g);var m=I(h,"t","times");if(!m||2>m.length)throw Error("Not enough times");m=m.slice();if(!isFinite(m[0])||0>m[0])throw Error("Invalid time: "+m[0]);for(var B=1;B<m.length;++B)if(!isFinite(m[B])||0>m[B]||
m[B]<m[B-1])throw Error("Invalid time: "+m[B]);B=m[0];var u=m[m.length-1]-B,x=h.iterations||0;1>x&&(x=1);u*=x;b<u+B&&(b=u+B);var t=I(h,"v","values");if(!t||t.length!=m.length)throw Error("Values do not match times");t=t.slice();for(var D=g,l=t,w=Q(D)&240,p=0;p<l.length;++p)if(96==w){for(var y=l[p].substring(6,l[p].length-2).match(/[A-DF-Za-df-z][-+0-9eE., ]*/ig),C=[],r=0;r<y.length;++r){C.push(y[r][0]);for(var z=1<y[r].trim().length?y[r].substring(1).split(","):[],G=0;G<z.length;++G)z[G]=parseFloat(z[G]);
C.push(z)}l[p]=C}else if(48==w)v(l[p],"#")?l[p]=parseInt(l[p].substring(1),16):v(l[p],"url(")||"none"==l[p]||(console.warn("unsupported color: "+l[p]),l[p]=0);else if(80==w){y=l;C=p;r=l[p];if("none"==r)r=[0];else{z=[];for(var E=r.indexOf("(");0<E;)if(G=S.indexOf(r.substring(0,E)),0<=G){z.push(G);var F=r.indexOf(") ");0>F&&(F=r.length-1);E=r.substring(E+1,F).split(" ");5==G?(z.push(parseFloat(E[0])),z.push(parseFloat(E[1])),z.push(parseFloat(E[2])),z.push(ha(E[3]))):1==G?z.push(E[0]):z.push(parseFloat(E[0]));
r=r.substring(F+1).trim();E=r.indexOf("(")}else break;r=z}y[C]=r}else 64==w?"none"!=l[p]?/^[0-9 .]*$/.test(l[p])?l[p]=W(l[p]," "):(console.warn("unsupported value: "+l[p]),l[p]=[0]):l[p]=[0]:32==w?(H(l[p]),l[p]=parseFloat(l[p])):0===D&&(l[p]=parseFloat(l[p]));D=I(h,"e","easing");l=m.length;for(D||(D=[]);D.length<l;)D.push([1,0,0,.58,1]);for(l=0;l<D.length;++l)D[l]=fa(D[l]);q=[g,q,B,u,m,t,D,x];m=I(h,"mp","motionPath");A(m)&&0===g&&(q[8]=[],q[8][0]=h.motionRotate,h=document.createElementNS("http://www.w3.org/2000/svg",
"path"),m||(m="M0,0"),h.setAttribute("d",m),q[8][1]=h,q[8][2]=h.getTotalLength());k.push(q)}0<k.length&&(c.B.push(e),c.w.push(k))}c.s=b;c.g=0;c.f=c.s;Z(c);return c},add:Z,remove:O,removeAll:function(){for(var a=t.length-1;0<=a;--a)O(t[a]);return this},timelines:function(){return t.slice()},globalPlay:function(){x&&(U=x-(new Date).getTime(),x=void 0,M());return this},globalPause:function(){x||(x=u,N(!1));return this},globalState:function(){return x?"paused":"running"}}}();
]]></script><script><![CDATA[if(KeyshapeJS.version.indexOf('1.')!=0)throw Error('Expected KeyshapeJS v1.*.*');window.ks=document.ks=KeyshapeJS;(function(ks){
ks.animate("#Path-30",[{p:'mpath',t:[4000,5100,10200,11200],v:['0%','49.998586%','49.999529%','100%'],e:[[1,0.47,0,0.745,0.715],[0],[1,0.47,0,0.745,0.715],[0]],mp:"M286.954,108.482L286.954,2.48336L286.954,2.48136L286.954,108.484"}],
"#_a0",[{p:'mpath',t:[4000,5100,10200,11200],v:['0%','50%','50%','100%'],e:[[1,0.47,0,0.745,0.715],[0],[1,0.47,0,0.745,0.715],[0]],mp:"M277.217,279.513L277.217,165.513L277.217,165.513L277.217,279.513"}],
"#_a1",[{p:'mpath',t:[4000,5100,10200,11200],v:['0%','50%','50%','100%'],e:[[1,0.47,0,0.745,0.715],[0],[1,0.47,0,0.745,0.715],[0]],mp:"M346.08,279.983L346.08,165.483L346.08,165.483L346.08,279.983"}],
"#Bar_2_C",[{p:'mpath',t:[3600,4700,9900,10800],v:['0%','49.999043%','50.030512%','100%'],e:[[1,0.47,0,0.745,0.715],[0],[1,0.47,0,0.745,0.715],[0]],mp:"M384.913,22.9214L385.729,135.738L385.73,135.667L384.913,22.9171"}],
"#_a2",[{p:'mpath',t:[3600,4700,9900,10800],v:['0%','50%','50%','100%'],e:[[1,0.47,0,0.745,0.715],[0],[1,0.47,0,0.745,0.715],[0]],mp:"M383.335,205.737L383.335,325.737L383.335,325.737L383.335,205.737"}],
"#_a3",[{p:'mpath',t:[3600,4700,9900,10800],v:['0%','50.000825%','50.000825%','100%'],e:[[1,0.47,0,0.745,0.715],[1,0.175,0.885,0.32,1],[1,0.47,0,0.745,0.715],[0]],mp:"M452.698,203.717L452.198,325.717L452.198,325.717L452.198,203.72"}],
"#_a4",[{p:'fillOpacity',t:[2400,2900,9200,9700],v:[0.3,1,1,0.3],e:[[0],[0],[0],[0]]}],
"#_a5",[{p:'fillOpacity',t:[2700,3200,8900,9300],v:[0.3,1,1,0.3],e:[[0],[0],[0],[0]]}],
"#_a6",[{p:'fillOpacity',t:[3100,3600,8600,9000],v:[0.3,1,1,0.3],e:[[0],[0],[0],[0]]}],
"#Path-3",[{p:'scaleX',t:[2600,3100],v:[1,1.9],e:[[0],[0]]},{p:'scaleY',t:[2600,3100],v:[1,1.9],e:[[0],[0]]},{p:'opacity',t:[1300,2300,2600,3100],v:[0,0,0.3,0],e:[[0],[0],[0],[0]]},{p:'fill',t:[1300,2300],v:['#001B41','#28cce8'],e:[[0],[0]]}],
"#Path-2",[{p:'scaleX',t:[1900,2400],v:[1,1.9],e:[[0],[0]]},{p:'scaleY',t:[1900,2400],v:[1,1.9],e:[[0],[0]]},{p:'opacity',t:[600,1600,1900,2400],v:[0,0,0.3,0],e:[[0],[0],[0],[0]]},{p:'fill',t:[600,1600],v:['#001B41','#28cce8'],e:[[0],[0]]}],
"#Path-5",[{p:'scaleX',t:[7900,8400],v:[1,1.9],e:[[0],[0]]},{p:'scaleY',t:[7900,8400],v:[1,1.9],e:[[0],[0]]},{p:'opacity',t:[6600,7600,7900,8400],v:[0,0,0.3,0],e:[[0],[0],[0],[0]]},{p:'fill',t:[6600,7600],v:['#001B41','#28cce8'],e:[[0],[0]]}],
"#Path-4",[{p:'scaleX',t:[8600,9100],v:[1,1.9],e:[[0],[0]]},{p:'scaleY',t:[8600,9100],v:[1,1.9],e:[[0],[0]]},{p:'opacity',t:[7300,8300,8600,9100],v:[0,0,0.3,0],e:[[0],[0],[0],[0]]},{p:'fill',t:[7300,8300],v:['#001B41','#28cce8'],e:[[0],[0]]}],
{autoremove:false}).range(0,11500).loop(true);
if(document.location.search.substr(1).split('&').indexOf('global=paused')>=0)ks.globalPause()})(KeyshapeJS);
]]></script></svg>