<svg width="460" height="512" fill="none" xmlns="http://www.w3.org/2000/svg"><path d="M326 220c0-11-8-20-20-20H100a20 20 0 1 0 0 40h206c12 0 20-9 20-20zm-226 60a20 20 0 1 0 0 40h126a20 20 0 1 0 0-40H100z" fill="#fff"/><path d="M147 472H81c-22 0-40-18-40-40V80c0-22 18-40 40-40h245c23 0 40 18 40 40v123a20 20 0 1 0 40 0V80c0-44-35-80-80-80H81C36 0 1 36 1 80v352c0 44 35 80 80 80h66a20 20 0 1 0 0-40z" fill="#fff"/><path d="M442 290a60 60 0 0 0-85 0L247 399l-5 8-24 79a20 20 0 0 0 25 25l81-22 8-5 110-110c23-23 23-61 0-84zM308 452l-41 11 12-39 74-74 28 28-73 74zm106-106l-4 4-29-28 4-4a20 20 0 0 1 29 28zM306 120H100a20 20 0 1 0 0 40h206a20 20 0 1 0 0-40z" fill="#fff"/></svg>