<svg width="556" height="537" fill="none" xmlns="http://www.w3.org/2000/svg"><path stroke="#868686" stroke-width="3" d="M220 211l-87-80"/><g filter="url(#filter0_d)"><circle cx="127.1" cy="119" r="57" fill="#EFEFEF"/></g><g filter="url(#filter1_d)"><path d="M98 86l5 59 24 6 23-6 5-59H98z" fill="#FF5722"/><path d="M144 109h-27v8h26l-2 22-14 4-15-4-1-12h7l1 6 8 2 8-2v-9h-24l-2-22h36l-1 7z" fill="#FAFAFA"/></g><path stroke="#868686" stroke-width="3" d="M196 299L91 352"/><g filter="url(#filter2_d)"><circle cx="77.4" cy="353.2" r="57" transform="rotate(-69 77 353)" fill="#EFEFEF"/></g><g filter="url(#filter3_d)"><path d="M50 323l5 55 22 6 22-6 5-55H50z" fill="#2196F3"/><path d="M96 341v7l-2 21-14 4-14-4-1-11h7v6l8 2 7-2 1-10-24 1v-7h25v-7H63v-7h34l-1 7z" fill="#FAFAFA"/></g><path stroke="#868686" stroke-width="3" d="M283 242l67-149"/><g filter="url(#filter4_d)"><circle cx="357.7" cy="73.3" r="57" transform="rotate(70 358 73)" fill="#EFEFEF"/></g><g filter="url(#filter5_d)"><path d="M383 42h-50v53h50V42z" fill="#fff"/><path d="M331 100l-6-60h66l-6 60-27 6-27-6zm49-4l5-51h-27v57l22-6zm-24-43h-7v30l-13-3v7l20 5V53z" fill="#F7E018"/><path d="M358 45h27l-5 51-22 6V45zm21 43l2-19-14 1V60h14l1-7h-21v25l13-2v6l-13 3v7l18-4z" fill="#F7E018"/></g><path stroke="#868686" stroke-width="3" d="M281 264l-12 162"/><g filter="url(#filter6_d)"><circle cx="268.8" cy="447.9" r="57" transform="rotate(-131 269 448)" fill="#EFEFEF"/></g><path d="M269 469l-2 11 1 10h2l2-11c-2-1-3-6-3-10z" fill="#B8C4C2"/><path d="M287 439c-4-19-15-24-17-28l-3-5c0 2 0 3-2 4-3 3-17 13-18 35-1 20 17 32 19 34l5-1c8-5 20-19 16-39" fill="#10AA50"/><path d="M272 479c-3-1-4-6-4-10v-22l-1-40 3 5c3 3 15 8 21 28 5 20-9 34-19 39z" fill="#12924F"/><path stroke="#868686" stroke-width="3" d="M323 305l127 102"/><g filter="url(#filter7_d)"><circle cx="467.5" cy="419.2" r="57" transform="rotate(174 468 419)" fill="#EFEFEF"/></g><g filter="url(#filter8_d)"><path d="M490 389c-9-8-23-9-32 0l-15 14a20 20 0 0 0-7 15c0 5 2 10 5 13a21 21 0 0 0 0 17l5 7c9 8 23 9 32 1l15-15a20 20 0 0 0 6-15c0-5-1-9-4-13a20 20 0 0 0 0-17l-5-7" fill="#FF3E00"/><path d="M468 452a14 14 0 0 1-20-12v-2l1-1h1l7 2h1v1l1 3a4 4 0 0 0 5 0h1l15-15a4 4 0 0 0 1-2 4 4 0 0 0-1-3 4 4 0 0 0-5-1l-1 1-6 5-3 2a14 14 0 0 1-19-7l-1-5a12 12 0 0 1 4-9l15-14 4-2a14 14 0 0 1 18 7 13 13 0 0 1 1 6v1h-1l-7-2h-1v-1l-1-2a4 4 0 0 0-5-1h-1l-15 15a4 4 0 0 0-1 3 4 4 0 0 0 1 2 4 4 0 0 0 5 1h1l5-6 4-2a14 14 0 0 1 18 7l1 5a12 12 0 0 1-3 9l-16 14-3 3" fill="#fff"/></g><path stroke="#868686" stroke-width="3" d="M294 257l158-36"/><g filter="url(#filter9_d)"><circle cx="473" cy="214.6" r="57" transform="rotate(122 473 215)" fill="#EFEFEF"/></g><g filter="url(#filter10_d)" fill="#6DA25D"><path d="M474 251l-3-1-9-5v-1l4-2 7 4a1 1 0 0 0 1 0l26-15v-31l-26-15a1 1 0 0 0-1 0l-26 15v31l7 4c4 2 7 0 7-2v-30a1 1 0 0 1 0-1h4a1 1 0 0 1 0 1v30c0 5-2 8-7 8l-6-2-7-4a5 5 0 0 1-3-4v-31a5 5 0 0 1 3-4l26-15a6 6 0 0 1 5 0l26 15a5 5 0 0 1 3 4v31a6 6 0 0 1-3 4l-26 15-2 1z"/><path d="M482 230c-12 0-14-5-14-9a1 1 0 0 1 0-1h4a1 1 0 0 1 1 1c0 3 2 5 9 5 5 0 7-1 7-4 0-2 0-3-9-4-7-1-11-2-11-8 0-5 4-8 12-8s12 2 13 9a1 1 0 0 1-1 0h-4c-1-4-3-5-8-5-6 0-7 2-7 4s1 2 9 3 12 3 12 8c0 6-5 9-13 9z"/></g><g filter="url(#filter11_d)"><circle cx="275.6" cy="264.5" r="84.5" fill="#fff"/></g><path d="M254 285l-3-1-21-18a3 3 0 0 1 0-5l21-18a3 3 0 1 1 5 5l-19 15 19 16a3 3 0 0 1-2 6zm42 0l-3-1v-5l19-16-19-15a3 3 0 0 1 5-5l21 18a3 3 0 0 1 0 5l-21 18-2 1zm-29 13h-1c-1 0-3-2-2-4l13-62a3 3 0 1 1 6 1l-13 63c0 1-1 2-3 2z" fill="#5E5E5E"/><defs><filter id="filter0_d" x="66.1" y="62" width="122" height="122" filterUnits="userSpaceOnUse" color-interpolation-filters="sRGB"><feFlood flood-opacity="0" result="BackgroundImageFix"/><feColorMatrix in="SourceAlpha" values="0 0 0 0 0 0 0 0 0 0 0 0 0 0 0 0 0 0 127 0"/><feOffset dy="4"/><feGaussianBlur stdDeviation="2"/><feColorMatrix values="0 0 0 0 0 0 0 0 0 0 0 0 0 0 0 0 0 0 0.59 0"/><feBlend in2="BackgroundImageFix" result="effect1_dropShadow"/><feBlend in="SourceGraphic" in2="effect1_dropShadow" result="shape"/></filter><filter id="filter1_d" x="94.1" y="86" width="65" height="73.3" filterUnits="userSpaceOnUse" color-interpolation-filters="sRGB"><feFlood flood-opacity="0" result="BackgroundImageFix"/><feColorMatrix in="SourceAlpha" values="0 0 0 0 0 0 0 0 0 0 0 0 0 0 0 0 0 0 127 0"/><feOffset dy="4"/><feGaussianBlur stdDeviation="2"/><feColorMatrix values="0 0 0 0 0 0 0 0 0 0 0 0 0 0 0 0 0 0 0.25 0"/><feBlend in2="BackgroundImageFix" result="effect1_dropShadow"/><feBlend in="SourceGraphic" in2="effect1_dropShadow" result="shape"/></filter><filter id="filter2_d" x="0" y="279.7" width="154.9" height="154.9" filterUnits="userSpaceOnUse" color-interpolation-filters="sRGB"><feFlood flood-opacity="0" result="BackgroundImageFix"/><feColorMatrix in="SourceAlpha" values="0 0 0 0 0 0 0 0 0 0 0 0 0 0 0 0 0 0 127 0"/><feOffset dy="4"/><feGaussianBlur stdDeviation="2"/><feColorMatrix values="0 0 0 0 0 0 0 0 0 0 0 0 0 0 0 0 0 0 0.59 0"/><feBlend in2="BackgroundImageFix" result="effect1_dropShadow"/><feBlend in="SourceGraphic" in2="effect1_dropShadow" result="shape"/></filter><filter id="filter3_d" x="46.1" y="322.6" width="62" height="69.9" filterUnits="userSpaceOnUse" color-interpolation-filters="sRGB"><feFlood flood-opacity="0" result="BackgroundImageFix"/><feColorMatrix in="SourceAlpha" values="0 0 0 0 0 0 0 0 0 0 0 0 0 0 0 0 0 0 127 0"/><feOffset dy="4"/><feGaussianBlur stdDeviation="2"/><feColorMatrix values="0 0 0 0 0 0 0 0 0 0 0 0 0 0 0 0 0 0 0.25 0"/><feBlend in2="BackgroundImageFix" result="effect1_dropShadow"/><feBlend in="SourceGraphic" in2="effect1_dropShadow" result="shape"/></filter><filter id="filter4_d" x="280.4" y="0" width="154.7" height="154.7" filterUnits="userSpaceOnUse" color-interpolation-filters="sRGB"><feFlood flood-opacity="0" result="BackgroundImageFix"/><feColorMatrix in="SourceAlpha" values="0 0 0 0 0 0 0 0 0 0 0 0 0 0 0 0 0 0 127 0"/><feOffset dy="4"/><feGaussianBlur stdDeviation="2"/><feColorMatrix values="0 0 0 0 0 0 0 0 0 0 0 0 0 0 0 0 0 0 0.59 0"/><feBlend in2="BackgroundImageFix" result="effect1_dropShadow"/><feBlend in="SourceGraphic" in2="effect1_dropShadow" result="shape"/></filter><filter id="filter5_d" x="321.1" y="40" width="74.1" height="74.3" filterUnits="userSpaceOnUse" color-interpolation-filters="sRGB"><feFlood flood-opacity="0" result="BackgroundImageFix"/><feColorMatrix in="SourceAlpha" values="0 0 0 0 0 0 0 0 0 0 0 0 0 0 0 0 0 0 127 0"/><feOffset dy="4"/><feGaussianBlur stdDeviation="2"/><feColorMatrix values="0 0 0 0 0 0 0 0 0 0 0 0 0 0 0 0 0 0 0.25 0"/><feBlend in2="BackgroundImageFix" result="effect1_dropShadow"/><feBlend in="SourceGraphic" in2="effect1_dropShadow" result="shape"/></filter><filter id="filter6_d" x="184.4" y="367.5" width="168.8" height="168.8" filterUnits="userSpaceOnUse" color-interpolation-filters="sRGB"><feFlood flood-opacity="0" result="BackgroundImageFix"/><feColorMatrix in="SourceAlpha" values="0 0 0 0 0 0 0 0 0 0 0 0 0 0 0 0 0 0 127 0"/><feOffset dy="4"/><feGaussianBlur stdDeviation="2"/><feColorMatrix values="0 0 0 0 0 0 0 0 0 0 0 0 0 0 0 0 0 0 0.59 0"/><feBlend in2="BackgroundImageFix" result="effect1_dropShadow"/><feBlend in="SourceGraphic" in2="effect1_dropShadow" result="shape"/></filter><filter id="filter7_d" x="400.8" y="356.4" width="133.5" height="133.5" filterUnits="userSpaceOnUse" color-interpolation-filters="sRGB"><feFlood flood-opacity="0" result="BackgroundImageFix"/><feColorMatrix in="SourceAlpha" values="0 0 0 0 0 0 0 0 0 0 0 0 0 0 0 0 0 0 127 0"/><feOffset dy="4"/><feGaussianBlur stdDeviation="2"/><feColorMatrix values="0 0 0 0 0 0 0 0 0 0 0 0 0 0 0 0 0 0 0.59 0"/><feBlend in2="BackgroundImageFix" result="effect1_dropShadow"/><feBlend in="SourceGraphic" in2="effect1_dropShadow" result="shape"/></filter><filter id="filter8_d" x="425.7" y="378.7" width="84.3" height="94.8" filterUnits="userSpaceOnUse" color-interpolation-filters="sRGB"><feFlood flood-opacity="0" result="BackgroundImageFix"/><feColorMatrix in="SourceAlpha" values="0 0 0 0 0 0 0 0 0 0 0 0 0 0 0 0 0 0 127 0"/><feOffset dy="4"/><feGaussianBlur stdDeviation="2"/><feColorMatrix values="0 0 0 0 0 0 0 0 0 0 0 0 0 0 0 0 0 0 0.25 0"/><feBlend in2="BackgroundImageFix" result="effect1_dropShadow"/><feBlend in="SourceGraphic" in2="effect1_dropShadow" result="shape"/></filter><filter id="filter9_d" x="390.3" y="135.9" width="165.3" height="165.3" filterUnits="userSpaceOnUse" color-interpolation-filters="sRGB"><feFlood flood-opacity="0" result="BackgroundImageFix"/><feColorMatrix in="SourceAlpha" values="0 0 0 0 0 0 0 0 0 0 0 0 0 0 0 0 0 0 127 0"/><feOffset dy="4"/><feGaussianBlur stdDeviation="2"/><feColorMatrix values="0 0 0 0 0 0 0 0 0 0 0 0 0 0 0 0 0 0 0.59 0"/><feBlend in2="BackgroundImageFix" result="effect1_dropShadow"/><feBlend in="SourceGraphic" in2="effect1_dropShadow" result="shape"/></filter><filter id="filter10_d" x="438.1" y="180" width="71" height="79" filterUnits="userSpaceOnUse" color-interpolation-filters="sRGB"><feFlood flood-opacity="0" result="BackgroundImageFix"/><feColorMatrix in="SourceAlpha" values="0 0 0 0 0 0 0 0 0 0 0 0 0 0 0 0 0 0 127 0"/><feOffset dy="4"/><feGaussianBlur stdDeviation="2"/><feColorMatrix values="0 0 0 0 0 0 0 0 0 0 0 0 0 0 0 0 0 0 0.25 0"/><feBlend in2="BackgroundImageFix" result="effect1_dropShadow"/><feBlend in="SourceGraphic" in2="effect1_dropShadow" result="shape"/></filter><filter id="filter11_d" x="187.1" y="180" width="177" height="177" filterUnits="userSpaceOnUse" color-interpolation-filters="sRGB"><feFlood flood-opacity="0" result="BackgroundImageFix"/><feColorMatrix in="SourceAlpha" values="0 0 0 0 0 0 0 0 0 0 0 0 0 0 0 0 0 0 127 0"/><feOffset dy="4"/><feGaussianBlur stdDeviation="2"/><feColorMatrix values="0 0 0 0 0 0 0 0 0 0 0 0 0 0 0 0 0 0 0.59 0"/><feBlend in2="BackgroundImageFix" result="effect1_dropShadow"/><feBlend in="SourceGraphic" in2="effect1_dropShadow" result="shape"/></filter></defs></svg>