<svg width="30" height="30" fill="none" xmlns="http://www.w3.org/2000/svg"><path d="M30 16.6c0-2.7-1.7-5-4-5.2-.2-1-.9-1.7-1.8-2C23.7 4.2 19.7 0 15 0c-4.7 0-8.7 4-9.2 9.5-1 .2-1.6 1-1.9 2h-.2V5c0-.5-.4-1-.9-1s-.9.5-.9 1v7.1C.8 13.2 0 14.8 0 16.6c0 2.7 1.7 4.9 4 5 .2 1 .9 1.8 1.8 2C6 26.2 8 28 10.3 28h.2C11 29.1 12 30 13.1 30H17c1.5 0 2.7-1.4 2.7-3 0-1.7-1.2-3.1-2.7-3.1H13c-1.2 0-2.2.9-2.6 2h-.2C9 26 8 25 7.5 23.7a3 3 0 001.8-2.8v-8.5a3 3 0 00-1.8-2.8C8.1 5.2 11.2 2 15 2s7 3.3 7.5 7.6a3 3 0 00-1.8 2.8v8.5c0 1.7 1.2 3 2.6 3h.3c1.1 0 2.2-1 2.5-2.1 2.2-.2 3.9-2.4 3.9-5.1zm-16.9 9.2H17c.5 0 1 .5 1 1.1 0 .7-.5 1.2-1 1.2H13c-.5 0-1-.5-1-1.2 0-.6.5-1 1-1zM1.8 16.6c0-1.6.9-3 2-3.2v6.3c-1.1-.3-2-1.6-2-3.1zm5.8 4.2c0 .6-.4 1-1 1h-.2c-.4 0-.8-.4-.8-1v-8.5c0-.6.4-1 .8-1h.3c.5 0 .9.4.9 1v8.5zm16.8 0c0 .6-.4 1-.8 1h-.3c-.5 0-.9-.4-.9-1v-8.5c0-.6.4-1 1-1h.2c.4 0 .8.4.8 1v8.5zm1.8-1.1v-6.3c1.1.3 2 1.6 2 3.2 0 1.5-.9 2.8-2 3z" fill="#006572"/></svg>