<svg width="768" height="480" viewBox="0 0 768 480" fill="none" xmlns="http://www.w3.org/2000/svg">
<g id="tablet-bg">
<path id="semiCircle" d="M-75.3521 377.333C-74.3572 397.046 -65.6315 415.572 -51.0673 428.894C-36.5031 442.216 -17.2746 449.259 2.44861 448.497C22.1718 447.735 40.7995 439.228 54.2922 424.823C67.7849 410.417 75.0549 391.272 74.5256 371.542C73.9963 351.811 65.7104 333.084 51.4647 319.422C37.219 305.76 18.1621 298.265 -1.57362 298.561C-21.3093 298.858 -40.1326 306.922 -53.9616 321.005C-67.7906 335.089 -75.5105 354.056 -75.4471 373.794L-53.687 373.724C-53.732 359.713 -48.2519 346.249 -38.4352 336.251C-28.6185 326.254 -15.2565 320.53 -1.24688 320.319C12.7628 320.109 26.2906 325.429 36.4031 335.128C46.5156 344.826 52.3974 358.119 52.7732 372.125C53.1489 386.131 47.9882 399.721 38.4102 409.947C28.8322 420.174 15.6091 426.212 1.60836 426.753C-12.3924 427.294 -26.0421 422.294 -36.3807 412.837C-46.7193 403.381 -52.9133 390.23 -53.6196 376.237L-75.3521 377.333Z" fill="#006572" fill-opacity="0.05"/>
<path id="wiggle" d="M335.829 78.505C307.498 54.6022 310.06 0 310.06 0H768V168.885C768 168.885 763.398 160.48 738.816 160.089C690.533 159.319 653.077 178.971 609.04 164.926C554.849 147.643 571.049 127.355 521.799 103.794C464.528 76.396 380.265 115.995 335.829 78.505Z" fill="#006572" fill-opacity="0.05"/>
</g>
</svg>
