<?xml version="1.0" encoding="UTF-8" standalone="no"?>
<!-- Created with Keyshape -->
<svg xmlns="http://www.w3.org/2000/svg" xmlns:xlink="http://www.w3.org/1999/xlink" width="552" height="455" viewBox="0 0 552 455">
    <defs>
        <linearGradient id="Gradient-0" x1="-0.987804" y1="5.01837" x2="3.76399" y2="-9.41272">
            <stop offset="0" stop-color="#001b41"/>
            <stop offset="0.002" stop-color="#031d43"/>
            <stop offset="0.043" stop-color="#304665"/>
            <stop offset="0.086" stop-color="#596b83"/>
            <stop offset="0.136" stop-color="#7f8c9f"/>
            <stop offset="0.189" stop-color="#9faab8"/>
            <stop offset="0.248" stop-color="#bbc2cc"/>
            <stop offset="0.315" stop-color="#d1d6dc"/>
            <stop offset="0.393" stop-color="#e2e5e9"/>
            <stop offset="0.489" stop-color="#edeff2"/>
            <stop offset="0.625" stop-color="#f4f5f7"/>
            <stop offset="1" stop-color="#f6f7f8"/>
        </linearGradient>
        <linearGradient id="Gradient-1" x1="-1.13073" y1="5.13645" x2="3.69884" y2="-9.21702">
            <stop offset="0" stop-color="#001b41"/>
            <stop offset="0.002" stop-color="#031d43"/>
            <stop offset="0.043" stop-color="#304665"/>
            <stop offset="0.086" stop-color="#596b83"/>
            <stop offset="0.136" stop-color="#7f8c9f"/>
            <stop offset="0.189" stop-color="#9faab8"/>
            <stop offset="0.248" stop-color="#bbc2cc"/>
            <stop offset="0.315" stop-color="#d1d6dc"/>
            <stop offset="0.393" stop-color="#e2e5e9"/>
            <stop offset="0.489" stop-color="#edeff2"/>
            <stop offset="0.625" stop-color="#f4f5f7"/>
            <stop offset="1" stop-color="#f6f7f8"/>
        </linearGradient>
        <linearGradient id="Gradient-2" x1="0" y1="0.500002" x2="1" y2="0.500002">
            <stop offset="0" stop-color="#009190"/>
            <stop offset="1" stop-color="#00ceb0"/>
        </linearGradient>
        <linearGradient id="Gradient-3" x1="0" y1="0.5" x2="1" y2="0.5">
            <stop offset="0" stop-color="#009190"/>
            <stop offset="1" stop-color="#00ceb0"/>
        </linearGradient>
        <linearGradient id="Gradient-4" x1="-3.22707e-05" y1="0.499994" x2="0.999978" y2="0.499994">
            <stop offset="0" stop-color="#8c2de0"/>
            <stop offset="0" stop-color="#ff9a9e"/>
            <stop offset="1" stop-color="#fad0c4"/>
        </linearGradient>
        <linearGradient id="Gradient-5" x1="0" y1="0.500006" x2="0.99999" y2="0.500006">
            <stop offset="0" stop-color="#8c2de0"/>
            <stop offset="0" stop-color="#ff9a9e"/>
            <stop offset="1" stop-color="#fad0c4"/>
        </linearGradient>
        <linearGradient id="Gradient-6" x1="0" y1="0.500002" x2="1.0002" y2="0.500002">
            <stop offset="0" stop-color="#8c2de0"/>
            <stop offset="0" stop-color="#ff9a9e"/>
            <stop offset="1" stop-color="#fad0c4"/>
        </linearGradient>
        <mask id="Mask-4">
            <path id="_a0" fill="#ffffff" stroke="none" d="M34.5325,-75.013C34.5325,-75.013,36.7825,116.487,36.7825,116.487C36.7825,116.487,-33.6175,75.387,-33.6175,75.387C-33.6175,75.387,-35.7175,-114.813,-35.7175,-114.813C-35.7175,-114.813,34.5325,-75.013,34.5325,-75.013Z" transform="translate(277.217,279.513) translate(0,0) translate(0,0)"/>
        </mask>
        <mask id="Mask-3">
            <path id="_a1" fill="#ffffff" stroke="none" d="M35.2195,74.717C35.2195,74.717,-33.1805,115.517,-33.1805,115.517C-33.1805,115.517,-35.2805,-74.983,-35.2805,-74.983C-35.2805,-74.983,33.1195,-115.383,33.1195,-115.383C33.1195,-115.383,35.2195,74.717,35.2195,74.717Z" transform="translate(346.08,279.983) translate(0,0) translate(0,0)"/>
        </mask>
        <mask id="Mask-2">
            <path id="_a2" fill="#ffffff" stroke="none" d="M34.9145,-93.2375C34.9145,-93.2375,36.6645,138.013,36.6645,138.013C36.6645,138.013,-33.5355,93.5292,-33.5355,93.5292C-33.5355,93.5292,-39.0855,-134.237,-39.0855,-134.237C-39.0855,-134.237,34.9145,-93.2375,34.9145,-93.2375Z" transform="translate(383.335,205.737) translate(0,0) translate(0,0)"/>
        </mask>
        <mask id="Mask-1">
            <path id="_a3" fill="#ffffff" stroke="none" d="M35.802,92.783C35.802,92.783,-33.198,133.783,-33.198,133.783C-33.198,133.783,-35.198,-93.217,-35.198,-93.217C-35.198,-93.217,33.1887,-133.33,33.1887,-133.33C33.1887,-133.33,35.802,92.783,35.802,92.783Z" transform="translate(452.698,203.717) translate(0,0) translate(0,0)"/>
        </mask>
    </defs>
    <title>performance-level-03</title>
    <desc>Created with Sketch.</desc>
    <g transform="translate(275.487,228.108) scale(1.09,1.09) translate(-248.177,-204.188)">
        <g transform="translate(68.2291,168.279) translate(-46.359,-66.7717)"/>
        <g transform="translate(248.177,204.188) translate(-248.177,-204.188)">
            <g transform="translate(250.126,204.188) translate(-246.228,-204.188)">
                <g transform="translate(246.228,204.188) translate(-246.228,-204.188)">
                    <g transform="translate(246.228,204.188) translate(-246.228,-204.188)">
                        <g transform="translate(246.228,204.188) translate(-246.228,-204.188)">
                            <path id="Path" d="M250.674,241.8L185.507,203.814C181.408,201.425,176.332,201.458,172.265,203.902L79.511,259.661C77.9684,260.588,76.0468,260.614,74.4794,259.73C72.912,258.846,71.9407,257.188,71.936,255.388C71.913,243.38,71.874,176.011,71.874,182.637" stroke="#95A0B0" stroke-width="2" opacity="0.3" stroke-linecap="round" stroke-linejoin="round" fill="none" fill-rule="evenodd" transform="translate(-0.72633,-0.838645) scale(0.93,0.93)"/>
                            <g id="Group" opacity="0.05" stroke="none" stroke-width="1" fill="none" fill-rule="evenodd" transform="translate(97.8539,267.002) scale(0.93,0.93)">
                                <path id="Path-6" d="M128.586,89.56C130.003,89.5987,131.406,89.27,132.658,88.606L152.907,76.916C153.896,76.5571,154.554,75.6178,154.554,74.566C154.554,73.5142,153.896,72.5749,152.907,72.216C150.341,70.9454,147.33,70.9454,144.764,72.216L124.459,83.938C123.523,84.3582,122.878,85.2393,122.759,86.258C122.861,87.2829,123.512,88.1712,124.459,88.577C125.729,89.2501,127.149,89.5884,128.586,89.56Z"/>
                                <path id="Path-7" d="M201.825,128.54L222.074,116.849C224.274,115.578,224.274,113.418,222.074,112.149C219.516,110.847,216.489,110.847,213.931,112.149L193.626,123.87C191.37,125.17,191.315,127.238,193.626,128.57C196.212,129.848,199.248,129.837,201.825,128.54Z"/>
                                <path id="Path-8" d="M243.424,132.416C243.593,131.284,244.378,130.341,245.46,129.97C246.854,129.331,248.388,129.058,249.917,129.176C251.383,129.225,252.793,129.749,253.934,130.669C254.808,131.251,255.133,132.379,254.704,133.337C254.264,134.163,254.704,135.18,255.804,135.815C256.389,136.128,257.021,136.343,257.675,136.451C258.817,136.624,259.983,136.537,261.086,136.196C261.956,135.992,262.696,135.425,263.122,134.64C264.222,132.352,263.507,129.906,261.196,127.873C258.892,126.041,256.135,124.866,253.218,124.473L252.337,124.409C250.39,124.096,248.411,124.043,246.45,124.25L245.239,124.441C243.291,124.722,241.398,125.3,239.626,126.156C237.542,126.981,235.863,128.589,234.949,130.636L234.729,131.336C234.674,131.622,234.344,143.503,234.344,143.503C234.178,144.714,233.35,145.732,232.198,146.14C230.665,146.839,228.973,147.113,227.298,146.934C225.758,146.867,224.278,146.324,223.061,145.378C222.507,144.946,222.134,144.323,222.015,143.63L222.015,143.122L222.126,142.677C222.126,142.614,222.181,142.577,222.181,142.518C222.621,141.629,222.181,140.676,221.081,140.04C220.467,139.705,219.794,139.49,219.1,139.405C216.789,139.087,214.533,139.818,213.763,141.152L213.763,141.216C212.717,143.599,213.378,146.14,215.799,148.173C216.351,148.676,216.96,149.112,217.614,149.473C220.25,150.889,223.158,151.723,226.143,151.919C230.172,152.284,234.228,151.605,237.919,149.949C241.165,148.329,243.036,145.978,243.091,143.532L243.424,132.416Z" fill="#718095"/>
                                <path id="Shape" d="M207.988,132.1L228.237,120.409C233.905,117.137,233.85,111.832,228.237,108.591C222.57,105.319,213.38,105.351,207.768,108.591L187.468,120.314C181.801,123.586,181.856,128.891,187.468,132.132C193.186,135.37,202.32,135.37,207.988,132.1ZM193.681,123.84L213.931,112.149C216.489,110.847,219.516,110.847,222.074,112.149C224.274,113.42,224.274,115.58,222.074,116.849L201.774,128.572C199.215,129.874,196.189,129.874,193.63,128.572C191.425,127.238,191.37,125.173,193.681,123.838L193.681,123.84Z" fill="#718095" fill-rule="nonzero"/>
                                <path id="Path-9" d="M186.473,86.383C186.973,85.461,186.528,84.445,185.373,83.783C185.166,83.6518,184.945,83.5451,184.713,83.465C182.929,82.8099,180.952,82.9366,179.266,83.814L178.55,84.227L160.281,114.4C159.781,115.321,160.226,116.338,161.326,116.973C161.589,117.116,161.866,117.233,162.152,117.323C163.936,117.978,165.914,117.851,167.599,116.973L168.26,116.592C168.26,116.592,186.033,87.206,186.528,86.412L186.473,86.383Z" fill="#718095"/>
                                <path id="Path-10" d="M202.045,97.025C203.806,96.009,203.751,94.452,202.045,93.467C200.113,92.4661,197.814,92.4661,195.882,93.467L179.1,103.157L172.442,114.117L202.045,97.025Z" fill="#718095"/>
                                <path id="Path-11" d="M144.6,103.76C142.839,104.777,142.894,106.334,144.6,107.318C146.532,108.319,148.831,108.319,150.763,107.318L167.545,97.629L174.203,86.669L144.6,103.76Z" fill="#718095"/>
                                <path id="Shape-2" d="M128.531,94.611C132.113,94.6866,135.656,93.8446,138.821,92.165L159.07,80.474C161.821,78.885,163.307,76.82,163.307,74.533C163.307,72.309,161.821,70.181,159.07,68.592C155.91,66.8997,152.364,66.0569,148.78,66.146C145.198,66.0706,141.656,66.9126,138.491,68.592L118.186,80.315C115.435,81.903,113.95,83.968,113.95,86.256C113.95,88.479,115.435,90.608,118.187,92.196C121.39,93.8235,124.939,94.652,128.531,94.611ZM124.514,83.905L144.764,72.214C147.33,70.9434,150.341,70.9434,152.907,72.214C153.896,72.5729,154.554,73.5122,154.554,74.564C154.554,75.6158,153.896,76.5551,152.907,76.914L132.607,88.636C130.041,89.9067,127.029,89.9067,124.463,88.636C123.527,88.2165,122.882,87.3355,122.763,86.317C122.866,85.255,123.536,84.3321,124.514,83.905Z" fill="#718095" fill-rule="nonzero"/>
                                <path id="Path-12" d="M133.1,56.774C133.21,56.711,133.21,56.647,133.265,56.615C134.365,55.535,134.036,54.201,132.495,53.315C130.408,52.2408,127.934,52.2293,125.837,53.284L125.782,53.315L91.831,72.915C89.905,74.027,89.905,75.742,91.776,76.822C93.9144,77.9341,96.4606,77.9341,98.599,76.822L132.55,57.222C132.731,57.1276,132.899,57.0099,133.05,56.872L133.1,56.774Z" fill="#718095"/>
                                <path id="Shape-3" d="M62.611,0.575L0.211,36.601L62.611,72.627L125.011,36.601L62.611,0.575ZM62.611,71.483L2.248,36.632L62.611,1.782L122.973,36.633L62.611,71.483Z" fill="#FFFFFF" fill-rule="nonzero"/>
                                <path id="Shape-4" d="M2.248,36.632L62.611,71.483L122.973,36.633L62.611,1.782L2.248,36.632ZM88.858,35.232L99.092,41.141L70.7,57.536L65.032,54.264L88.858,40.508L84.291,37.872L88.858,35.232ZM59.858,32.595C60.574,29.195,61.179,28.274,63.27,27.067C66.792,25.034,72.294,25.288,76.531,27.734C80.438,29.99,80.603,33.134,77.026,35.2C74.385,36.725,71.359,37.2,65.306,36.884L63.545,43.555C65.3792,43.1332,67.1285,42.4028,68.718,41.395C68.938,41.268,69.543,40.855,70.148,40.442L74.715,43.079C74.11,43.428,73.285,43.968,73.065,44.095C69.9524,46.0547,66.3924,47.1903,62.72,47.395L61.564,52.256L56.007,49.047L56.447,47.332C53.246,47.2375,50.1216,46.33,47.368,44.695C41.7,41.359,40.655,37.388,45.442,34.179C48.3,32.28,53.642,31.613,59.859,32.6L59.858,32.595ZM52.54,14.264L62.775,20.173L34.382,36.566L28.714,33.294L52.54,19.538L47.973,16.901L52.54,14.264Z" fill="#718095" fill-rule="nonzero"/>
                                <path id="Path-13" d="M51.826,42.129C53.5004,43.0362,55.3689,43.5264,57.273,43.558L59.034,36.315C54.852,35.807,52.211,36.188,50.725,37.109C48.469,38.475,48.964,40.477,51.826,42.129Z" fill="#718095"/>
                                <path id="Path-14" d="M72.68,32.63C73.946,31.899,73.891,30.914,72.46,30.088C71.0736,29.2876,69.3772,29.2398,67.948,29.961C66.793,30.628,66.462,31.2,66.022,33.361C69.434,33.678,71.415,33.36,72.68,32.63Z" fill="#718095"/>
                                <path id="Path-15" fill="#FFFFFF" d="M65.032,54.264L70.7,57.536L99.092,41.144L88.858,35.235L84.291,37.872L88.858,40.508Z"/>
                                <path id="Shape-5" d="M47.369,44.7C50.1226,46.335,53.247,47.2425,56.448,47.337L56.008,49.052L61.62,52.293L62.776,47.432C66.4441,47.204,69.9985,46.0702,73.121,44.132C73.341,44.005,74.166,43.465,74.771,43.115L70.204,40.479C69.544,40.923,68.994,41.305,68.774,41.432C67.013,42.512,64.427,43.624,63.601,43.592L65.362,36.92C71.415,37.238,74.496,36.73,77.082,35.237C80.659,33.172,80.494,30.027,76.582,27.771C72.345,25.325,66.788,25.102,63.321,27.104C61.285,28.279,60.68,29.264,59.909,32.632C53.637,31.679,48.354,32.314,45.493,34.22C40.656,37.4,41.7,41.366,47.369,44.7ZM72.46,30.086C73.891,30.912,73.946,31.897,72.68,32.628C71.414,33.359,69.38,33.708,66.08,33.39C66.52,31.23,66.851,30.658,68.006,29.99C69.4063,29.2443,71.0939,29.2814,72.46,30.088L72.46,30.086ZM59.034,36.313L57.273,43.556C55.3701,43.5158,53.5036,43.0261,51.826,42.127C48.964,40.475,48.469,38.473,50.78,37.075C52.211,36.188,54.907,35.838,59.034,36.315L59.034,36.313Z" fill="#FFFFFF" fill-rule="nonzero"/>
                                <path id="Path-16" fill="#FFFFFF" d="M28.66,33.265L34.383,36.569L62.776,20.176L52.541,14.267L47.974,16.904L52.486,19.509Z"/>
                            </g>
                            <path id="Path-17" d="M113.953,149.013L3.353,212.868C1.939,213.684,0.781,212.809,0.781,210.923L1.156,69.977C1.18936,68.0245,2.14284,66.2024,3.728,65.062L114.328,1.208C115.743,0.391,116.9,1.266,116.9,3.152L116.525,144.1C116.492,146.052,115.538,147.874,113.953,149.013Z" fill="#718095" opacity="0.3" stroke="none" stroke-width="1" fill-rule="evenodd" transform="translate(-0.72633,-0.838645) scale(0.93,0.93)"/>
                            <path id="Path-18" d="M124.32,154.2L13.72,218.054C12.306,218.871,11.148,217.996,11.148,216.11L11.523,75.163C11.5563,73.2105,12.5102,71.3886,14.096,70.249L124.7,6.391C126.115,5.575,127.272,6.45,127.272,8.336L126.897,149.283C126.864,151.237,125.908,153.061,124.32,154.2Z" fill="#003D8F" stroke="none" stroke-width="1" fill-rule="evenodd" transform="translate(-0.72633,-0.838645) scale(0.93,0.93)"/>
                            <path id="Path-19" fill="#001B41" opacity="0.6" d="M120.129,100.008L20.152,157.73L20.152,78.785L120.129,21.063Z" stroke="none" stroke-width="1" fill-rule="evenodd" transform="translate(-0.72633,-0.838645) scale(0.93,0.93)"/>
                            <path id="Path-20" fill="#001B41" opacity="0.6" d="M68.997,174.145L20.198,202.319L20.198,160.207L68.997,132.033Z" stroke="none" stroke-width="1" fill-rule="evenodd" transform="translate(-0.72633,-0.838645) scale(0.93,0.93)"/>
                            <path id="Path-21" fill="#001B41" opacity="0.62" d="M120.139,144.618L71.34,172.792L71.34,130.68L120.139,102.506Z" stroke="none" stroke-width="1" fill-rule="evenodd" transform="translate(-0.72633,-0.838645) scale(0.93,0.93)"/>
                            <ellipse id="Oval" fill="#28CCE8" opacity="0.1" rx="18.272" ry="10.549" stroke="none" stroke-width="1" fill-rule="evenodd" fill-opacity="1" transform="translate(87.9401,127.478) rotate(-60) scale(0.93,0.93)"/>
                            <path id="Path-22" fill="#28CCE8" d="M40.321,171.539L40.321,169.885L53.241,162.426L53.241,164.079Z" stroke="none" stroke-width="1" fill-rule="evenodd" transform="translate(-0.72633,-0.838645) scale(0.93,0.93)"/>
                            <ellipse id="Oval-2" fill="#28CCE8" opacity="0.1" rx="18.272" ry="10.549" stroke="none" stroke-width="1" fill-rule="evenodd" transform="translate(42.0746,153.814) rotate(-60) scale(0.93,0.93)"/>
                            <path id="Path-23" fill="#28CCE8" d="M102.552,134.07L96.808,137.386L96.808,130.754L95.376,131.58L95.376,138.213L89.632,141.529L89.632,143.183L95.376,139.867L95.376,146.499L96.808,145.672L96.808,139.04L102.552,135.724Z" stroke="none" stroke-width="1" fill-rule="evenodd" transform="translate(-0.72633,-0.838645) scale(0.93,0.93)"/>
                            <g id="Group-2" opacity="0.3" stroke="none" stroke-width="1" fill="none" fill-rule="evenodd" transform="translate(171.324,177.722) scale(0.93,0.93)">
                                <path id="Path-24" d="M132.62,0.836C131.23,0.124065,129.585,0.117008,128.189,0.817L1.889,73.217C1.34155,73.4015,0.972902,73.9148,0.972902,74.4925C0.972902,75.0702,1.34155,75.5835,1.889,75.768L215.642,198.768C217.037,199.471,218.684,199.471,220.079,198.768L344.194,127.111C344.741,126.921,345.109,126.406,345.11,125.827C345.112,125.248,344.747,124.731,344.201,124.538L132.62,0.836Z" fill="#718095"/>
                                <path id="Path-25" d="M132.62,0.836C131.23,0.124065,129.585,0.117008,128.189,0.817L1.889,73.217C1.34155,73.4015,0.972902,73.9148,0.972902,74.4925C0.972902,75.0702,1.34155,75.5835,1.889,75.768L215.642,198.768C217.037,199.471,218.684,199.471,220.079,198.768L344.194,127.111C344.741,126.921,345.109,126.406,345.11,125.827C345.112,125.248,344.747,124.731,344.201,124.538L132.62,0.836Z" stroke="#FFFFFF" stroke-width="0.5"/>
                            </g>
                            <path id="Path-26" d="M317.814,181.692C316.424,180.98,314.779,180.973,313.383,181.673L187.083,254.073C186.535,254.257,186.166,254.77,186.166,255.348C186.166,255.926,186.535,256.439,187.083,256.623L400.836,379.623C402.231,380.326,403.878,380.326,405.273,379.623L529.388,307.965C529.935,307.775,530.303,307.26,530.304,306.681C530.306,306.102,529.941,305.585,529.395,305.392L317.814,181.692Z" fill="#F6F7F8" stroke="none" stroke-width="1" fill-rule="evenodd" transform="translate(-0.72633,-0.838645) scale(0.93,0.93)"/>
                            <path id="Path-27" d="M317.814,181.692C316.424,180.98,314.779,180.973,313.383,181.673L187.083,254.073C186.535,254.257,186.166,254.77,186.166,255.348C186.166,255.926,186.535,256.439,187.083,256.623L400.836,379.623C402.231,380.326,403.878,380.326,405.273,379.623L529.388,307.965C529.935,307.775,530.303,307.26,530.304,306.681C530.306,306.102,529.941,305.585,529.395,305.392L317.814,181.692Z" stroke="#FFFFFF" stroke-width="0.5" fill="none" fill-rule="evenodd" transform="translate(-0.72633,-0.838645) scale(0.93,0.93)"/>
                            <g id="Group-3" opacity="0.7" fill="#001B41" stroke="none" stroke-width="1" fill-rule="evenodd" transform="translate(223.404,189.812) scale(0.93,0.93)">
                                <path id="Path-28" d="M72.414,1.012C71.0133,0.320778,69.3674,0.336368,67.98,1.054L1.422,40.314C0.876624,40.5065,0.513871,41.0243,0.519292,41.6026C0.524714,42.1809,0.897112,42.6918,1.446,42.874L68.726,80.884C70.1267,81.5751,71.7723,81.5598,73.16,80.843L139.718,41.582C140.263,41.3895,140.626,40.8717,140.621,40.2934C140.615,39.7151,140.243,39.2042,139.694,39.022L72.414,1.012Z"/>
                            </g>
                            <path id="Path-29" fill="url(#Gradient-0)" d="M312.142,200.652L381.395,239.765L312.882,280.171L243.665,241.045Z" stroke="none" stroke-width="1" fill-rule="evenodd" transform="translate(-0.72633,-0.838645) scale(0.93,0.93)"/>
                            <path id="Path-30" fill="#CEF6FD" opacity="0.9" d="M310.056,16.4696L373.946,52.5534L310.74,89.831L246.882,53.7342Z" stroke="none" stroke-width="1" fill-rule="evenodd" transform="translate(286.954,108.482) translate(0,0) translate(-308.333,-9.33334)"/>
                            <path id="Path-31" fill="#28CCE8" opacity="0.8" d="M241.553,50.855L243.665,241.045L312.882,280.171L310.771,89.981Z" stroke="none" stroke-width="1" fill-rule="evenodd" mask="url(#Mask-4)" transform="translate(-0.72633,-0.838645) scale(0.93,0.93)"/>
                            <path id="Path-32" fill="#0B9DCC" opacity="0.85" d="M379.278,49.5L381.395,239.765L312.882,280.171L310.766,89.9Z" stroke="none" stroke-width="1" fill-rule="evenodd" mask="url(#Mask-3)" transform="translate(-0.72633,-0.838645) scale(0.93,0.93)"/>
                            <path id="Path-33" d="M288.411,295.267C288.141,295.112,288.176,295.021,288.238,294.857C288.318,294.65,288.427,294.366,287.801,294.005C287.175,293.697,286.496,293.51,285.801,293.453C285.462,293.437,285.131,293.351,284.827,293.201C284.558,293.046,284.594,292.957,284.657,292.793C284.737,292.586,284.849,292.303,284.221,291.941C283.595,291.632,282.917,291.445,282.221,291.388C281.88,291.371,281.546,291.284,281.239,291.134C280.971,290.979,281.006,290.888,281.069,290.725C281.151,290.518,281.261,290.234,280.635,289.872C280.009,289.565,279.33,289.377,278.635,289.319C278.294,289.302,277.961,289.215,277.655,289.065C277.386,288.909,277.421,288.819,277.484,288.654C277.564,288.447,277.673,288.163,277.045,287.801C276.419,287.493,275.74,287.306,275.045,287.249C274.704,287.232,274.371,287.146,274.065,286.995C273.795,286.838,273.83,286.747,273.892,286.583C273.972,286.375,274.08,286.091,273.452,285.729C272.826,285.422,272.147,285.234,271.452,285.175C271.109,285.158,270.774,285.07,270.466,284.918C270.196,284.761,270.229,284.67,270.292,284.506C270.37,284.298,270.478,284.014,269.849,283.652L269.832,283.645C269.819,283.638,269.815,283.631,269.802,283.623C269.176,283.316,268.497,283.128,267.802,283.071C267.463,283.055,267.132,282.969,266.828,282.819C266.56,282.664,266.595,282.575,266.659,282.411C266.739,282.204,266.85,281.92,266.222,281.559C265.598,281.251,264.922,281.063,264.228,281.006C263.922,280.983,263.621,280.912,263.337,280.795C263.137,280.662,263.159,280.572,263.215,280.422C263.295,280.215,263.405,279.931,262.779,279.57C262.754,279.556,262.726,279.548,262.701,279.535C262.682,279.519,262.662,279.504,262.641,279.49C262.015,279.182,261.336,278.995,260.641,278.937C260.334,278.915,260.032,278.843,259.748,278.724C259.557,278.595,259.579,278.506,259.637,278.358C259.717,278.151,259.828,277.867,259.2,277.506C259.174,277.491,259.144,277.482,259.117,277.467C259.09,277.452,259.081,277.436,259.051,277.418C258.424,277.111,257.746,276.924,257.051,276.866C256.743,276.844,256.442,276.773,256.157,276.654C255.972,276.526,255.994,276.436,256.051,276.29C256.132,276.082,256.242,275.799,255.616,275.437C255.585,275.419,255.549,275.408,255.516,275.391C255.483,275.374,255.484,275.363,255.457,275.347C254.831,275.039,254.152,274.851,253.457,274.792C253.149,274.77,252.847,274.698,252.563,274.579C252.386,274.454,252.407,274.364,252.463,274.219C252.543,274.012,252.652,273.728,252.025,273.365C251.991,273.346,251.954,273.335,251.919,273.317C251.884,273.299,251.885,273.286,251.856,273.27C251.782,273.231,251.703,273.201,251.622,273.181C251.107,272.997,250.573,272.873,250.029,272.813C249.688,272.797,249.354,272.71,249.048,272.559C248.778,272.402,248.813,272.312,248.876,272.148C248.956,271.94,249.063,271.656,248.435,271.294C247.809,270.986,247.13,270.798,246.435,270.739C246.092,270.722,245.757,270.635,245.449,270.483C245.18,270.326,245.213,270.235,245.275,270.071C245.354,269.863,245.461,269.579,244.833,269.217L244.815,269.21C244.802,269.202,244.799,269.196,244.785,269.188C244.159,268.881,243.48,268.693,242.785,268.636C242.446,268.62,242.115,268.534,241.811,268.384C241.542,268.229,241.578,268.139,241.641,267.976C241.721,267.768,241.832,267.485,241.205,267.124C240.579,266.815,239.901,266.628,239.205,266.571C238.864,266.553,238.53,266.467,238.223,266.316C237.955,266.161,237.989,266.071,238.053,265.907C238.135,265.7,238.244,265.417,237.619,265.054C236.992,264.747,236.314,264.56,235.619,264.502C235.279,264.484,234.945,264.398,234.639,264.248C234.37,264.092,234.405,264.001,234.467,263.837C234.547,263.629,234.657,263.346,234.029,262.983C233.402,262.676,232.724,262.489,232.029,262.431C231.688,262.414,231.354,262.328,231.048,262.177C230.779,262.02,230.813,261.93,230.876,261.765C230.956,261.558,231.064,261.274,230.435,260.912C229.809,260.604,229.13,260.416,228.435,260.357C228.092,260.34,227.757,260.253,227.449,260.101C227.179,259.944,227.212,259.853,227.275,259.689C227.353,259.481,227.461,259.197,226.832,258.835C226.374,258.649,225.872,258.603,225.388,258.705C224.88,258.805,224.707,259.018,225,259.187C225.272,259.344,225.239,259.435,225.175,259.6C225.097,259.807,224.988,260.091,225.616,260.453C226.242,260.762,226.92,260.95,227.616,261.008C227.958,261.027,228.292,261.114,228.6,261.264C228.87,261.421,228.835,261.511,228.772,261.676C228.692,261.883,228.585,262.167,229.212,262.53C229.839,262.836,230.517,263.023,231.212,263.082C231.553,263.1,231.886,263.186,232.193,263.336C232.462,263.492,232.427,263.583,232.364,263.747C232.284,263.954,232.175,264.238,232.803,264.601C233.43,264.907,234.108,265.095,234.803,265.153C235.143,265.171,235.477,265.257,235.783,265.407C236.052,265.562,236.017,265.653,235.953,265.816C235.871,266.023,235.762,266.307,236.389,266.67C237.016,266.976,237.694,267.163,238.389,267.222C238.729,267.238,239.062,267.325,239.367,267.477C239.637,267.631,239.6,267.721,239.538,267.884C239.457,268.092,239.347,268.375,239.971,268.736C240.597,269.044,241.276,269.231,241.971,269.287C242.31,269.304,242.641,269.39,242.945,269.54C243.215,269.696,243.18,269.786,243.119,269.95C243.039,270.158,242.929,270.441,243.556,270.803C243.564,270.803,243.577,270.811,243.586,270.816C243.595,270.821,243.6,270.828,243.612,270.835C244.238,271.144,244.916,271.332,245.612,271.39C245.954,271.409,246.288,271.496,246.596,271.646C246.866,271.803,246.831,271.894,246.768,272.058C246.688,272.266,246.58,272.55,247.208,272.912C247.835,273.218,248.513,273.406,249.208,273.464C249.511,273.487,249.808,273.557,250.089,273.671C250.156,273.7,250.207,273.758,250.228,273.828C250.248,273.898,250.236,273.974,250.195,274.035C250.118,274.243,250.009,274.526,250.637,274.888C250.665,274.905,250.697,274.914,250.726,274.929C250.755,274.944,250.765,274.964,250.798,274.983C251.425,275.289,252.103,275.477,252.798,275.536C253.103,275.558,253.402,275.629,253.685,275.745C253.871,275.874,253.85,275.964,253.794,276.111C253.714,276.319,253.606,276.603,254.233,276.965C254.262,276.982,254.295,276.991,254.325,277.007C254.355,277.023,254.358,277.036,254.385,277.052C255.012,277.359,255.69,277.546,256.385,277.604C256.695,277.625,256.999,277.698,257.285,277.82C257.465,277.947,257.444,278.037,257.385,278.182C257.305,278.39,257.196,278.673,257.823,279.036C257.85,279.052,257.881,279.061,257.909,279.075C257.937,279.089,257.941,279.103,257.967,279.119C258.593,279.426,259.272,279.613,259.967,279.669C260.277,279.69,260.582,279.765,260.867,279.889C261.051,280.016,261.029,280.106,260.973,280.251C260.891,280.458,260.781,280.742,261.409,281.105C261.436,281.12,261.466,281.129,261.494,281.144C261.522,281.159,261.524,281.171,261.55,281.185C261.621,281.223,261.697,281.252,261.775,281.273C262.301,281.466,262.848,281.595,263.405,281.657C263.745,281.673,264.079,281.76,264.384,281.912C264.653,282.067,264.617,282.157,264.554,282.32C264.474,282.527,264.364,282.81,264.988,283.172C265.614,283.479,266.293,283.666,266.988,283.722C267.327,283.739,267.659,283.825,267.963,283.976C268.233,284.131,268.198,284.222,268.136,284.385C268.056,284.593,267.947,284.877,268.573,285.238C268.582,285.238,268.595,285.247,268.604,285.251C268.612,285.258,268.621,285.264,268.63,285.27C269.256,285.579,269.934,285.768,270.63,285.825C270.972,285.844,271.306,285.931,271.614,286.082C271.884,286.239,271.849,286.329,271.786,286.493C271.706,286.701,271.599,286.985,272.226,287.347C272.853,287.653,273.531,287.841,274.226,287.9C274.567,287.917,274.9,288.003,275.206,288.154C275.475,288.31,275.441,288.4,275.378,288.565C275.298,288.772,275.188,289.056,275.816,289.418C276.443,289.725,277.121,289.912,277.816,289.971C278.157,289.988,278.49,290.074,278.796,290.225C279.065,290.38,279.03,290.47,278.966,290.634C278.884,290.841,278.775,291.124,279.403,291.487C280.03,291.794,280.708,291.981,281.403,292.039C281.743,292.056,282.076,292.143,282.381,292.294C282.651,292.449,282.614,292.539,282.552,292.702C282.472,292.909,282.361,293.192,282.985,293.554C283.611,293.861,284.29,294.048,284.985,294.104C285.324,294.121,285.655,294.207,285.959,294.358C286.229,294.513,286.194,294.604,286.133,294.768C286.053,294.975,285.943,295.259,286.57,295.62C286.692,295.683,286.823,295.727,286.958,295.749C287.308,295.813,287.667,295.813,288.017,295.749C288.53,295.652,288.7,295.436,288.411,295.267Z" fill="#718095" opacity="0.4" stroke="none" stroke-width="1" fill-rule="evenodd" transform="translate(-0.72633,-0.838645) scale(0.93,0.93)"/>
                            <path id="Path-34" d="M262.1,273.964C261.792,273.943,261.49,273.871,261.206,273.752C261.02,273.624,261.042,273.534,261.099,273.388C261.18,273.181,261.29,272.897,260.664,272.535C260.633,272.517,260.597,272.506,260.564,272.489C260.531,272.472,260.532,272.461,260.505,272.445C259.879,272.138,259.2,271.95,258.505,271.891C258.198,271.868,257.896,271.796,257.611,271.678C257.434,271.552,257.455,271.462,257.511,271.317C257.591,271.11,257.701,270.826,257.073,270.464C257.039,270.444,257.002,270.433,256.967,270.415C256.932,270.397,256.933,270.385,256.904,270.368C256.83,270.329,256.751,270.299,256.67,270.279C256.155,270.094,255.621,269.971,255.077,269.912C254.736,269.895,254.402,269.808,254.096,269.658C253.826,269.501,253.861,269.41,253.924,269.246C254.004,269.038,254.112,268.754,253.483,268.392C252.857,268.085,252.178,267.897,251.483,267.838C251.14,267.82,250.805,267.733,250.497,267.581C250.228,267.424,250.261,267.333,250.323,267.169C250.402,266.961,250.509,266.677,249.881,266.315L249.863,266.308C249.85,266.301,249.847,266.294,249.833,266.286C249.207,265.979,248.528,265.791,247.833,265.734C247.494,265.718,247.163,265.632,246.859,265.482C246.59,265.327,246.626,265.238,246.689,265.074C246.769,264.867,246.88,264.583,246.253,264.222C245.627,263.913,244.949,263.726,244.253,263.669C243.912,263.652,243.578,263.565,243.271,263.415C243.003,263.259,243.038,263.169,243.101,263.006C243.183,262.798,243.292,262.515,242.667,262.153C242.041,261.846,241.362,261.658,240.667,261.6C240.326,261.583,239.993,261.496,239.687,261.346C239.418,261.19,239.453,261.1,239.515,260.935C239.596,260.728,239.705,260.444,239.077,260.081C238.45,259.774,237.772,259.587,237.077,259.529C236.736,259.513,236.402,259.426,236.096,259.275C235.827,259.118,235.861,259.028,235.924,258.863C236.004,258.656,236.112,258.372,235.484,258.01C234.858,257.702,234.179,257.514,233.484,257.455C233.141,257.438,232.806,257.351,232.498,257.199C232.228,257.042,232.261,256.951,232.324,256.787C232.402,256.579,232.51,256.295,231.881,255.933C231.423,255.747,230.92,255.702,230.437,255.804C229.929,255.904,229.756,256.117,230.049,256.285C230.321,256.443,230.288,256.533,230.224,256.698C230.146,256.906,230.037,257.189,230.666,257.551C231.292,257.86,231.97,258.048,232.666,258.106C233.008,258.125,233.342,258.212,233.65,258.362C233.92,258.519,233.885,258.61,233.822,258.774C233.742,258.982,233.635,259.266,234.262,259.628C234.889,259.934,235.567,260.121,236.262,260.18C236.602,260.198,236.936,260.284,237.242,260.434C237.511,260.59,237.476,260.681,237.413,260.845C237.333,261.053,237.224,261.336,237.852,261.699C238.479,262.006,239.157,262.193,239.852,262.251C240.192,262.269,240.526,262.355,240.832,262.505C241.101,262.661,241.066,262.751,241.002,262.914C240.92,263.121,240.811,263.405,241.438,263.768C242.065,264.075,242.743,264.262,243.438,264.32C243.778,264.336,244.111,264.423,244.416,264.575C244.686,264.73,244.649,264.82,244.587,264.983C244.507,265.19,244.396,265.473,245.02,265.835C245.646,266.142,246.325,266.329,247.02,266.385C247.359,266.402,247.69,266.488,247.994,266.639C248.264,266.794,248.23,266.885,248.168,267.048C248.088,267.256,247.978,267.54,248.605,267.901C248.614,267.901,248.626,267.91,248.635,267.914C248.644,267.918,248.649,267.927,248.661,267.933C249.287,268.242,249.965,268.43,250.661,268.488C251.003,268.507,251.337,268.595,251.645,268.745C251.915,268.902,251.88,268.992,251.817,269.156C251.737,269.364,251.629,269.648,252.257,270.011C252.884,270.316,253.562,270.503,254.257,270.563C254.56,270.585,254.857,270.655,255.138,270.769C255.205,270.798,255.256,270.856,255.277,270.927C255.297,270.997,255.285,271.073,255.244,271.134C255.167,271.341,255.058,271.624,255.686,271.986C255.714,272.003,255.746,272.012,255.775,272.028C255.804,272.044,255.814,272.062,255.847,272.081C256.474,272.387,257.152,272.575,257.847,272.634C258.152,272.657,258.452,272.727,258.735,272.843C258.803,272.872,258.854,272.93,258.875,273.001C258.896,273.071,258.884,273.148,258.843,273.209C258.763,273.417,258.655,273.701,259.283,274.063C259.312,274.08,259.344,274.09,259.374,274.105C259.404,274.12,259.407,274.134,259.434,274.15C260.061,274.457,260.739,274.644,261.434,274.702" fill="#718095" opacity="0.8" stroke="none" stroke-width="1" fill-rule="evenodd" transform="translate(-0.72633,-0.838645) scale(0.93,0.93)"/>
                            <g id="Group-4" opacity="0.7" fill="#001B41" stroke="none" stroke-width="1" fill-rule="evenodd" transform="translate(322.914,243.752) scale(0.93,0.93)">
                                <path id="Path-35" d="M72.609,1.3C71.208,0.608932,69.562,0.624148,68.174,1.341L1.617,40.6C1.07162,40.7925,0.708871,41.3103,0.714292,41.8886C0.719714,42.4669,1.09211,42.9778,1.641,43.16L68.921,81.17C70.3218,81.8607,71.9675,81.8452,73.355,81.128L139.912,41.868C140.457,41.675,140.82,41.1572,140.814,40.5789C140.809,40.0007,140.437,39.4897,139.888,39.307L72.609,1.3Z"/>
                            </g>
                            <path id="Path-36" fill="url(#Gradient-1)" d="M418.259,258.938L487.512,298.051L419,338.457L349.783,299.331Z" stroke="none" stroke-width="1" fill-rule="evenodd" transform="translate(-0.72633,-0.838645) scale(0.93,0.93)"/>
                            <path id="Bar_2_C" fill="#7DEAE7" opacity="0.9" d="M415.378,39.0226L479.814,75.4143L416.069,113.009L351.667,76.6051Z" stroke="none" stroke-width="1" fill-rule="evenodd" transform="translate(384.913,22.9214) translate(0,0) translate(-414.667,-32.75)"/>
                            <path id="Bar_2_A" fill="url(#Gradient-2)" opacity="0.8" d="M345.569,70.9163L349.783,299.331L419,338.457L416.888,112.144Z" stroke="none" stroke-width="1" fill-rule="evenodd" mask="url(#Mask-2)" transform="translate(-0.72633,-0.838645) scale(0.93,0.93)"/>
                            <path id="Bar_2_B" fill="url(#Gradient-3)" opacity="0.9" d="M485.387,70.75L487.512,298.051L419,338.457L416.884,111.25Z" stroke="none" stroke-width="1" fill-rule="evenodd" mask="url(#Mask-1)" transform="translate(-1.19133,-0.141145) scale(0.93,0.93)"/>
                            <path id="Path-37" d="M393.154,353.388C392.884,353.232,392.919,353.142,392.981,352.978C393.061,352.77,393.17,352.487,392.544,352.126C391.918,351.819,391.239,351.631,390.544,351.574C390.205,351.558,389.873,351.472,389.569,351.322C389.301,351.167,389.337,351.077,389.4,350.914C389.48,350.706,389.591,350.423,388.964,350.062C388.338,349.753,387.66,349.566,386.964,349.509C386.623,349.492,386.289,349.405,385.982,349.254C385.714,349.099,385.748,349.009,385.812,348.845C385.894,348.638,386.003,348.355,385.378,347.992C384.751,347.685,384.073,347.498,383.378,347.44C383.038,347.422,382.704,347.336,382.398,347.186C382.129,347.03,382.164,346.94,382.226,346.775C382.306,346.568,382.416,346.284,381.788,345.921C381.161,345.614,380.483,345.427,379.788,345.369C379.447,345.352,379.113,345.266,378.807,345.115C378.538,344.958,378.572,344.868,378.635,344.703C378.715,344.496,378.823,344.212,378.194,343.85C377.568,343.542,376.889,343.354,376.194,343.295C375.851,343.278,375.516,343.191,375.208,343.039C374.938,342.882,374.971,342.791,375.034,342.627C375.112,342.419,375.22,342.135,374.591,341.773L374.574,341.766C374.561,341.758,374.557,341.752,374.544,341.744C373.918,341.436,373.239,341.248,372.544,341.192C372.206,341.175,371.874,341.089,371.57,340.94C371.301,340.785,371.337,340.695,371.401,340.532C371.481,340.324,371.592,340.041,370.964,339.68C370.34,339.372,369.664,339.184,368.97,339.126C368.663,339.104,368.362,339.032,368.078,338.915C367.878,338.783,367.901,338.692,367.957,338.543C368.037,338.335,368.147,338.052,367.521,337.691C367.496,337.677,367.468,337.669,367.443,337.655C367.418,337.641,367.41,337.626,367.383,337.61C366.757,337.303,366.078,337.116,365.383,337.058C365.075,337.035,364.774,336.964,364.489,336.845C364.299,336.716,364.321,336.626,364.379,336.479C364.459,336.271,364.57,335.988,363.942,335.627C363.916,335.611,363.885,335.603,363.858,335.588C363.831,335.573,363.823,335.556,363.793,335.539C363.166,335.232,362.488,335.045,361.793,334.987C361.485,334.965,361.183,334.893,360.899,334.774C360.714,334.646,360.736,334.556,360.793,334.41C360.874,334.203,360.984,333.919,360.358,333.557C360.327,333.539,360.291,333.529,360.258,333.512C360.225,333.495,360.226,333.483,360.199,333.468C359.573,333.16,358.894,332.972,358.199,332.913C357.891,332.891,357.589,332.819,357.305,332.7C357.127,332.574,357.149,332.485,357.205,332.34C357.285,332.132,357.394,331.849,356.767,331.486C356.733,331.467,356.695,331.455,356.661,331.438C356.627,331.421,356.626,331.407,356.598,331.39C356.523,331.352,356.445,331.322,356.364,331.301C355.849,331.117,355.314,330.994,354.77,330.934C354.429,330.917,354.096,330.831,353.79,330.68C353.52,330.523,353.555,330.433,353.618,330.268C353.698,330.061,353.805,329.777,353.177,329.415C352.551,329.107,351.872,328.919,351.177,328.86C350.834,328.843,350.499,328.756,350.191,328.604C349.921,328.447,349.954,328.356,350.017,328.191C350.096,327.984,350.203,327.7,349.575,327.338L349.557,327.331C349.547,327.323,349.537,327.316,349.527,327.309C348.901,327.001,348.222,326.813,347.527,326.757C347.188,326.74,346.857,326.654,346.552,326.505C346.284,326.349,346.319,326.26,346.383,326.096C346.463,325.889,346.574,325.606,345.947,325.245C345.321,324.936,344.643,324.748,343.947,324.691C343.606,324.674,343.272,324.587,342.965,324.437C342.696,324.282,342.731,324.192,342.795,324.028C342.877,323.821,342.986,323.537,342.361,323.175C341.735,322.868,341.056,322.68,340.361,322.622C340.021,322.605,339.687,322.519,339.381,322.369C339.112,322.212,339.147,322.122,339.209,321.958C339.289,321.75,339.399,321.466,338.771,321.104C338.145,320.796,337.466,320.609,336.771,320.552C336.43,320.535,336.096,320.448,335.79,320.298C335.52,320.141,335.555,320.05,335.618,319.886C335.698,319.679,335.806,319.394,335.177,319.032C334.551,318.725,333.872,318.537,333.177,318.478C332.835,318.46,332.499,318.373,332.192,318.221C331.922,318.064,331.955,317.974,332.018,317.809C332.096,317.601,332.204,317.317,331.575,316.955C331.117,316.769,330.614,316.724,330.13,316.826C329.623,316.926,329.45,317.139,329.743,317.308C330.014,317.465,329.981,317.556,329.917,317.721C329.84,317.928,329.731,318.212,330.359,318.574C330.985,318.882,331.664,319.07,332.359,319.129C332.701,319.148,333.035,319.235,333.343,319.385C333.613,319.542,333.578,319.632,333.515,319.797C333.435,320.004,333.327,320.288,333.955,320.651C334.582,320.957,335.26,321.144,335.955,321.203C336.296,321.22,336.63,321.306,336.936,321.457C337.205,321.613,337.17,321.703,337.107,321.868C337.027,322.075,336.918,322.359,337.545,322.721C338.172,323.028,338.85,323.215,339.545,323.274C339.886,323.291,340.219,323.377,340.525,323.528C340.794,323.683,340.759,323.773,340.695,323.937C340.613,324.144,340.504,324.428,341.131,324.79C341.758,325.097,342.436,325.284,343.131,325.342C343.471,325.359,343.804,325.446,344.109,325.597C344.379,325.752,344.342,325.842,344.279,326.005C344.199,326.212,344.089,326.495,344.713,326.857C345.339,327.165,346.018,327.352,346.713,327.408C347.052,327.424,347.383,327.51,347.687,327.661C347.957,327.817,347.922,327.907,347.86,328.071C347.78,328.278,347.671,328.562,348.298,328.924C348.306,328.924,348.319,328.932,348.328,328.937C348.337,328.942,348.342,328.949,348.354,328.956C348.98,329.265,349.658,329.453,350.354,329.511C350.695,329.53,351.03,329.617,351.337,329.767C351.607,329.924,351.573,330.014,351.51,330.179C351.43,330.386,351.322,330.67,351.949,331.033C352.576,331.339,353.254,331.526,353.949,331.585C354.252,331.608,354.549,331.678,354.83,331.792C354.897,331.821,354.948,331.879,354.968,331.949C354.989,332.019,354.977,332.095,354.936,332.156C354.859,332.363,354.749,332.647,355.378,333.009C355.406,333.025,355.438,333.035,355.467,333.05C355.496,333.065,355.506,333.085,355.539,333.104C356.166,333.41,356.844,333.597,357.539,333.656C357.844,333.679,358.143,333.75,358.426,333.866C358.612,333.995,358.591,334.085,358.535,334.232C358.455,334.439,358.347,334.723,358.974,335.086C359.003,335.103,359.036,335.112,359.066,335.128C359.096,335.144,359.099,335.157,359.126,335.173C359.753,335.479,360.431,335.666,361.126,335.725C361.436,335.746,361.74,335.819,362.026,335.941C362.207,336.067,362.186,336.157,362.126,336.303C362.046,336.51,361.936,336.794,362.564,337.157C362.591,337.172,362.622,337.181,362.65,337.196C362.678,337.211,362.681,337.224,362.708,337.239C363.334,337.547,364.013,337.734,364.708,337.79C365.018,337.812,365.323,337.886,365.608,338.009C365.792,338.136,365.77,338.226,365.714,338.372C365.632,338.579,365.522,338.863,366.15,339.225C366.177,339.241,366.207,339.25,366.235,339.264C366.263,339.278,366.265,339.291,366.29,339.306C366.362,339.344,366.438,339.373,366.516,339.394C367.042,339.587,367.589,339.716,368.146,339.778C368.486,339.794,368.82,339.881,369.125,340.033C369.394,340.187,369.358,340.277,369.295,340.44C369.215,340.648,369.105,340.93,369.729,341.292C370.355,341.6,371.034,341.787,371.729,341.843C372.068,341.86,372.4,341.946,372.704,342.096C372.974,342.252,372.939,342.342,372.877,342.506C372.797,342.713,372.687,342.997,373.314,343.359C373.323,343.359,373.335,343.367,373.345,343.372C373.355,343.377,373.359,343.384,373.37,343.391C373.996,343.7,374.674,343.888,375.37,343.946C375.712,343.965,376.046,344.052,376.354,344.202C376.624,344.359,376.589,344.45,376.526,344.614C376.446,344.822,376.339,345.106,376.966,345.468C377.593,345.774,378.271,345.961,378.966,346.02C379.307,346.038,379.64,346.124,379.947,346.274C380.216,346.43,380.181,346.521,380.118,346.685C380.038,346.893,379.929,347.176,380.557,347.539C381.184,347.846,381.862,348.033,382.557,348.091C382.897,348.109,383.231,348.195,383.537,348.345C383.806,348.5,383.771,348.591,383.707,348.754C383.625,348.961,383.516,349.245,384.143,349.608C384.77,349.914,385.448,350.101,386.143,350.16C386.483,350.176,386.816,350.263,387.121,350.415C387.391,350.569,387.354,350.66,387.291,350.822C387.212,351.03,387.101,351.313,387.725,351.675C388.351,351.982,389.03,352.168,389.725,352.225C390.064,352.242,390.395,352.328,390.699,352.479C390.969,352.634,390.934,352.724,390.872,352.888C390.793,353.096,390.683,353.379,391.31,353.741C391.432,353.804,391.563,353.848,391.698,353.87C392.048,353.933,392.407,353.933,392.757,353.87C393.273,353.773,393.446,353.557,393.154,353.388Z" fill="#718095" opacity="0.4" stroke="none" stroke-width="1" fill-rule="evenodd" transform="translate(-0.72633,-0.838645) scale(0.93,0.93)"/>
                            <path id="Path-38" d="M366.845,332.085C366.537,332.063,366.235,331.992,365.951,331.872C365.766,331.745,365.788,331.655,365.845,331.508C365.926,331.301,366.036,331.018,365.41,330.655C365.379,330.637,365.343,330.627,365.31,330.61C365.277,330.593,365.278,330.581,365.251,330.566C364.625,330.258,363.946,330.07,363.251,330.011C362.943,329.989,362.641,329.917,362.357,329.798C362.179,329.673,362.201,329.583,362.257,329.438C362.337,329.231,362.446,328.947,361.819,328.584C361.785,328.565,361.747,328.554,361.713,328.536C361.679,328.518,361.678,328.505,361.65,328.489C361.576,328.45,361.497,328.42,361.416,328.4C360.901,328.215,360.367,328.092,359.823,328.032C359.482,328.015,359.148,327.929,358.842,327.778C358.572,327.621,358.607,327.531,358.67,327.366C358.75,327.159,358.857,326.875,358.229,326.513C357.603,326.205,356.924,326.017,356.229,325.958C355.886,325.941,355.551,325.854,355.243,325.702C354.973,325.545,355.007,325.454,355.069,325.29C355.148,325.082,355.255,324.798,354.627,324.436L354.609,324.429C354.596,324.421,354.593,324.415,354.579,324.407C353.953,324.099,353.274,323.911,352.579,323.855C352.24,323.838,351.909,323.752,351.604,323.603C351.336,323.448,351.371,323.358,351.435,323.195C351.515,322.987,351.626,322.704,350.999,322.343C350.373,322.034,349.695,321.846,348.999,321.789C348.658,321.772,348.324,321.685,348.017,321.535C347.749,321.38,347.783,321.29,347.847,321.126C347.929,320.919,348.038,320.635,347.413,320.273C346.787,319.966,346.108,319.779,345.413,319.721C345.073,319.703,344.739,319.617,344.433,319.467C344.164,319.311,344.199,319.22,344.261,319.056C344.341,318.848,344.451,318.565,343.823,318.202C343.196,317.895,342.518,317.708,341.823,317.65C341.482,317.633,341.148,317.547,340.842,317.396C340.572,317.239,340.607,317.149,340.67,316.984C340.75,316.777,340.858,316.493,340.229,316.131C339.603,315.823,338.924,315.635,338.229,315.576C337.887,315.559,337.551,315.472,337.244,315.32C336.974,315.163,337.007,315.072,337.07,314.907C337.148,314.7,337.256,314.416,336.627,314.053C336.169,313.867,335.666,313.822,335.182,313.924C334.675,314.024,334.502,314.237,334.795,314.406C335.066,314.563,335.033,314.654,334.97,314.819C334.892,315.026,334.783,315.31,335.411,315.672C336.037,315.98,336.716,316.168,337.411,316.227C337.753,316.246,338.087,316.333,338.395,316.483C338.665,316.64,338.63,316.73,338.567,316.895C338.487,317.102,338.38,317.386,339.007,317.749C339.634,318.055,340.312,318.242,341.007,318.301C341.348,318.318,341.682,318.405,341.988,318.555C342.257,318.711,342.222,318.801,342.159,318.966C342.079,319.173,341.97,319.457,342.597,319.82C343.224,320.126,343.902,320.313,344.597,320.372C344.937,320.39,345.271,320.476,345.577,320.626C345.846,320.781,345.811,320.872,345.747,321.035C345.665,321.242,345.556,321.526,346.183,321.888C346.81,322.195,347.488,322.382,348.183,322.441C348.523,322.457,348.856,322.544,349.161,322.696C349.431,322.85,349.394,322.94,349.331,323.103C349.251,323.311,349.141,323.593,349.765,323.955C350.391,324.263,351.07,324.45,351.765,324.506C352.104,324.523,352.435,324.609,352.739,324.759C353.009,324.915,352.974,325.005,352.912,325.169C352.833,325.376,352.723,325.66,353.35,326.022C353.358,326.022,353.371,326.03,353.38,326.035C353.389,326.04,353.394,326.047,353.406,326.054C354.032,326.363,354.71,326.551,355.406,326.609C355.747,326.628,356.082,326.715,356.389,326.865C356.659,327.022,356.625,327.113,356.562,327.277C356.482,327.485,356.374,327.769,357.002,328.131C357.629,328.437,358.307,328.625,359.002,328.683C359.305,328.706,359.602,328.776,359.883,328.89C359.95,328.919,360.001,328.977,360.021,329.047C360.042,329.117,360.03,329.193,359.989,329.254C359.912,329.461,359.802,329.745,360.431,330.107C360.459,330.123,360.491,330.133,360.52,330.148C360.549,330.163,360.559,330.183,360.592,330.202C361.219,330.509,361.897,330.696,362.592,330.754C362.897,330.777,363.196,330.848,363.479,330.964C363.665,331.093,363.644,331.183,363.588,331.33C363.508,331.537,363.4,331.822,364.027,332.184C364.056,332.201,364.089,332.21,364.119,332.226C364.149,332.242,364.152,332.255,364.179,332.271C364.806,332.577,365.484,332.764,366.179,332.823" fill="#718095" opacity="0.8" stroke="none" stroke-width="1" fill-rule="evenodd" transform="translate(-0.72633,-0.838645) scale(0.93,0.93)"/>
                            <path id="Path-39" d="M141.594,353.41L141.594,342.836C141.594,340.822,134.375,339.273,134.375,339.273L122.518,351.4C122.518,351.4,125.835,354.086,127.771,353.414C129.707,352.742,134.505,348.407,135.788,347.733C136.67,347.35,137.671,347.35,138.553,347.733L138.276,353.522L141.594,353.41Z" fill="#718095" stroke="none" stroke-width="1" fill-rule="evenodd" transform="translate(-0.72633,-0.838645) scale(0.93,0.93)"/>
                            <path id="Path-40" d="M170.963,354.339L170.963,344.09C170.963,342.138,162.646,340.857,162.646,340.857L152.731,352.387C152.731,352.387,155.902,354.987,157.751,354.339C159.6,353.691,164.188,349.486,165.414,348.833C166.256,348.462,167.214,348.462,168.056,348.833L167.792,354.444L170.963,354.339Z" fill="#718095" stroke="none" stroke-width="1" fill-rule="evenodd" transform="translate(-0.72633,-0.838645) scale(0.93,0.93)"/>
                            <path id="Path-41" fill="#001B41" d="M150.647,233.854L150.647,281.257L154.294,345.33L175.13,342.725L174.609,227.603Z" stroke="none" stroke-width="1" fill-rule="evenodd" transform="translate(-0.72633,-0.838645) scale(0.93,0.93)"/>
                            <path id="Path-42" d="M132.057,227.082L123.226,281.462L126.42,342.717C126.42,342.717,141.638,346.38,143.892,343.241C146.146,340.102,142.952,287.741,142.952,287.741L166.446,232.156L132.057,227.082Z" fill="#263D5D" stroke="none" stroke-width="1" fill-rule="evenodd" transform="translate(-0.72633,-0.838645) scale(0.93,0.93)"/>
                            <path id="Path-43" d="M136.308,119.969C136.308,119.969,134.841,144.079,145.366,141.898C155.891,139.717,160.449,129.444,160.449,129.444C160.449,129.444,158.671,114.299,153.581,114.544C148.491,114.789,137.032,117.612,136.308,119.969Z" fill="#CE9C76" stroke="none" stroke-width="1" fill-rule="evenodd" transform="translate(-0.72633,-0.838645) scale(0.93,0.93)"/>
                            <path id="Path-44" d="M149.084,140.089L148.564,147.121L157.94,147.382C157.94,147.382,155.596,138.526,156.377,135.401C157.158,132.276,149.084,140.089,149.084,140.089Z" fill="#AD7957" stroke="none" stroke-width="1" fill-rule="evenodd" transform="translate(-0.72633,-0.838645) scale(0.93,0.93)"/>
                            <path id="Path-45" d="M168.813,162.539C168.813,162.539,137.692,169.215,134.953,166.704C125.925,158.428,113.038,143.284,110.542,142.154C107.788,140.908,100.254,136.343,107.331,134.516C110.499,133.919,113.756,134.947,116.006,137.256C116.895,138.264,119.006,141.271,120.115,142.278C128.447,149.811,133.123,155.949,139.062,156.659C148.013,157.73,171.671,153.852,172.091,155.926C172.511,158,168.813,162.539,168.813,162.539Z" fill="#D3A784" stroke="none" stroke-width="1" fill-rule="evenodd" transform="translate(-0.72633,-0.838645) scale(0.93,0.93)"/>
                            <path id="Path-46" d="M124.452,145.93C124.005,145.489,122.328,144.68,121.852,145.09C120.308,146.417,118.709,151.355,120.116,152.322C121.942,153.578,131.872,165.222,132.899,166.247C133.926,167.272,139.633,169.785,139.976,170.014C140.319,170.243,161.662,182.683,161.662,182.683L165.315,177.204C165.315,177.204,130.731,153.004,129.247,150.952C129.246,150.952,125.9,147.359,124.452,145.93Z" fill="url(#Gradient-4)" stroke="none" stroke-width="1" fill-rule="evenodd" transform="translate(-0.72633,-0.838645) scale(0.93,0.93)"/>
                            <path id="Path-47" d="M176.461,227.852C155.728,247.307,126.278,237.034,126.278,237.034L130.228,226.405C136.241,216.953,135.628,175.417,133.888,171.632C128.66,160.241,131.977,153.795,133.888,150.547C138.588,142.547,162.081,145.325,165.781,146.427C173.1,148.608,175.674,162.209,172.839,172.117C169.439,183.992,170.617,194.777,174.078,201.359C177.68,208.207,180.213,224.331,176.461,227.852Z" fill="url(#Gradient-5)" stroke="none" stroke-width="1" fill-rule="evenodd" transform="translate(-0.72633,-0.838645) scale(0.93,0.93)"/>
                            <path id="Path-48" d="M133.264,163.386C128.249,150.267,140.175,147.094,141.179,158.679C141.609,163.646,143.604,175.779,141.122,184.599C140.041,188.44,136.622,202.532,131.522,207.813C129.544,209.858,123.415,217.73,122.101,220.884C120.787,224.038,121.086,231.5,118.522,232.436C115.958,233.372,110.374,232.295,110.933,228.949C111.492,225.603,114.086,221.366,117.427,218.238C120.768,215.11,127.5,202.836,129,199.284C134.163,187,135.787,169.985,133.264,163.386Z" fill="#D3A784" stroke="none" stroke-width="1" fill-rule="evenodd" transform="translate(-0.72633,-0.838645) scale(0.93,0.93)"/>
                            <path id="Path-49" d="M133.328,152.067C133.328,152.067,129.37,158.431,133.671,168.293C133.671,168.293,134.814,183.983,129.171,197.505L123.123,209.56C123.123,209.56,125.941,214.622,127.323,213.577C133.964,206.533,138.616,197.852,140.803,188.421C140.803,188.421,145.34,179.813,141.503,156.659C141.509,156.659,139.025,147.432,133.328,152.067Z" fill="url(#Gradient-6)" stroke="none" stroke-width="1" fill-rule="evenodd" transform="translate(-0.72633,-0.838645) scale(0.93,0.93)"/>
                            <path id="Path-50" d="M132.762,118.732C132.762,118.732,133.343,122.761,137.624,120.815C137.624,120.815,137.804,120.715,139.361,121.683C140.918,122.651,140.548,120.642,140.548,120.642C141.309,120.588,141.991,121.109,142.139,121.857C142.528,123.219,142.917,127.111,144.863,127.306L146.225,124.387C146.225,124.387,150.701,125.554,148.95,129.057C147.199,132.56,151.45,139.713,151.45,139.713C151.45,139.713,152.543,141.513,153.41,141.101C153.949,140.821,154.6,140.875,155.085,141.241C155.932,141.892,157.031,142.118,158.066,141.853C161.18,141.27,159.234,140.297,159.234,140.297C159.234,140.297,161.687,143.277,164.022,142.697C165.305,142.459,166.409,141.649,167.022,140.497C167.022,140.497,170.522,140.692,169.162,135.049C169.162,135.049,173.403,131.79,169.551,128.821C169.551,128.821,173.876,127.512,172.708,123.421C172.708,123.421,177.602,114.54,170.655,111.874C170.655,111.874,169.876,107.982,167.155,106.231C166.015,104.974,164.313,104.384,162.64,104.668C162.64,104.668,156.161,96.994,150.873,101.768C150.873,101.768,147.463,98.644,143.873,101.573L142.316,103.13C142.316,103.13,138.616,101.378,136.673,104.103C134.73,106.828,134.218,106.34,133.173,106.438C131.611,106.584,129.885,107.95,130.059,111.887C130.178,114.565,129.718,116.181,130.449,117.335C131.134,117.93,131.916,118.403,132.762,118.732Z" fill="#181A41" stroke="none" stroke-width="1" fill-rule="evenodd" transform="translate(-0.72633,-0.838645) scale(0.93,0.93)"/>
                            <path class="cls-5" d="M54.533,156.857L34.283,168.548L34.283,158.375L54.533,146.683L54.533,156.857Z" fill="#11c7e6" transform="translate(-1.64545,-9.68314) scale(0.837,0.837)"/>
                            <path class="cls-6" d="M78.038,143.286L57.787,154.978L57.787,144.804L78.038,133.113L78.038,143.286Z" fill="#11c7e6" transform="translate(-1.64545,-9.68314) scale(0.837,0.837)"/>
                            <path class="cls-7" d="M78.038,126.573L57.787,138.264L57.787,128.091L78.038,116.399L78.038,126.573Z" fill="#11c7e6" transform="translate(-1.64545,-9.68314) scale(0.837,0.837)"/>
                            <path id="_a4" class="cls-8" d="M101.723,129.612L81.473,141.303L81.473,131.13L101.723,119.438L101.723,129.612Z" fill="#11c7e6" opacity="1" fill-opacity="0.3" transform="translate(-1.64545,-9.68314) scale(0.837,0.837)"/>
                            <path id="_a5" class="cls-9" d="M101.723,112.898L81.473,124.59L81.473,114.416L101.723,102.725L101.723,112.898Z" fill="#11c7e6" opacity="1" fill-opacity="0.3" transform="translate(-1.64545,-9.68314) scale(0.837,0.837)"/>
                            <path id="_a6" class="cls-10" d="M101.723,95.821L81.473,107.513L81.473,97.339L101.723,85.648L101.723,95.821Z" fill="#11c7e6" opacity="1" fill-opacity="0.3" transform="translate(-1.64545,-9.68314) scale(0.837,0.837)"/>
                            <path class="cls-11" d="M125.951,115.624L105.701,127.315L105.701,117.142L125.951,105.45L125.951,115.624Z" fill="#11c7e6" opacity="0.3" transform="translate(-1.64545,-9.68314) scale(0.837,0.837)"/>
                            <path class="cls-12" d="M125.951,98.91L105.701,110.602L105.701,100.428L125.951,88.737L125.951,98.91Z" fill="#11c7e6" opacity="0.3" transform="translate(-1.64545,-9.68314) scale(0.837,0.837)"/>
                            <path class="cls-13" d="M125.951,81.833L105.701,93.525L105.701,83.351L125.951,71.66L125.951,81.833Z" fill="#11c7e6" opacity="0.3" transform="translate(-1.64545,-9.68314) scale(0.837,0.837)"/>
                            <path class="cls-14" d="M125.951,64.756L105.701,76.448L105.701,66.274L125.951,54.583L125.951,64.756Z" fill="#11c7e6" opacity="0.3" transform="translate(-1.64545,-9.68314) scale(0.837,0.837)"/>
                        </g>
                        <path id="Path-3" fill="#001B41" opacity="0" d="M120.139,144.618L71.34,172.792L71.34,130.68L120.139,102.506Z" stroke="none" stroke-width="1" fill-rule="evenodd" transform="translate(88.2834,127.313) translate(-95.7395,-137.649)"/>
                    </g>
                    <path id="Path-2" fill="#001B41" opacity="0" d="M116.639,141.598L71.34,167.751L71.34,128.659L116.639,102.506Z" stroke="none" stroke-width="1" fill-rule="evenodd" transform="translate(89.9919,129.773) translate(-95.7395,-137.649)"/>
                </g>
                <path id="Path-5" fill="#001B41" opacity="0" d="M116.72,141.673L71.34,167.876L71.34,128.709L116.72,102.506Z" stroke="none" stroke-width="1" fill-rule="evenodd" transform="translate(42.4614,157.093) translate(-95.7395,-137.649)"/>
            </g>
            <path id="Path-4" fill="#001B41" opacity="0" d="M116.72,141.673L71.34,167.876L71.34,128.709L116.72,102.506Z" stroke="none" stroke-width="1" fill-rule="evenodd" transform="translate(46.3591,157.093) translate(-95.7395,-137.649)"/>
        </g>
    </g>
    <script><![CDATA[/*
 KeyshapeJS v1.0.0 (c) 2018 Pixofield Ltd | pixofield.com/keyshapejs/mit-license */
window.KeyshapeJS=function(){function A(a){return"undefined"!==typeof a}function v(a,b){return a&&0==a.indexOf(b)}function H(a){if(!isFinite(a))throw Error("Non-finite value");}function Q(a){if(14>=a)return 16;var b=R[a];b||(b=A(ba[a])?0|(a.toLowerCase().indexOf("color")==a.length-5?48:0):1);return b}function J(a){return 0<=a?Math.pow(a,1/3):-Math.pow(-a,1/3)}function ca(a,b,c,d){if(0==a)return 0==b?b=-d/c:(a=Math.sqrt(c*c-4*b*d),d=(-c+a)/(2*b),0<=d&&1>=d?b=d:(d=(-c-a)/(2*b),b=0<=d&&1>=d?d:0)),b;
var e=c/a-b*b/(a*a)/3;c=b*b*b/(a*a*a)/13.5-b*c/(a*a)/3+d/a;var n=c*c/4+e*e*e/27;b=-b/(3*a);if(0>=n){if(0==e&&0==c)return-J(d/a);a=Math.sqrt(c*c/4-n);d=Math.acos(-c/2/a);c=Math.cos(d/3);d=Math.sqrt(3)*Math.sin(d/3);a=J(a);e=2*a*c+b;if(0<=e&&1>=e)return e;e=-a*(c+d)+b;if(0<=e&&1>=e)return e;e=a*(d-c)+b;if(0<=e&&1>=e)return e}else{a=J(-c/2+Math.sqrt(n));c=J(-c/2-Math.sqrt(n));d=a+c+b;if(0<=d&&1>=d)return d;d=-(a+c)/2+b;if(0<=d&&1>=d)return d}return 0}function da(a,b){if(48==a&&"number"===typeof b)return"#"+
("000000"+b.toString(16)).substr(-6);if(64==a)return b=b.map(function(a){return a+"px"}),b.join(",");if(96==a){a="";for(var c=b.length,d=0;d<c;d+=2)a+=b[d],a+=b[d+1].join(",");return a}if(80==a){if(0==b[0])return"none";a="";c=b.length;for(d=0;d<c;)a+=S[b[d]],1==b[d]?a+="("+b[d+1]+") ":5==b[d]?(a+="("+b[d+1]+"px "+b[d+2]+"px "+b[d+3]+"px rgba("+(b[d+4]>>>24)+","+(b[d+4]>>16&255)+","+(b[d+4]>>8&255)+","+(b[d+4]&255)/255+")) ",d+=3):a=2==b[d]?a+("("+b[d+1]+"px) "):7==b[d]?a+("("+b[d+1]+"deg) "):a+("("+
(0>b[d+1]?0:b[d+1])+") "),d+=2;return a}return 32==a?b+"px":b}function w(a){return 0>=a?0:255<=a?255:a}function ea(a,b,c,d){if(16==a||32==a)return(c-b)*d+b;if(0==a)return.5>d?b:c;if(48==a){if("number"===typeof b&&"number"===typeof c){var e=1-d;return w(e*(b>>16)+d*(c>>16))<<16|w(e*(b>>8&255)+d*(c>>8&255))<<8|w(e*(b&255)+d*(c&255))}return.5>d?b:c}if(64==a){0==b.length&&(b=[0]);0==c.length&&(c=[0]);var n=b.length;b.length!=c.length&&(n=b.length*c.length);var k=[];for(a=0;a<n;++a){var f=b[a%b.length];
var h=(c[a%c.length]-f)*d+f;0>h&&(h=0);k.push(h)}return k}if(96==a){if(b.length!=c.length)return.5>d?b:c;n=b.length;k=[];for(a=0;a<n;a+=2){if(b[a]!==c[a])return.5>d?b:c;k[a]=b[a];k[a+1]=[];for(f=0;f<b[a+1].length;++f)k[a+1].push((c[a+1][f]-b[a+1][f])*d+b[a+1][f])}return k}if(80==a){n=b.length;if(n!=c.length)return.5>d?b:c;k=[];for(a=0;a<n;){if(b[a]!=c[a]||1==b[a])return.5>d?b:c;k[a]=b[a];k[a+1]=(c[a+1]-b[a+1])*d+b[a+1];if(5==b[a]){k[a+2]=(c[a+2]-b[a+2])*d+b[a+2];k[a+3]=(c[a+3]-b[a+3])*d+b[a+3];e=
1-d;var g=b[a+4],q=c[a+4];h=e*(g>>>24)+d*(q>>>24);var m=e*(g>>16&255)+d*(q>>16&255);f=e*(g>>8&255)+d*(q>>8&255);k[a+4]=(w(m)<<16|w(f)<<8|w(e*(g&255)+d*(q&255)))+16777216*(w(h)|0);a+=3}a+=2}return k}return 0}function T(a,b){a:{var c=a+b[2];var d=b[4].length;for(var e=0;e<d;++e)if(c<b[4][e]){c=e;break a}c=d-1}d=b[2];e=b[4][c-1]-d;a=(a-e)/(b[4][c]-d-e);if(b[6]&&b[6].length>c-1)if(d=b[6][c-1],1==d[0])if(0>=a)a=0;else if(1<=a)a=1;else{e=d[1];var n=d[3];a=ca(3*e-3*n+1,-6*e+3*n,3*e,-a);a=3*a*(1-a)*(1-a)*
d[2]+3*a*a*(1-a)*d[4]+a*a*a}else 2==d[0]?(d=d[1],a=Math.ceil(a*d)/d):3==d[0]&&(d=d[1],a=Math.floor(a*d)/d);return ea(b[1]&240,b[5][c-1],b[5][c],a)}function K(){x||(u=(new Date).getTime()+U)}function N(a){if(a||!C){for(var b=!1,c=0;c<t.length;++c)t[c].I(a)&&(b=!0);if(a)for(;0<F.length;)if(a=F.shift(),c=a[0],1==a[1])c.onfinish&&(c.onfinish(),b=!0),c.H();else if(2==a[1]&&c.onloop)c.onloop();return b}}function V(){K();N(!0)&&!x?(C=!0,L(V)):C=!1}function M(){C||(C=!0,L(V))}function W(a,b){var c=[];a.split(b).forEach(function(a){c.push(parseFloat(a))});
return c}function y(a){-1==a.indexOf(",")&&(a=a.replace(" ",","));return W(a,",")}function X(a){a._ks||(a._ks={});if(!a._ks.transform){for(var b=a._ks.transform=[],c=0;14>=c;++c)b[c]=0;b[10]=1;b[11]=1;if(a=a.getAttribute("transform")){a=a.trim().split(") ");for(c=a.length-2;0<=c;--c)if(v(a[c],"translate(")){for(var d=0;d<c;d++)a.shift();break}c=a.shift();v(c,"translate(")&&(c=y(c.substring(10)),b[1]=c[0],b[2]=A(c[1])?c[1]:0,c=a.shift());v(c,"rotate(")&&(c=y(c.substring(7)),b[6]=c[0],c=a.shift());
v(c,"skewX(")&&(c=y(c.substring(6)),b[7]=c[0],c=a.shift());v(c,"skewY(")&&(c=y(c.substring(6)),b[8]=c[0],c=a.shift());v(c,"scale(")&&(c=y(c.substring(6)),b[10]=c[0],b[11]=A(c[1])?c[1]:0,c=a.shift());v(c,"translate(")&&(c=y(c.substring(10)),b[13]=c[0],b[14]=A(c[1])?c[1]:0)}}}function Y(a){this.D=a;this.B=[];this.w=[];this.s=0;this.o=this.a=this.c=null;this.h=this.f=this.g=0;this.b=1;this.i=this.C=this.m=!1}function I(a,b,c){b=a[b];void 0===b&&(b=a[c]);return b}function fa(a){return Array.isArray(a)?
a:v(a,"cubic-bezier(")?(a=a.substring(13,a.length-1).split(","),[1,parseFloat(a[0]),parseFloat(a[1]),parseFloat(a[2]),parseFloat(a[3])]):v(a,"steps(")?(a=a.substring(6,a.length-1).split(","),[a[1]&&"start"==a[1].trim()?2:3,parseFloat(a[0])]):[0]}function ha(a){a=a.trim();return v(a,"#")?(parseInt(a.substring(1),16)<<8)+255:v(a,"rgba(")?(a=a.substring(5,a.length-1),a=a.split(","),(parseInt(a[0],10)<<24)+(parseInt(a[1],10)<<16)+(parseInt(a[2],10)<<8)+255*parseFloat(a[3])<<0):a}function Z(a){!1===a.i&&
(t.push(a),a.i=!0,!1!==a.D.autoplay&&a.play());return this}function O(a){if(!0===a.i){a._cancel();var b=t.indexOf(a);-1<b&&t.splice(b,1);b=F.indexOf(a);-1<b&&F.splice(b,1);a.i=!1}return this}var P=Error("Not in timeline list"),aa="mpath posX posY    rotate skewX skewY  scaleX scaleY  anchorX anchorY".split(" "),ia=" translate translate    rotate skewX skewY  scale scale  translate translate".split(" "),S="none url blur brightness contrast drop-shadow grayscale hue-rotate invert opacity saturate sepia".split(" "),
L=window.requestAnimationFrame||window.webkitRequestAnimationFrame||window.mozRequestAnimationFrame||window.oRequestAnimationFrame||window.msRequestAnimationFrame||null;L||(L=function(a){window.setTimeout(a,16)});var R={d:97,fill:48,fillOpacity:16,filter:80,height:33,opacity:16,offsetDistance:33,stroke:48,strokeDasharray:64,strokeDashoffset:32,strokeOpacity:16,strokeWidth:32,transform:1,width:33},ba=window.getComputedStyle(document.documentElement),C=!1,u=(new Date).getTime(),x,U=0,t=[],F=[];Y.prototype=
{v:function(a){var b=0;if(null!==this.c){var c=this.j();0<this.b&&null!==c&&c>=this.f?this.h?(this.c=u-this.g/this.b,this.h--,b=2):(b=1,a?this.a=c:this.a=this.o?Math.max(this.o,this.f):this.f):0>this.b&&null!==c&&c<=this.g?this.h&&Infinity!=this.f?(this.c=u-this.f/this.b,this.h--,b=2):(this.h=0,b=1,a?this.a=c:this.a=this.o?Math.min(this.o,this.g):this.g):null!==c&&0!=this.b&&(a&&null!==this.a&&(this.c=u-this.a/this.b),this.a=null)}this.o=this.j();return b},I:function(a){a&&(this.m&&(this.m=!1,null===
this.c&&(0!=this.b&&null!==this.a?(this.c=u-this.a/this.b,this.a=null):this.c=u)),null===this.a&&null!==this.c&&(a=this.v(!1),0!=a&&F.push([this,a])));a=this.j();if(null===a)return!1;for(var b=this.B,c=this.w,d=0;d<b.length;++d){for(var e=b[d],n=!1,k=0;k<c[d].length;++k){var f=c[d][k],h=f[0];if(null!==h){var g=f[2];var q=f[4].length,m=f[4][q-1]-g;g=0==m?f[5][q-1]:a<=g?f[5][0]:a>=g+f[3]?0==f[3]%m?f[5][q-1]:T(f[3]%m,f):T((a-g)%m,f);0==h?(e._ks.mpath=f[8],e._ks.transform[h]=g,n=!0):14>=h?(e._ks.transform[h]=
g,n=!0):(g=da(f[1]&240,g),f[1]&1?e.setAttribute(h,g):e.style[h]=g)}}if(n){X(e);n=e._ks.transform;k="";if(f=e._ks.mpath)g=n[0],0>g&&(g=0),100<g&&(g=100),g=g*f[2]/100,h=f[1].getPointAtLength(g),k="translate("+h.x+","+h.y+") ",f[0]&&(.5>g?(g=h,h=f[1].getPointAtLength(.5)):g=f[1].getPointAtLength(g-.5),k+="rotate("+180*Math.atan2(h.y-g.y,h.x-g.x)/Math.PI+") ");for(f=1;f<n.length;++f)h=n[f],h!=(10==f||11==f?1:0)&&(k+=" "+ia[f]+"(",k=2>=f?k+(1==f?h+",0":"0,"+h):13<=f?k+(13==f?h+",0":"0,"+h):10<=f?k+(10==
f?h+",1":"1,"+h):k+h,k+=")");e.setAttribute("transform",k)}}return"running"==this.l()},H:function(){!1!==this.D.autoremove&&"finished"==this.l()&&O(this)},A:function(){if(!this.C){this.C=!0;for(var a=this.B,b=this.w,c=0;c<a.length;++c)for(var d=a[c],e=0;e<b[c].length;++e)14>=b[c][e][0]&&X(d)}},play:function(a){A(a)&&null!==a&&(H(a),0>this.b&&a<this.g&&(a=this.g),0<this.b&&a>this.f&&(a=this.f),this.u(a,!0));if(!this.i)throw P;a=this.j();if(0<this.b&&(null===a||a>=this.f))this.a=this.g;else if(0>this.b&&
(null===a||a<=this.g)){if(Infinity==this.f)throw Error("Cannot seek to Infinity");this.a=this.f}else 0==this.b&&null===a&&(this.a=this.g);if(null===this.a)return this;this.c=null;this.m=!0;this.A();M();return this},pause:function(a){if(!this.i)throw P;A(a)&&H(a);if("paused"!=this.l()){K();var b=this.j();if(null===b)if(0<=this.b)this.a=this.g;else{if(Infinity==this.f)throw Error("Cannot seek to Infinity");this.a=this.f}null!==this.c&&null===this.a&&(this.a=b);this.c=null;this.m=!1;this.v(!1);this.A();
M()}A(a)&&this.u(a,!0);return this},range:function(a,b){if(0==arguments.length)return{"in":this.g,out:this.f};var c=+a,d=this.s;A(b)&&(d=+b);H(c);if(0>c||0>d||c>=d||isNaN(d))throw Error("Invalid range");var e=this.l();this.g=c;this.f=d;"finished"==e&&"running"==this.l()&&this.play();return this},loop:function(a){if(!A(a))return{count:this.h};this.h=!0===a?Infinity:Math.floor(a);if(0>this.h||isNaN(this.h))this.h=0;return this},j:function(){return null!==this.a?this.a:null===this.c?null:(u-this.c)*
this.b},u:function(a,b){b&&K();null!==a&&(this.A(),null!==this.a||null===this.c||0==this.b?(this.a=a,N(!1)):this.c=u-a/this.b,this.i||(this.c=null),this.o=null,this.v(!0),M())},F:function(){return this.j()},time:function(a){if(A(a)){if(!this.i)throw P;H(a);this.u(a,!0);return this}return this.F()},l:function(){var a=this.j();return this.m?"running":null===a?"idle":null===this.c?"paused":0<this.b&&a>=this.f||0>this.b&&a<=this.g?"finished":"running"},state:function(){return this.l()},duration:function(){return this.s},
G:function(a){H(a);K();var b=this.j();this.b=a;null!==b&&this.u(b,!1)},rate:function(a){return A(a)?(this.G(a),this):this.b},_cancel:function(){if(!this.i||"idle"==this.l())return this;this.c=this.a=null;this.m=!1;return this}};return{version:"1.0.0",animate:function(){var a={};if(1==arguments.length%2){a=arguments[arguments.length-1];var b={};for(c in a)b[c]=a[c];a=b}var c=new Y(a);a=arguments;for(var d=b=0;d<a.length-1;d+=2){var e=a[d];var n=e instanceof Element?e:document.getElementById(e.substring(1));
if(!n)throw Error("Invalid target: "+e);e=n;n=a[d+1];e._ks||(e._ks={});for(var k=[],f=0;f<n.length;++f){var h=n[f],g=I(h,"p","property");if("string"!=typeof g||-1!=g.indexOf("-")||""===g||!(0<R[g]||0<=aa.indexOf(g)))throw Error("Invalid property: "+g);var q=aa.indexOf(g);""!==g&&0<=q&&(g=q);q=Q(g);var m=I(h,"t","times");if(!m||2>m.length)throw Error("Not enough times");m=m.slice();if(!isFinite(m[0])||0>m[0])throw Error("Invalid time: "+m[0]);for(var B=1;B<m.length;++B)if(!isFinite(m[B])||0>m[B]||
m[B]<m[B-1])throw Error("Invalid time: "+m[B]);B=m[0];var u=m[m.length-1]-B,x=h.iterations||0;1>x&&(x=1);u*=x;b<u+B&&(b=u+B);var t=I(h,"v","values");if(!t||t.length!=m.length)throw Error("Values do not match times");t=t.slice();for(var D=g,l=t,w=Q(D)&240,p=0;p<l.length;++p)if(96==w){for(var y=l[p].substring(6,l[p].length-2).match(/[A-DF-Za-df-z][-+0-9eE., ]*/ig),C=[],r=0;r<y.length;++r){C.push(y[r][0]);for(var z=1<y[r].trim().length?y[r].substring(1).split(","):[],G=0;G<z.length;++G)z[G]=parseFloat(z[G]);
C.push(z)}l[p]=C}else if(48==w)v(l[p],"#")?l[p]=parseInt(l[p].substring(1),16):v(l[p],"url(")||"none"==l[p]||(console.warn("unsupported color: "+l[p]),l[p]=0);else if(80==w){y=l;C=p;r=l[p];if("none"==r)r=[0];else{z=[];for(var E=r.indexOf("(");0<E;)if(G=S.indexOf(r.substring(0,E)),0<=G){z.push(G);var F=r.indexOf(") ");0>F&&(F=r.length-1);E=r.substring(E+1,F).split(" ");5==G?(z.push(parseFloat(E[0])),z.push(parseFloat(E[1])),z.push(parseFloat(E[2])),z.push(ha(E[3]))):1==G?z.push(E[0]):z.push(parseFloat(E[0]));
r=r.substring(F+1).trim();E=r.indexOf("(")}else break;r=z}y[C]=r}else 64==w?"none"!=l[p]?/^[0-9 .]*$/.test(l[p])?l[p]=W(l[p]," "):(console.warn("unsupported value: "+l[p]),l[p]=[0]):l[p]=[0]:32==w?(H(l[p]),l[p]=parseFloat(l[p])):0===D&&(l[p]=parseFloat(l[p]));D=I(h,"e","easing");l=m.length;for(D||(D=[]);D.length<l;)D.push([1,0,0,.58,1]);for(l=0;l<D.length;++l)D[l]=fa(D[l]);q=[g,q,B,u,m,t,D,x];m=I(h,"mp","motionPath");A(m)&&0===g&&(q[8]=[],q[8][0]=h.motionRotate,h=document.createElementNS("http://www.w3.org/2000/svg",
"path"),m||(m="M0,0"),h.setAttribute("d",m),q[8][1]=h,q[8][2]=h.getTotalLength());k.push(q)}0<k.length&&(c.B.push(e),c.w.push(k))}c.s=b;c.g=0;c.f=c.s;Z(c);return c},add:Z,remove:O,removeAll:function(){for(var a=t.length-1;0<=a;--a)O(t[a]);return this},timelines:function(){return t.slice()},globalPlay:function(){x&&(U=x-(new Date).getTime(),x=void 0,M());return this},globalPause:function(){x||(x=u,N(!1));return this},globalState:function(){return x?"paused":"running"}}}();
]]></script>
    <script><![CDATA[if(KeyshapeJS.version.indexOf('1.')!=0)throw Error('Expected KeyshapeJS v1.*.*');window.ks=document.ks=KeyshapeJS;(function(ks){
ks.animate("#Path-30",[{p:'mpath',t:[4000,5100,10200,11200],v:['0%','49.998586%','49.999529%','100%'],e:[[1,0.47,0,0.745,0.715],[0],[1,0.47,0,0.745,0.715],[0]],mp:"M286.954,108.482L286.954,2.48336L286.954,2.48136L286.954,108.484"}],
"#_a0",[{p:'mpath',t:[4000,5100,10200,11200],v:['0%','50%','50%','100%'],e:[[1,0.47,0,0.745,0.715],[0],[1,0.47,0,0.745,0.715],[0]],mp:"M277.217,279.513L277.217,165.513L277.217,165.513L277.217,279.513"}],
"#_a1",[{p:'mpath',t:[4000,5100,10200,11200],v:['0%','50%','50%','100%'],e:[[1,0.47,0,0.745,0.715],[0],[1,0.47,0,0.745,0.715],[0]],mp:"M346.08,279.983L346.08,165.483L346.08,165.483L346.08,279.983"}],
"#Bar_2_C",[{p:'mpath',t:[3600,4700,9900,10800],v:['0%','49.999043%','50.030512%','100%'],e:[[1,0.47,0,0.745,0.715],[0],[1,0.47,0,0.745,0.715],[0]],mp:"M384.913,22.9214L385.729,135.738L385.73,135.667L384.913,22.9171"}],
"#_a2",[{p:'mpath',t:[3600,4700,9900,10800],v:['0%','50%','50%','100%'],e:[[1,0.47,0,0.745,0.715],[0],[1,0.47,0,0.745,0.715],[0]],mp:"M383.335,205.737L383.335,325.737L383.335,325.737L383.335,205.737"}],
"#_a3",[{p:'mpath',t:[3600,4700,9900,10800],v:['0%','50.000825%','50.000825%','100%'],e:[[1,0.47,0,0.745,0.715],[1,0.175,0.885,0.32,1],[1,0.47,0,0.745,0.715],[0]],mp:"M452.698,203.717L452.198,325.717L452.198,325.717L452.198,203.72"}],
"#_a4",[{p:'fillOpacity',t:[2400,2900,9200,9700],v:[0.3,1,1,0.3],e:[[0],[0],[0],[0]]}],
"#_a5",[{p:'fillOpacity',t:[2700,3200,8900,9300],v:[0.3,1,1,0.3],e:[[0],[0],[0],[0]]}],
"#_a6",[{p:'fillOpacity',t:[3100,3600,8600,9000],v:[0.3,1,1,0.3],e:[[0],[0],[0],[0]]}],
"#Path-3",[{p:'scaleX',t:[2600,3100],v:[1,1.9],e:[[0],[0]]},{p:'scaleY',t:[2600,3100],v:[1,1.9],e:[[0],[0]]},{p:'opacity',t:[1300,2300,2600,3100],v:[0,0,0.3,0],e:[[0],[0],[0],[0]]},{p:'fill',t:[1300,2300],v:['#001B41','#28cce8'],e:[[0],[0]]}],
"#Path-2",[{p:'scaleX',t:[1900,2400],v:[1,1.9],e:[[0],[0]]},{p:'scaleY',t:[1900,2400],v:[1,1.9],e:[[0],[0]]},{p:'opacity',t:[600,1600,1900,2400],v:[0,0,0.3,0],e:[[0],[0],[0],[0]]},{p:'fill',t:[600,1600],v:['#001B41','#28cce8'],e:[[0],[0]]}],
"#Path-5",[{p:'scaleX',t:[7900,8400],v:[1,1.9],e:[[0],[0]]},{p:'scaleY',t:[7900,8400],v:[1,1.9],e:[[0],[0]]},{p:'opacity',t:[6600,7600,7900,8400],v:[0,0,0.3,0],e:[[0],[0],[0],[0]]},{p:'fill',t:[6600,7600],v:['#001B41','#28cce8'],e:[[0],[0]]}],
"#Path-4",[{p:'scaleX',t:[8600,9100],v:[1,1.9],e:[[0],[0]]},{p:'scaleY',t:[8600,9100],v:[1,1.9],e:[[0],[0]]},{p:'opacity',t:[7300,8300,8600,9100],v:[0,0,0.3,0],e:[[0],[0],[0],[0]]},{p:'fill',t:[7300,8300],v:['#001B41','#28cce8'],e:[[0],[0]]}],
{autoremove:false}).range(0,11500).loop(true);
if(document.location.search.substr(1).split('&').indexOf('global=paused')>=0)ks.globalPause()})(KeyshapeJS);
]]></script>
</svg>
