<svg width="230" height="230" viewBox="0 0 230 230" fill="none" xmlns="http://www.w3.org/2000/svg">
<circle cx="115" cy="115" r="115" fill="url(#paint0_linear)"/>
<path d="M196 158.588C190.144 160.071 186.521 158.653 183.271 153.794L160.157 121.955L156.817 117.546L129.824 153.899C126.74 158.273 123.505 160.176 117.749 158.628L152.314 112.432L120.134 70.7036C125.668 69.6316 129.492 70.1776 132.888 75.1118L156.862 107.347L181.012 75.2872C184.106 70.914 187.432 69.2509 192.986 70.8639L180.509 87.3347L163.604 109.251C161.591 111.755 161.868 113.469 163.719 115.888L196 158.588ZM35.0403 111.66L37.8678 97.8144C45.5656 70.413 77.1116 59.0267 98.8667 75.9584C111.581 85.9171 114.74 100.003 114.111 115.783H42.4463C41.3696 144.186 61.9021 161.328 88.0797 152.582C97.2617 149.511 102.67 142.353 105.377 133.396C106.751 128.908 109.025 128.206 113.261 129.489C111.098 140.69 106.217 150.047 95.9033 155.903C80.4926 164.67 58.4959 161.834 46.9241 149.651C40.0312 142.583 37.1836 133.626 35.9056 124.049C35.7044 122.466 35.3019 120.958 35 119.44C35.0268 116.848 35.0403 114.257 35.0403 111.665V111.66ZM42.5771 109.757H107.339C106.917 89.2183 94.0719 74.6309 76.5179 74.5057C57.2482 74.3554 43.4123 88.5971 42.5771 109.757V109.757Z" fill="white"/>
<defs>
<linearGradient id="paint0_linear" x1="115" y1="0" x2="115" y2="230" gradientUnits="userSpaceOnUse">
<stop stop-color="#D07474"/>
<stop offset="1" stop-color="#D97979" stop-opacity="0.86"/>
</linearGradient>
</defs>
</svg>
