<svg width="230" height="230" viewBox="0 0 230 230" fill="none" xmlns="http://www.w3.org/2000/svg">
<circle cx="115" cy="115" r="115" fill="url(#paint0_linear)"/>
<path d="M115.19 202C112.842 202.001 110.536 201.385 108.502 200.212L87.2092 187.619C84.0169 185.847 85.613 185.209 86.6346 184.841C89.9981 183.792 93.2158 182.323 96.2115 180.468C96.4652 180.347 96.7464 180.295 97.0267 180.317C97.307 180.34 97.5764 180.436 97.8076 180.596L114.152 190.3C114.456 190.465 114.796 190.551 115.142 190.551C115.487 190.551 115.828 190.465 116.131 190.3L179.897 153.493C180.195 153.314 180.44 153.061 180.611 152.759C180.782 152.457 180.871 152.116 180.871 151.769V78.1869C180.872 77.8336 180.781 77.4862 180.608 77.1785C180.434 76.8707 180.184 76.6132 179.882 76.4311L116.147 39.7197C115.849 39.5474 115.51 39.4567 115.166 39.4567C114.821 39.4567 114.483 39.5474 114.184 39.7197L50.45 76.4311C50.1443 76.6112 49.8909 76.8679 49.7145 77.1758C49.5382 77.4836 49.4451 77.8321 49.4444 78.1869V151.769C49.4438 152.118 49.5367 152.46 49.7136 152.761C49.8905 153.061 50.1448 153.309 50.45 153.477L67.9118 163.565C77.3929 168.353 83.2029 162.719 83.2029 157.18V84.4597C83.2029 84.2173 83.2509 83.9773 83.3441 83.7536C83.4374 83.5299 83.574 83.3268 83.7461 83.1561C83.9183 82.9855 84.1225 82.8506 84.3471 82.7593C84.5716 82.668 84.812 82.622 85.0544 82.6241H93.1309C93.3733 82.622 93.6137 82.668 93.8383 82.7593C94.0628 82.8506 94.267 82.9855 94.4392 83.1561C94.6113 83.3268 94.748 83.5299 94.8412 83.7536C94.9345 83.9773 94.9825 84.2173 94.9824 84.4597V157.116C94.9824 169.774 88.1031 177.02 76.1 177.02C72.4129 177.02 69.5239 177.02 61.4155 173.03L44.6879 163.453C42.6555 162.265 40.9691 160.566 39.796 158.525C38.6228 156.484 38.0037 154.171 38 151.817V78.2347C38.0001 75.882 38.6178 73.5704 39.7915 71.5312C40.9651 69.4921 42.6535 67.7968 44.6879 66.6148L108.422 29.7119C110.478 28.5887 112.783 28 115.126 28C117.469 28 119.774 28.5887 121.83 29.7119L185.596 66.5669C187.629 67.7501 189.317 69.4457 190.49 71.4846C191.663 73.5235 192.282 75.8344 192.284 78.1869V151.769C192.278 154.123 191.658 156.435 190.486 158.476C189.313 160.516 187.627 162.216 185.596 163.405L121.83 200.212C119.809 201.375 117.521 201.991 115.19 202Z" fill="white"/>
<path d="M134.806 151.306C106.906 151.306 101.064 138.537 101.064 127.763C101.062 127.521 101.108 127.282 101.199 127.058C101.291 126.835 101.426 126.631 101.597 126.46C101.768 126.29 101.971 126.154 102.194 126.063C102.418 125.971 102.658 125.925 102.899 125.928H111.151C111.599 125.924 112.033 126.084 112.372 126.378C112.71 126.672 112.929 127.079 112.987 127.524C114.232 135.919 117.935 140.165 134.806 140.165C148.246 140.165 153.96 137.117 153.96 129.998C153.96 125.88 152.364 122.831 131.47 120.788C114.025 119.064 103.235 115.201 103.235 101.251C103.235 88.3862 114.072 80.7087 132.252 80.7087C152.683 80.7087 162.787 87.7956 164.064 103.055C164.086 103.309 164.055 103.566 163.973 103.808C163.89 104.049 163.758 104.271 163.585 104.459C163.411 104.645 163.201 104.793 162.967 104.895C162.734 104.996 162.483 105.049 162.228 105.05H153.96C153.543 105.049 153.139 104.906 152.814 104.645C152.489 104.384 152.263 104.02 152.172 103.613C150.177 94.7867 145.357 91.9616 132.252 91.9616C117.584 91.9616 115.876 97.0692 115.876 100.9C115.876 105.529 117.887 106.886 137.695 109.503C157.504 112.121 166.602 115.76 166.602 129.535C166.602 143.31 155.093 151.306 134.806 151.306Z" fill="white"/>
<defs>
<linearGradient id="paint0_linear" x1="54" y1="13" x2="181" y2="193" gradientUnits="userSpaceOnUse">
<stop stop-color="#6DA25D"/>
<stop offset="1" stop-color="#70A75F" stop-opacity="0.86"/>
</linearGradient>
</defs>
</svg>
