<svg width="556" height="537" viewBox="0 0 556 537" fill="none" xmlns="http://www.w3.org/2000/svg">
<line x1="220.053" y1="211.104" x2="133.092" y2="131.061" stroke="#868686" stroke-width="3"/>
<g filter="url(#filter0_d)">
<circle cx="127.069" cy="119" r="57" fill="#EFEFEF"/>
</g>
<g filter="url(#filter1_d)">
<path d="M98.0687 86L103.288 144.799L126.582 151.303L149.877 144.799L155.096 86H98.0687Z" fill="#FF5722"/>
<path d="M143.894 109.468H116.526L117.163 116.866H143.13L141.221 138.931L126.582 143.013L111.944 138.931L110.925 127.325H118.054L118.563 133.319L126.582 135.488L134.602 133.319L135.365 124.009H110.671L108.634 102.198H144.53L143.894 109.468Z" fill="#FAFAFA"/>
</g>
<line x1="196.43" y1="298.678" x2="90.8545" y2="351.808" stroke="#868686" stroke-width="3"/>
<g filter="url(#filter2_d)">
<circle cx="77.4442" cy="353.19" r="57" transform="rotate(-69.3417 77.4442 353.19)" fill="#EFEFEF"/>
</g>
<g filter="url(#filter3_d)">
<path d="M50.0638 322.601L55.0069 378.293L77.0708 384.454L99.1347 378.293L104.078 322.601H50.0638Z" fill="#2196F3"/>
<path d="M96.2167 341.237L95.614 348.244L93.6849 369.143L79.6991 373.009L65.7132 369.143L64.7488 358.15H71.621L72.1033 363.828L79.6991 365.882L87.2948 363.828L88.3798 354.405L64.387 354.526L63.6635 348.002L88.9827 347.64L89.4651 340.754L63.0608 340.875L62.5785 334.351H96.8196L96.2167 341.237Z" fill="#FAFAFA"/>
</g>
<line x1="282.977" y1="241.596" x2="350.04" y2="93.3816" stroke="#868686" stroke-width="3"/>
<g filter="url(#filter4_d)">
<circle cx="357.737" cy="73.331" r="57" transform="rotate(69.5363 357.737 73.331)" fill="#EFEFEF"/>
</g>
<g filter="url(#filter5_d)">
<path d="M383.062 42.2664L332.773 42.2664L332.773 95.379L383.062 95.379L383.062 42.2664Z" fill="white"/>
<path d="M331.209 99.5699L325.069 40L391.214 40.0227L385.125 99.5245L358.09 106.255L331.209 99.5699ZM380.147 96.3187L385.28 45.2976L358.193 45.2976L358.399 101.571L380.147 96.3187ZM355.665 52.7779L349.086 52.7779L349.009 83.3133L336.239 80.2439L336.265 87.2239L355.665 91.8395L355.665 52.7779Z" fill="#F7E018"/>
<path d="M358.193 45.275L385.28 45.275L380.147 96.296L358.193 101.548L358.193 45.275ZM378.753 87.7469L380.533 68.6708L367.377 69.9669L367.377 59.7808L381.411 59.7354L381.978 52.7779L360.798 52.8689L361.082 78.1975L373.878 76.2648L373.697 81.9036L360.798 84.9276L360.927 91.8395L378.753 87.7469Z" fill="#F7E018"/>
</g>
<line x1="280.485" y1="264.105" x2="269.08" y2="426.385" stroke="#868686" stroke-width="3"/>
<g filter="url(#filter6_d)">
<circle cx="268.827" cy="447.861" r="57" transform="rotate(-130.789 268.827 447.861)" fill="#EFEFEF"/>
</g>
<path d="M268.768 469C268.37 474.026 268.083 476.95 267.069 479.816C267.069 479.816 267.737 484.598 268.201 489.665H269.857C270.252 486.097 270.856 482.554 271.664 479.055C269.519 478.004 268.849 473.408 268.768 469Z" fill="#B8C4C2"/>
<path d="M287.353 438.844C282.54 419.665 272.496 414.558 269.947 410.948C268.562 408.984 267.15 406 267.15 406C267.011 407.701 266.767 408.778 265.16 410.071C261.941 412.663 248.264 422.729 247.116 444.522C246.044 464.84 263.647 477.372 265.986 478.666C267.773 479.46 269.962 478.681 271.008 477.954C279.491 472.692 291.096 458.662 287.342 438.844" fill="#10AA50"/>
<path d="M271.563 479C268.665 477.991 267.826 473.264 267.697 468.857C268.412 461.59 268.618 454.301 268.316 447.018C268.165 443.197 268.392 411.622 267.069 407C267.604 407.904 268.897 410.029 270.19 411.546C273.278 415.184 285.388 420.329 291.191 439.648C295.713 459.558 281.793 473.666 271.563 479Z" fill="#12924F"/>
<line x1="323.006" y1="305.067" x2="450.001" y2="406.738" stroke="#868686" stroke-width="3"/>
<g filter="url(#filter7_d)">
<circle cx="467.521" cy="419.161" r="57" transform="rotate(173.872 467.521 419.161)" fill="#EFEFEF"/>
</g>
<g filter="url(#filter8_d)">
<path d="M489.62 389.322C480.795 380.69 466.565 380.354 457.895 388.573L442.668 403.013C440.608 404.944 438.972 407.287 437.865 409.891C436.758 412.496 436.204 415.305 436.239 418.139C436.295 422.914 437.933 427.537 440.896 431.276C439.844 433.826 439.318 436.564 439.349 439.326C439.389 442.216 440.004 445.07 441.156 447.721C442.309 450.372 443.976 452.766 446.059 454.762C454.885 463.395 469.116 463.73 477.784 455.511L493.01 441.072C495.071 439.141 496.708 436.798 497.815 434.193C498.922 431.589 499.475 428.779 499.44 425.945C499.384 421.17 497.746 416.548 494.784 412.808C495.836 410.258 496.362 407.52 496.33 404.759C496.29 401.868 495.676 399.014 494.523 396.363C493.371 393.712 491.704 391.319 489.62 389.322" fill="#FF3E00"/>
<path d="M468.178 451.501C465.583 452.738 462.672 453.144 459.838 452.664C457.003 452.184 454.382 450.842 452.328 448.819C451.074 447.619 450.072 446.179 449.379 444.585C448.686 442.991 448.316 441.274 448.292 439.536C448.287 438.965 448.321 438.394 448.395 437.828L448.53 436.763L449.545 437.25C451.888 438.373 454.404 439.087 456.985 439.36L457.668 439.434L457.732 440.092C457.83 441.028 458.253 441.899 458.929 442.552C459.547 443.162 460.336 443.566 461.19 443.711C462.043 443.856 462.92 443.734 463.701 443.362C464.059 443.189 464.388 442.961 464.677 442.687L479.904 428.249C480.277 427.899 480.573 427.475 480.774 427.003C480.975 426.531 481.075 426.022 481.07 425.508C481.062 424.985 480.95 424.467 480.741 423.987C480.532 423.507 480.23 423.073 479.853 422.71C479.234 422.101 478.445 421.696 477.591 421.551C476.737 421.406 475.86 421.528 475.079 421.9C474.721 422.073 474.393 422.301 474.104 422.574L468.294 428.085C467.338 428.99 466.25 429.742 465.068 430.315C462.473 431.551 459.563 431.957 456.728 431.477C453.894 430.998 451.272 429.656 449.218 427.633C447.965 426.432 446.962 424.993 446.269 423.399C445.576 421.804 445.206 420.088 445.182 418.35C445.161 416.645 445.494 414.956 446.16 413.39C446.826 411.824 447.81 410.415 449.049 409.254L464.274 394.815C465.23 393.91 466.319 393.157 467.502 392.583C470.097 391.347 473.008 390.941 475.842 391.421C478.676 391.9 481.298 393.242 483.352 395.265C484.605 396.466 485.608 397.906 486.301 399.5C486.994 401.094 487.364 402.81 487.388 404.549C487.392 405.12 487.358 405.691 487.285 406.257L487.15 407.321L486.136 406.836C483.792 405.711 481.276 404.997 478.694 404.724L478.012 404.65L477.947 403.992C477.849 403.056 477.426 402.185 476.751 401.532C476.133 400.922 475.343 400.518 474.49 400.373C473.637 400.228 472.76 400.35 471.978 400.722C471.621 400.896 471.292 401.123 471.003 401.397L455.776 415.836C455.403 416.185 455.106 416.61 454.906 417.081C454.705 417.553 454.605 418.062 454.611 418.575C454.619 419.099 454.73 419.616 454.939 420.097C455.147 420.578 455.449 421.012 455.827 421.374C456.445 421.983 457.235 422.388 458.088 422.533C458.942 422.678 459.819 422.556 460.601 422.184C460.959 422.011 461.288 421.783 461.577 421.509L467.386 416C468.341 415.095 469.429 414.343 470.612 413.769C473.206 412.533 476.117 412.127 478.952 412.607C481.786 413.086 484.407 414.428 486.462 416.452C487.715 417.652 488.718 419.092 489.411 420.686C490.104 422.28 490.473 423.996 490.498 425.735C490.519 427.439 490.186 429.128 489.52 430.695C488.854 432.261 487.87 433.67 486.631 434.831L471.406 449.269C470.45 450.175 469.361 450.928 468.177 451.502" fill="white"/>
</g>
<line x1="293.737" y1="256.588" x2="452.382" y2="220.58" stroke="#868686" stroke-width="3"/>
<g filter="url(#filter9_d)">
<circle cx="473.013" cy="214.612" r="57" transform="rotate(122.403 473.013 214.612)" fill="#EFEFEF"/>
</g>
<g filter="url(#filter10_d)">
<path d="M473.566 251C472.608 251 471.667 250.749 470.837 250.27L462.148 245.132C460.846 244.409 461.497 244.149 461.914 243.998C463.286 243.57 464.599 242.971 465.822 242.214C465.925 242.165 466.04 242.143 466.154 242.152C466.269 242.162 466.379 242.201 466.473 242.266L473.142 246.226C473.266 246.293 473.405 246.328 473.546 246.328C473.687 246.328 473.826 246.293 473.95 246.226L499.969 231.207C500.091 231.134 500.191 231.031 500.261 230.907C500.33 230.784 500.367 230.645 500.367 230.503V200.479C500.367 200.334 500.33 200.193 500.259 200.067C500.188 199.941 500.086 199.836 499.963 199.762L473.956 184.782C473.835 184.712 473.696 184.675 473.556 184.675C473.415 184.675 473.277 184.712 473.155 184.782L447.149 199.762C447.024 199.836 446.921 199.94 446.849 200.066C446.777 200.192 446.739 200.334 446.739 200.479V230.503C446.738 230.646 446.776 230.785 446.848 230.908C446.921 231.031 447.024 231.132 447.149 231.2L454.274 235.317C458.143 237.27 460.514 234.972 460.514 232.711V203.038C460.514 202.939 460.533 202.841 460.571 202.75C460.609 202.659 460.665 202.576 460.735 202.506C460.806 202.437 460.889 202.382 460.98 202.344C461.072 202.307 461.17 202.288 461.269 202.289H464.565C464.664 202.288 464.762 202.307 464.853 202.344C464.945 202.382 465.028 202.437 465.099 202.506C465.169 202.576 465.225 202.659 465.263 202.75C465.301 202.841 465.32 202.939 465.32 203.038V232.685C465.32 237.85 462.513 240.807 457.615 240.807C456.111 240.807 454.932 240.807 451.623 239.179L444.798 235.271C443.968 234.786 443.28 234.093 442.802 233.26C442.323 232.427 442.07 231.484 442.069 230.523V200.498C442.069 199.538 442.321 198.595 442.8 197.763C443.279 196.931 443.968 196.239 444.798 195.757L470.804 180.699C471.643 180.24 472.584 180 473.54 180C474.496 180 475.436 180.24 476.275 180.699L502.295 195.737C503.124 196.22 503.813 196.912 504.292 197.744C504.77 198.576 505.023 199.519 505.024 200.479V230.503C505.021 231.464 504.768 232.407 504.29 233.24C503.811 234.073 503.123 234.766 502.295 235.251L476.275 250.27C475.451 250.745 474.517 250.996 473.566 251Z" fill="#6DA25D"/>
<path d="M481.57 230.315C470.186 230.315 467.802 225.104 467.802 220.708C467.801 220.609 467.82 220.512 467.857 220.42C467.894 220.329 467.949 220.246 468.019 220.176C468.089 220.107 468.172 220.051 468.263 220.014C468.354 219.977 468.452 219.958 468.551 219.959H471.918C472.101 219.957 472.278 220.023 472.416 220.143C472.554 220.263 472.643 220.429 472.667 220.61C473.175 224.036 474.686 225.768 481.57 225.768C487.054 225.768 489.386 224.525 489.386 221.62C489.386 219.94 488.735 218.695 480.209 217.862C473.09 217.158 468.688 215.582 468.688 209.89C468.688 204.64 473.11 201.508 480.528 201.508C488.865 201.508 492.988 204.399 493.509 210.626C493.518 210.73 493.505 210.834 493.472 210.933C493.438 211.031 493.384 211.122 493.313 211.199C493.242 211.275 493.157 211.335 493.061 211.377C492.966 211.418 492.864 211.44 492.76 211.44H489.386C489.216 211.44 489.051 211.381 488.918 211.275C488.786 211.168 488.693 211.02 488.656 210.854C487.842 207.252 485.875 206.099 480.528 206.099C474.543 206.099 473.846 208.183 473.846 209.747C473.846 211.635 474.666 212.189 482.749 213.257C490.832 214.325 494.544 215.81 494.544 221.431C494.544 227.052 489.848 230.315 481.57 230.315Z" fill="#6DA25D"/>
</g>
<g filter="url(#filter11_d)">
<circle cx="275.569" cy="264.5" r="84.5" fill="white"/>
</g>
<path d="M253.596 284.871C252.845 284.871 252.088 284.612 251.471 284.086L230.223 265.994C229.49 265.369 229.069 264.457 229.069 263.493C229.069 262.531 229.492 261.619 230.223 260.994L251.471 242.902C252.85 241.725 254.923 241.892 256.099 243.272C257.274 244.653 257.109 246.726 255.727 247.9L237.417 263.493L255.727 279.086C257.109 280.262 257.274 282.335 256.099 283.714C255.449 284.479 254.525 284.871 253.596 284.871Z" fill="#5E5E5E"/>
<path d="M295.541 284.871C294.612 284.871 293.689 284.479 293.04 283.714C291.864 282.335 292.031 280.262 293.41 279.086L311.721 263.493L293.41 247.9C292.031 246.726 291.864 244.653 293.04 243.272C294.215 241.892 296.289 241.725 297.667 242.902L318.914 260.994C319.647 261.619 320.069 262.531 320.069 263.493C320.069 264.457 319.647 265.369 318.914 265.994L297.667 284.086C297.049 284.612 296.293 284.871 295.541 284.871V284.871Z" fill="#5E5E5E"/>
<path d="M267.047 298.441C266.822 298.441 266.595 298.417 266.366 298.369C264.592 297.995 263.456 296.253 263.83 294.479L277.072 231.607C277.445 229.833 279.186 228.697 280.962 229.071C282.735 229.445 283.871 231.186 283.498 232.961L270.256 295.833C269.929 297.38 268.566 298.441 267.047 298.441V298.441Z" fill="#5E5E5E"/>
<defs>
<filter id="filter0_d" x="66.0687" y="62" width="122" height="122" filterUnits="userSpaceOnUse" color-interpolation-filters="sRGB">
<feFlood flood-opacity="0" result="BackgroundImageFix"/>
<feColorMatrix in="SourceAlpha" type="matrix" values="0 0 0 0 0 0 0 0 0 0 0 0 0 0 0 0 0 0 127 0"/>
<feOffset dy="4"/>
<feGaussianBlur stdDeviation="2"/>
<feColorMatrix type="matrix" values="0 0 0 0 0 0 0 0 0 0 0 0 0 0 0 0 0 0 0.59 0"/>
<feBlend mode="normal" in2="BackgroundImageFix" result="effect1_dropShadow"/>
<feBlend mode="normal" in="SourceGraphic" in2="effect1_dropShadow" result="shape"/>
</filter>
<filter id="filter1_d" x="94.0687" y="86" width="65.027" height="73.3034" filterUnits="userSpaceOnUse" color-interpolation-filters="sRGB">
<feFlood flood-opacity="0" result="BackgroundImageFix"/>
<feColorMatrix in="SourceAlpha" type="matrix" values="0 0 0 0 0 0 0 0 0 0 0 0 0 0 0 0 0 0 127 0"/>
<feOffset dy="4"/>
<feGaussianBlur stdDeviation="2"/>
<feColorMatrix type="matrix" values="0 0 0 0 0 0 0 0 0 0 0 0 0 0 0 0 0 0 0.25 0"/>
<feBlend mode="normal" in2="BackgroundImageFix" result="effect1_dropShadow"/>
<feBlend mode="normal" in="SourceGraphic" in2="effect1_dropShadow" result="shape"/>
</filter>
<filter id="filter2_d" x="0" y="279.746" width="154.888" height="154.888" filterUnits="userSpaceOnUse" color-interpolation-filters="sRGB">
<feFlood flood-opacity="0" result="BackgroundImageFix"/>
<feColorMatrix in="SourceAlpha" type="matrix" values="0 0 0 0 0 0 0 0 0 0 0 0 0 0 0 0 0 0 127 0"/>
<feOffset dy="4"/>
<feGaussianBlur stdDeviation="2"/>
<feColorMatrix type="matrix" values="0 0 0 0 0 0 0 0 0 0 0 0 0 0 0 0 0 0 0.59 0"/>
<feBlend mode="normal" in2="BackgroundImageFix" result="effect1_dropShadow"/>
<feBlend mode="normal" in="SourceGraphic" in2="effect1_dropShadow" result="shape"/>
</filter>
<filter id="filter3_d" x="46.0638" y="322.601" width="62.0139" height="69.8532" filterUnits="userSpaceOnUse" color-interpolation-filters="sRGB">
<feFlood flood-opacity="0" result="BackgroundImageFix"/>
<feColorMatrix in="SourceAlpha" type="matrix" values="0 0 0 0 0 0 0 0 0 0 0 0 0 0 0 0 0 0 127 0"/>
<feOffset dy="4"/>
<feGaussianBlur stdDeviation="2"/>
<feColorMatrix type="matrix" values="0 0 0 0 0 0 0 0 0 0 0 0 0 0 0 0 0 0 0.25 0"/>
<feBlend mode="normal" in2="BackgroundImageFix" result="effect1_dropShadow"/>
<feBlend mode="normal" in="SourceGraphic" in2="effect1_dropShadow" result="shape"/>
</filter>
<filter id="filter4_d" x="280.406" y="0" width="154.662" height="154.662" filterUnits="userSpaceOnUse" color-interpolation-filters="sRGB">
<feFlood flood-opacity="0" result="BackgroundImageFix"/>
<feColorMatrix in="SourceAlpha" type="matrix" values="0 0 0 0 0 0 0 0 0 0 0 0 0 0 0 0 0 0 127 0"/>
<feOffset dy="4"/>
<feGaussianBlur stdDeviation="2"/>
<feColorMatrix type="matrix" values="0 0 0 0 0 0 0 0 0 0 0 0 0 0 0 0 0 0 0.59 0"/>
<feBlend mode="normal" in2="BackgroundImageFix" result="effect1_dropShadow"/>
<feBlend mode="normal" in="SourceGraphic" in2="effect1_dropShadow" result="shape"/>
</filter>
<filter id="filter5_d" x="321.069" y="40" width="74.1449" height="74.2546" filterUnits="userSpaceOnUse" color-interpolation-filters="sRGB">
<feFlood flood-opacity="0" result="BackgroundImageFix"/>
<feColorMatrix in="SourceAlpha" type="matrix" values="0 0 0 0 0 0 0 0 0 0 0 0 0 0 0 0 0 0 127 0"/>
<feOffset dy="4"/>
<feGaussianBlur stdDeviation="2"/>
<feColorMatrix type="matrix" values="0 0 0 0 0 0 0 0 0 0 0 0 0 0 0 0 0 0 0.25 0"/>
<feBlend mode="normal" in2="BackgroundImageFix" result="effect1_dropShadow"/>
<feBlend mode="normal" in="SourceGraphic" in2="effect1_dropShadow" result="shape"/>
</filter>
<filter id="filter6_d" x="184.434" y="367.468" width="168.785" height="168.785" filterUnits="userSpaceOnUse" color-interpolation-filters="sRGB">
<feFlood flood-opacity="0" result="BackgroundImageFix"/>
<feColorMatrix in="SourceAlpha" type="matrix" values="0 0 0 0 0 0 0 0 0 0 0 0 0 0 0 0 0 0 127 0"/>
<feOffset dy="4"/>
<feGaussianBlur stdDeviation="2"/>
<feColorMatrix type="matrix" values="0 0 0 0 0 0 0 0 0 0 0 0 0 0 0 0 0 0 0.59 0"/>
<feBlend mode="normal" in2="BackgroundImageFix" result="effect1_dropShadow"/>
<feBlend mode="normal" in="SourceGraphic" in2="effect1_dropShadow" result="shape"/>
</filter>
<filter id="filter7_d" x="400.762" y="356.401" width="133.519" height="133.519" filterUnits="userSpaceOnUse" color-interpolation-filters="sRGB">
<feFlood flood-opacity="0" result="BackgroundImageFix"/>
<feColorMatrix in="SourceAlpha" type="matrix" values="0 0 0 0 0 0 0 0 0 0 0 0 0 0 0 0 0 0 127 0"/>
<feOffset dy="4"/>
<feGaussianBlur stdDeviation="2"/>
<feColorMatrix type="matrix" values="0 0 0 0 0 0 0 0 0 0 0 0 0 0 0 0 0 0 0.59 0"/>
<feBlend mode="normal" in2="BackgroundImageFix" result="effect1_dropShadow"/>
<feBlend mode="normal" in="SourceGraphic" in2="effect1_dropShadow" result="shape"/>
</filter>
<filter id="filter8_d" x="425.671" y="378.654" width="84.338" height="94.7762" filterUnits="userSpaceOnUse" color-interpolation-filters="sRGB">
<feFlood flood-opacity="0" result="BackgroundImageFix"/>
<feColorMatrix in="SourceAlpha" type="matrix" values="0 0 0 0 0 0 0 0 0 0 0 0 0 0 0 0 0 0 127 0"/>
<feOffset dy="4"/>
<feGaussianBlur stdDeviation="2"/>
<feColorMatrix type="matrix" values="0 0 0 0 0 0 0 0 0 0 0 0 0 0 0 0 0 0 0.25 0"/>
<feBlend mode="normal" in2="BackgroundImageFix" result="effect1_dropShadow"/>
<feBlend mode="normal" in="SourceGraphic" in2="effect1_dropShadow" result="shape"/>
</filter>
<filter id="filter9_d" x="390.344" y="135.943" width="165.339" height="165.339" filterUnits="userSpaceOnUse" color-interpolation-filters="sRGB">
<feFlood flood-opacity="0" result="BackgroundImageFix"/>
<feColorMatrix in="SourceAlpha" type="matrix" values="0 0 0 0 0 0 0 0 0 0 0 0 0 0 0 0 0 0 127 0"/>
<feOffset dy="4"/>
<feGaussianBlur stdDeviation="2"/>
<feColorMatrix type="matrix" values="0 0 0 0 0 0 0 0 0 0 0 0 0 0 0 0 0 0 0.59 0"/>
<feBlend mode="normal" in2="BackgroundImageFix" result="effect1_dropShadow"/>
<feBlend mode="normal" in="SourceGraphic" in2="effect1_dropShadow" result="shape"/>
</filter>
<filter id="filter10_d" x="438.069" y="180" width="70.955" height="79" filterUnits="userSpaceOnUse" color-interpolation-filters="sRGB">
<feFlood flood-opacity="0" result="BackgroundImageFix"/>
<feColorMatrix in="SourceAlpha" type="matrix" values="0 0 0 0 0 0 0 0 0 0 0 0 0 0 0 0 0 0 127 0"/>
<feOffset dy="4"/>
<feGaussianBlur stdDeviation="2"/>
<feColorMatrix type="matrix" values="0 0 0 0 0 0 0 0 0 0 0 0 0 0 0 0 0 0 0.25 0"/>
<feBlend mode="normal" in2="BackgroundImageFix" result="effect1_dropShadow"/>
<feBlend mode="normal" in="SourceGraphic" in2="effect1_dropShadow" result="shape"/>
</filter>
<filter id="filter11_d" x="187.069" y="180" width="177" height="177" filterUnits="userSpaceOnUse" color-interpolation-filters="sRGB">
<feFlood flood-opacity="0" result="BackgroundImageFix"/>
<feColorMatrix in="SourceAlpha" type="matrix" values="0 0 0 0 0 0 0 0 0 0 0 0 0 0 0 0 0 0 127 0"/>
<feOffset dy="4"/>
<feGaussianBlur stdDeviation="2"/>
<feColorMatrix type="matrix" values="0 0 0 0 0 0 0 0 0 0 0 0 0 0 0 0 0 0 0.59 0"/>
<feBlend mode="normal" in2="BackgroundImageFix" result="effect1_dropShadow"/>
<feBlend mode="normal" in="SourceGraphic" in2="effect1_dropShadow" result="shape"/>
</filter>
</defs>
</svg>
