<svg width="3209" height="2980" viewBox="0 0 3209 2980" fill="none" xmlns="http://www.w3.org/2000/svg">
<line x1="1307.61" y1="1646.69" x2="493.791" y2="1891.48" stroke="#DDDDDD" stroke-width="3"/>
<g filter="url(#filter0_d)">
<circle cx="428.072" cy="1889.11" r="285.77" transform="rotate(-56.4676 428.072 1889.11)" fill="#EFEFEF"/>
</g>
<g clip-path="url(#clip0)">
<path d="M307.372 2024.09L280.344 1721.06H577.344L550.286 2024.04L428.662 2057.74L307.372 2024.09Z" fill="#E44D26"/>
<path d="M428.844 2031.98L527.121 2004.75L550.245 1745.84H428.844V2031.98Z" fill="#F16529"/>
<path d="M428.844 1858.23H379.644L376.246 1820.17H428.844V1783.01H335.61L336.501 1792.98L345.64 1895.39H428.844V1858.23ZM428.844 1954.75L428.681 1954.79L387.272 1943.62L384.625 1913.98H347.301L352.511 1972.33L428.674 1993.46L428.844 1993.42V1954.75Z" fill="#EBEBEB"/>
<path d="M428.715 1858.23V1895.39H474.5L470.183 1943.59L428.715 1954.78V1993.44L504.938 1972.33L505.496 1966.05L514.234 1868.21L515.142 1858.23H505.124H428.715ZM428.715 1783.01V1820.17H518.525L519.27 1811.82L520.964 1792.98L521.854 1783.01H428.715Z" fill="white"/>
</g>
<line x1="1781.88" y1="1770.79" x2="2425.58" y2="2238.14" stroke="#DDDDDD" stroke-width="3"/>
<g filter="url(#filter1_d)">
<circle cx="2481.34" cy="2271.83" r="285.77" transform="rotate(152.552 2481.34 2271.83)" fill="#EFEFEF"/>
</g>
<g clip-path="url(#clip1)">
<path d="M2604.79 2409.3L2481.07 2442.62L2357.36 2409.3L2328.81 2099.93H2633.34L2604.79 2409.3Z" fill="#2062AF"/>
<path d="M2481.07 2124.99V2416.04L2481.35 2416.12L2581.47 2389.15L2604.58 2124.99H2481.07Z" fill="#3C9CD7"/>
<path d="M2480.96 2202.34L2392.42 2239.23L2395.35 2275.75L2480.96 2239.14L2572.03 2200.19L2575.81 2162.83L2480.96 2202.34Z" fill="white"/>
<path d="M2392.42 2239.23L2395.35 2275.75L2480.96 2239.14V2202.34L2392.42 2239.23Z" fill="url(#paint0_linear)"/>
<path d="M2575.81 2162.83L2480.96 2202.34V2239.14L2572.03 2200.19L2575.81 2162.83Z" fill="url(#paint1_linear)"/>
<path d="M2392.55 2239.23L2395.49 2275.75L2526.85 2276.17L2523.91 2324.86L2480.69 2337.04L2439.13 2326.54L2436.62 2296.32H2398.01L2403.04 2354.67L2481.1 2377.75L2558.74 2355.08L2568.81 2239.23H2392.55Z" fill="url(#paint2_linear)"/>
<path opacity="0.05" d="M2480.96 2239.23H2392.42L2395.35 2275.75L2480.96 2276.02V2239.23ZM2480.96 2336.92L2480.54 2337.04L2439 2326.54L2436.48 2296.32H2397.87L2402.91 2354.67L2480.96 2377.75V2336.92Z" fill="black"/>
<path d="M2384.44 2162.83H2575.81L2572.03 2200.19H2389.06L2384.44 2162.83Z" fill="url(#paint3_linear)"/>
<path opacity="0.05" d="M2480.96 2162.83H2384.44L2389.06 2200.19H2480.96V2162.83Z" fill="black"/>
</g>
<line x1="2756.92" y1="1664.9" x2="1707.91" y2="1602.59" stroke="#DDDDDD" stroke-width="3"/>
<g filter="url(#filter2_d)">
<circle cx="2836.22" cy="1663.61" r="285.77" transform="rotate(-69.3417 2836.22 1663.61)" fill="#EFEFEF"/>
</g>
<g clip-path="url(#clip2)">
<path d="M2836.49 1504.84H2771.33L2836.49 1658.98" fill="#1697F6"/>
<path d="M2836.49 1704.21V1823.84L2697.01 1551.35H2770.08L2836.49 1704.21ZM2836.49 1504.84H2901.65L2836.49 1658.98" fill="#7BC6FF"/>
<path d="M2902.88 1551.35H2975.95L2836.49 1823.84V1704.21L2902.88 1551.35Z" fill="#AEDDFF"/>
</g>
<line x1="2124.9" y1="572.669" x2="1472.37" y2="1586.13" stroke="#DDDDDD" stroke-width="3"/>
<g filter="url(#filter3_d)">
<circle cx="2197.93" cy="495.623" r="285.77" transform="rotate(-127.436 2197.93 495.623)" fill="#EFEFEF"/>
</g>
<g clip-path="url(#clip3)">
<path d="M2225.65 430.872L2212.34 453.94L2166.81 375.03L2027.05 617.237L2121.68 617.237C2121.68 629.977 2132 640.305 2144.73 640.305L2027.05 640.305C2018.82 640.305 2011.21 635.906 2007.09 628.769C2002.98 621.632 2002.98 612.84 2007.09 605.704L2146.85 363.496C2150.97 356.359 2158.58 351.962 2166.82 351.962C2175.05 351.962 2182.66 356.359 2186.78 363.496L2225.65 430.872V430.872Z" fill="#00C58E"/>
<path d="M2326.54 605.703L2238.97 453.939L2225.65 430.872L2212.34 453.939L2124.77 605.703C2120.66 612.84 2120.66 621.632 2124.77 628.769C2128.89 635.906 2136.5 640.304 2144.73 640.304L2306.56 640.304C2314.79 640.304 2322.4 635.91 2326.52 628.773C2330.64 621.636 2330.64 612.841 2326.52 605.703L2326.54 605.703ZM2144.73 617.237L2225.65 477.007L2306.56 617.237L2144.73 617.237L2144.73 617.237Z" fill="#2F495E"/>
<path d="M2389.16 628.771C2385.04 635.907 2377.43 640.305 2369.2 640.305L2306.56 640.305C2319.29 640.305 2329.61 629.977 2329.61 617.238L2369.15 617.238L2256.95 422.77L2238.97 453.94L2225.65 430.873L2236.99 411.236C2241.11 404.099 2248.72 399.702 2256.95 399.702C2265.19 399.702 2272.8 404.099 2276.92 411.236L2389.16 605.704C2393.28 612.841 2393.28 621.634 2389.16 628.771V628.771Z" fill="#108775"/>
</g>
<line x1="1485.36" y1="1201.04" x2="1469.5" y2="570.042" stroke="#DDDDDD" stroke-width="3"/>
<g filter="url(#filter4_d)">
<circle cx="1470.64" cy="367.645" r="285.77" transform="rotate(69.5363 1470.64 367.645)" fill="#EFEFEF"/>
</g>
<g clip-path="url(#clip4)">
<path d="M1303.74 200.998L1637.74 200.998L1637.74 534.998L1303.74 534.998L1303.74 200.998Z" fill="#F7DF1E"/>
<path d="M1391.56 480.113L1417.12 464.644C1422.05 473.387 1426.53 480.785 1437.29 480.785C1447.61 480.785 1454.11 476.751 1454.11 461.058L1454.11 354.337L1485.5 354.337L1485.5 461.501C1485.5 494.01 1466.44 508.808 1438.64 508.808C1413.53 508.808 1398.96 495.804 1391.56 480.11" fill="black"/>
<path d="M1502.55 476.75L1528.1 461.953C1534.83 472.94 1543.57 481.011 1559.04 481.011C1572.05 481.011 1580.34 474.508 1580.34 465.54C1580.34 454.779 1571.82 450.966 1557.47 444.691L1549.63 441.326C1526.98 431.687 1511.96 419.579 1511.96 394.021C1511.96 370.479 1529.9 352.542 1557.92 352.542C1577.88 352.542 1592.23 359.493 1602.54 377.653L1578.1 393.347C1572.72 383.707 1566.89 379.896 1557.92 379.896C1548.73 379.896 1542.9 385.725 1542.9 393.347C1542.9 402.763 1548.73 406.576 1562.18 412.406L1570.03 415.768C1596.71 427.204 1611.73 438.86 1611.73 465.091C1611.73 493.343 1589.53 508.811 1559.72 508.811C1530.57 508.811 1511.74 494.911 1502.55 476.75Z" fill="black"/>
</g>
<line x1="1424.83" y1="1400.93" x2="844.826" y2="669.932" stroke="#DDDDDD" stroke-width="3"/>
<g filter="url(#filter5_d)">
<circle cx="744.409" cy="502.409" r="285.77" transform="rotate(32.4013 744.409 502.409)" fill="#EFEFEF"/>
</g>
<g clip-path="url(#clip5)">
<path d="M577 502.005L577 669L911 669L911 335L577 335L577 502.005ZM846.159 488.698C854.639 490.817 861.111 494.584 867.049 500.732C870.128 504.019 874.684 510.01 875.054 511.441C875.159 511.858 860.636 521.617 851.832 527.081C851.519 527.289 850.24 525.917 848.805 523.793C844.51 517.531 840.007 514.833 833.112 514.357C822.989 513.669 816.413 518.971 816.518 527.822C816.518 530.421 816.883 531.955 817.947 534.084C820.176 538.697 824.314 541.452 837.298 547.078C861.21 557.359 871.438 564.143 877.794 573.797C884.892 584.558 886.488 601.738 881.667 614.513C876.364 628.405 863.218 637.84 844.719 640.971C838.994 641.978 825.421 641.822 819.273 640.71C805.861 638.325 793.138 631.697 785.29 623.004C782.211 619.611 776.225 610.756 776.595 610.114C776.752 609.905 778.135 609.054 779.675 608.151L792.079 601.002L801.681 595.434L803.695 598.408C806.503 602.703 812.655 608.584 816.366 610.547C827.022 616.167 841.656 615.368 848.862 608.903C851.941 606.095 853.21 603.178 853.21 598.883C853.21 595.011 852.74 593.314 850.72 590.403C848.122 586.698 842.819 583.566 827.758 577.043C810.527 569.623 803.105 565.01 796.322 557.693C792.397 553.45 788.687 546.666 787.147 540.994C785.874 536.276 785.555 524.451 786.563 519.68C790.112 502.981 802.678 491.422 820.812 487.978C826.699 486.866 840.382 487.289 846.154 488.719L846.159 488.698ZM767.75 502.632L767.854 516.304L724.383 516.304L724.383 639.828L693.636 639.828L693.636 516.304L650.165 516.304L650.165 502.893L650.53 489.116C650.686 488.906 677.145 488.802 709.218 488.854L767.588 489.011L767.75 502.632Z" fill="#007ACC"/>
</g>
<line x1="1837.57" y1="1325.5" x2="2765.06" y2="1044.75" stroke="#DDDDDD" stroke-width="3"/>
<g filter="url(#filter6_d)">
<circle cx="2769.24" cy="987.989" r="285.77" transform="rotate(-130.789 2769.24 987.989)" fill="#EFEFEF"/>
</g>
<g clip-path="url(#clip6)">
<path d="M2878.19 831.347H2950.79L2769.28 1144.15L2587.78 831.347H2659.49H2726.62L2769.28 903.885L2811.05 831.347H2878.19Z" fill="#41B883"/>
<path d="M2587.78 831.347L2769.28 1144.15L2950.79 831.347H2878.19L2769.28 1019.05L2659.49 831.347H2587.78Z" fill="#41B883"/>
<path d="M2659.49 831.347L2769.28 1019.95L2878.19 831.347H2811.05L2769.28 903.885L2726.62 831.347H2659.49Z" fill="#35495E"/>
</g>
<line x1="1321.48" y1="1518.7" x2="430.734" y2="1202.71" stroke="#DDDDDD" stroke-width="3"/>
<g filter="url(#filter7_d)">
<circle cx="335.091" cy="1151.29" r="285.77" transform="rotate(-10.0097 335.091 1151.29)" fill="#EFEFEF"/>
</g>
<g filter="url(#filter8_d)">
<path d="M234.684 1308.04C281.753 1348.22 353.048 1345.07 393.627 1301.02L464.888 1223.62C474.54 1213.27 481.929 1200.99 486.582 1187.59C491.236 1174.18 493.052 1159.94 491.914 1145.78C490.016 1121.91 480.25 1099.35 464.163 1081.65C468.56 1068.54 470.263 1054.66 469.169 1040.86C467.985 1026.42 463.943 1012.35 457.28 999.479C450.616 986.611 441.465 975.203 430.364 965.923C383.287 925.737 311.993 928.89 271.422 972.943L200.161 1050.34C190.508 1060.69 183.118 1072.97 178.465 1086.37C173.811 1099.78 171.996 1114.02 173.135 1128.18C175.033 1152.05 184.796 1174.61 200.879 1192.32C196.484 1205.42 194.783 1219.3 195.878 1233.1C197.061 1247.55 201.102 1261.61 207.766 1274.48C214.429 1287.35 223.581 1298.76 234.683 1308.04" fill="#FF3E00"/>
<path d="M320.836 989.741C333.393 982.676 347.816 979.659 362.157 981.096C376.497 982.534 390.065 988.357 401.027 997.779C407.704 1003.36 413.207 1010.22 417.215 1017.96C421.223 1025.7 423.654 1034.16 424.365 1042.84C424.584 1045.7 424.606 1048.57 424.43 1051.42L424.115 1056.79L418.875 1054.71C406.771 1049.88 393.942 1047.16 380.94 1046.67L377.5 1046.54L376.955 1043.26C376.15 1038.62 373.735 1034.4 370.136 1031.37C366.837 1028.53 362.752 1026.77 358.434 1026.34C354.115 1025.9 349.772 1026.81 345.989 1028.93C344.259 1029.92 342.69 1031.17 341.337 1032.64L270.072 1110.03C268.325 1111.91 266.986 1114.13 266.142 1116.56C265.298 1118.99 264.968 1121.57 265.171 1124.13C265.389 1126.75 266.123 1129.3 267.33 1131.63C268.538 1133.96 270.195 1136.03 272.205 1137.72C275.507 1140.56 279.593 1142.31 283.913 1142.75C288.233 1143.18 292.578 1142.27 296.362 1140.15C298.09 1139.16 299.657 1137.91 301.008 1136.45L328.2 1106.91C332.674 1102.06 337.861 1097.93 343.581 1094.66C356.138 1087.59 370.561 1084.58 384.902 1086.02C399.242 1087.45 412.809 1093.28 423.771 1102.7C430.448 1108.28 435.952 1115.14 439.96 1122.88C443.967 1130.62 446.398 1139.08 447.11 1147.76C447.794 1156.28 446.702 1164.84 443.903 1172.9C441.104 1180.96 436.66 1188.34 430.854 1194.57L359.598 1271.96C355.124 1276.81 349.933 1280.95 344.208 1284.22C331.651 1291.29 317.228 1294.3 302.888 1292.87C288.547 1291.43 274.98 1285.61 264.018 1276.18C257.341 1270.6 251.838 1263.74 247.83 1256C243.822 1248.27 241.391 1239.81 240.68 1231.12C240.463 1228.26 240.442 1225.4 240.615 1222.54L240.93 1217.17L246.167 1219.25C258.271 1224.08 271.102 1226.8 284.106 1227.29L287.545 1227.43L288.091 1230.7C288.899 1235.35 291.313 1239.56 294.909 1242.6C298.209 1245.44 302.294 1247.19 306.612 1247.63C310.93 1248.06 315.274 1247.16 319.056 1245.03C320.787 1244.04 322.356 1242.79 323.708 1241.32L394.973 1163.93C396.721 1162.06 398.059 1159.83 398.902 1157.41C399.745 1154.98 400.074 1152.4 399.868 1149.83C399.654 1147.22 398.922 1144.67 397.715 1142.33C396.508 1140 394.851 1137.93 392.84 1136.25C389.539 1133.41 385.452 1131.65 381.133 1131.22C376.813 1130.78 372.468 1131.69 368.683 1133.81C366.953 1134.8 365.385 1136.05 364.032 1137.52L336.842 1167.05C332.371 1171.9 327.185 1176.03 321.464 1179.3C308.907 1186.37 294.484 1189.39 280.144 1187.95C265.803 1186.51 252.236 1180.69 241.274 1171.27C234.597 1165.69 229.093 1158.83 225.086 1151.09C221.078 1143.35 218.647 1134.89 217.936 1126.2C217.252 1117.68 218.344 1109.12 221.143 1101.06C223.942 1093 228.385 1085.62 234.189 1079.39L305.447 1002C309.922 997.147 315.112 993.012 320.837 989.74" fill="white"/>
</g>
<line x1="1019.94" y1="2361.17" x2="1437.03" y2="1643.79" stroke="#DDDDDD" stroke-width="3"/>
<g filter="url(#filter9_d)">
<circle cx="964.842" cy="2527.38" r="285.77" transform="rotate(106.108 964.842 2527.38)" fill="#EFEFEF"/>
</g>
<g clip-path="url(#clip7)">
<path d="M1106.57 2549.57C1092.93 2549.65 1081.12 2552.92 1071.22 2557.79C1067.56 2550.56 1063.91 2544.25 1063.3 2539.54C1062.61 2534.06 1061.77 2530.71 1062.61 2524.18C1063.45 2517.64 1067.26 2508.36 1067.26 2507.6C1067.18 2506.91 1066.42 2503.57 1058.57 2503.49C1050.73 2503.42 1043.95 2505.01 1043.19 2507.07C1042.42 2509.12 1040.9 2513.83 1039.91 2518.7C1038.54 2525.85 1024.22 2551.17 1016.07 2564.48C1013.4 2559.31 1011.11 2554.74 1010.66 2551.09C1009.97 2545.62 1009.13 2542.27 1009.97 2535.73C1010.81 2529.19 1014.62 2519.92 1014.62 2519.16C1014.54 2518.47 1013.78 2515.13 1005.93 2515.05C998.089 2514.97 991.309 2516.57 990.546 2518.62C989.786 2520.68 988.947 2525.54 987.271 2530.26C985.67 2534.97 966.627 2577.25 961.674 2588.28C959.16 2593.91 956.952 2598.39 955.351 2601.43C953.751 2604.47 955.275 2601.66 955.123 2601.97C953.751 2604.55 952.99 2606 952.99 2606L952.99 2606.07C951.923 2607.97 950.78 2609.8 950.246 2609.8C949.865 2609.8 949.104 2604.7 950.399 2597.71C953.217 2583.03 960.074 2560.14 959.998 2559.31C959.998 2558.93 961.292 2554.9 955.579 2552.84C950.018 2550.79 948.038 2554.21 947.58 2554.21C947.123 2554.21 946.742 2555.43 946.742 2555.43C946.742 2555.43 952.913 2529.65 934.934 2529.65C923.66 2529.65 908.119 2541.89 900.425 2553.07C895.549 2555.73 885.189 2561.36 874.219 2567.37C870.029 2569.65 865.687 2572.08 861.573 2574.29L860.736 2573.37C838.949 2550.18 798.65 2533.76 800.326 2502.58C800.935 2491.25 804.896 2461.36 877.725 2425.17C937.374 2395.51 985.139 2403.65 993.441 2421.75C1005.25 2447.6 967.92 2495.66 905.911 2502.58C882.296 2505.24 869.877 2496.12 866.755 2492.69C863.479 2489.12 863.022 2488.97 861.803 2489.65C859.823 2490.72 861.041 2493.91 861.803 2495.81C863.632 2500.6 871.249 2509.12 884.2 2513.38C895.55 2517.1 923.28 2519.16 956.799 2506.23C994.357 2491.7 1023.68 2451.4 1015.08 2417.72C1006.32 2383.42 949.334 2372.17 895.475 2391.25C863.402 2402.66 828.664 2420.45 803.678 2443.8C773.967 2471.48 769.244 2495.66 771.225 2505.7C778.158 2541.51 827.598 2564.86 847.405 2582.12C846.414 2582.65 845.5 2583.18 844.662 2583.64C834.759 2588.5 797.05 2608.2 787.603 2629.04C776.938 2652.61 789.28 2669.57 797.507 2671.85C822.951 2678.92 849.004 2666.22 863.098 2645.31C877.114 2624.4 875.439 2597.25 868.963 2584.86L868.734 2584.4L876.504 2579.84C881.533 2576.87 886.485 2574.13 890.826 2571.78C888.389 2578.39 886.636 2586.22 885.723 2597.63C884.656 2611.01 890.141 2628.35 897.378 2635.2C900.578 2638.16 904.387 2638.24 906.749 2638.24C915.128 2638.24 918.937 2631.32 923.127 2623.03C928.307 2612.92 932.878 2601.2 932.878 2601.2C932.878 2601.2 927.165 2632.91 942.781 2632.91C948.495 2632.91 954.208 2625.54 956.799 2621.74L956.799 2621.81C956.799 2621.81 956.951 2621.58 957.256 2621.05C957.575 2620.58 957.88 2620.1 958.17 2619.61L958.17 2619.45C960.455 2615.5 965.558 2606.45 973.177 2591.47C983.004 2572.16 992.452 2547.98 992.452 2547.98C992.452 2547.98 993.365 2553.91 996.183 2563.64C997.859 2569.42 1001.51 2575.73 1004.33 2581.89C1002.05 2585.08 1000.68 2586.91 1000.68 2586.91L1000.75 2586.99C998.925 2589.42 996.867 2592 994.737 2594.59C986.966 2603.87 977.671 2614.44 976.452 2617.48C975.006 2621.05 975.309 2623.71 978.13 2625.84C980.186 2627.36 983.843 2627.67 987.728 2627.36C994.737 2626.91 999.611 2625.16 1002.05 2624.09C1005.86 2622.73 1010.2 2620.67 1014.39 2617.63C1022.01 2612 1026.66 2604.02 1026.2 2593.37C1025.97 2587.52 1024.06 2581.74 1021.7 2576.26C1022.39 2575.28 1023.08 2574.29 1023.76 2573.22C1035.8 2555.66 1045.09 2536.34 1045.09 2536.34C1045.09 2536.34 1046 2542.27 1048.82 2552.01C1050.27 2556.95 1053.17 2562.35 1055.76 2567.67C1044.48 2576.87 1037.4 2587.52 1034.96 2594.52C1030.46 2607.44 1033.97 2613.3 1040.6 2614.67C1043.57 2615.27 1047.83 2613.91 1051.03 2612.54C1054.99 2611.25 1059.79 2609.04 1064.21 2605.77C1071.83 2600.14 1079.14 2592.31 1078.76 2581.74C1078.53 2576.87 1077.24 2572.08 1075.49 2567.52C1085.09 2563.57 1097.5 2561.29 1113.27 2563.19C1147.17 2567.14 1153.88 2588.28 1152.58 2597.1C1151.29 2605.92 1144.2 2610.79 1141.84 2612.31C1139.48 2613.75 1138.72 2614.29 1138.94 2615.35C1139.25 2616.95 1140.32 2616.87 1142.37 2616.57C1145.19 2616.11 1160.2 2609.34 1160.81 2593.07C1161.72 2572.16 1141.84 2549.35 1106.57 2549.57ZM845.119 2637.55C833.921 2649.8 818.152 2654.43 811.448 2650.48C804.211 2646.3 807.029 2628.28 820.818 2615.27C829.198 2607.37 840.091 2600.07 847.252 2595.58C848.852 2594.59 851.29 2593.15 854.185 2591.4C854.642 2591.09 854.946 2590.94 854.946 2590.94C855.48 2590.63 856.089 2590.25 856.698 2589.87C861.802 2608.43 856.927 2624.7 845.119 2637.55ZM927.012 2581.97C923.127 2591.47 914.9 2615.88 909.948 2614.51C905.681 2613.37 903.092 2594.89 909.109 2576.64C912.156 2567.44 918.632 2556.49 922.441 2552.23C928.612 2545.39 935.315 2543.11 936.992 2545.92C938.973 2549.57 929.45 2576.04 927.012 2581.97ZM994.584 2614.21C992.908 2615.05 991.383 2615.65 990.699 2615.2C990.166 2614.89 991.383 2613.75 991.383 2613.75C991.383 2613.75 999.839 2604.7 1003.19 2600.52C1005.1 2598.09 1007.38 2595.28 1009.82 2592.08L1009.82 2592.99C1009.82 2603.94 999.308 2611.24 994.584 2614.21ZM1046.69 2602.35C1045.47 2601.43 1045.62 2598.62 1049.74 2589.8C1051.34 2586.3 1054.99 2580.45 1061.32 2574.89C1062.08 2577.18 1062.54 2579.38 1062.46 2581.43C1062.38 2595.12 1052.63 2600.22 1046.69 2602.35Z" fill="#CF649A"/>
</g>
<line x1="1771.45" y1="2528.69" x2="1525.79" y2="1761.63" stroke="#DDDDDD" stroke-width="3"/>
<g filter="url(#filter10_d)">
<circle cx="1780.93" cy="2576.71" r="285.77" transform="rotate(122.403 1780.93 2576.71)" fill="#EFEFEF"/>
</g>
<path fill-rule="evenodd" clip-rule="evenodd" d="M1676.99 2536.01C1690.85 2480.67 1725.52 2453.01 1780.99 2453.01C1864.19 2453.01 1874.59 2515.26 1916.19 2525.63C1943.92 2532.55 1968.19 2522.17 1988.99 2494.51C1975.12 2549.84 1940.45 2577.51 1884.99 2577.51C1801.79 2577.51 1791.39 2515.26 1749.79 2504.88C1722.05 2497.96 1697.79 2508.34 1676.99 2536.01ZM1572.99 2660.51C1586.85 2605.17 1621.52 2577.51 1676.99 2577.51C1760.19 2577.51 1770.59 2639.76 1812.19 2650.13C1839.92 2657.05 1864.19 2646.67 1884.99 2619.01C1871.12 2674.34 1836.45 2702.01 1780.99 2702.01C1697.79 2702.01 1687.39 2639.76 1645.79 2629.38C1618.05 2622.46 1593.79 2632.84 1572.99 2660.51Z" fill="url(#paint4_linear)"/>
<g filter="url(#filter11_d)">
<circle cx="1484.94" cy="1543.07" r="423.641" fill="white"/>
</g>
<path d="M1374.78 1645.2C1371.02 1645.2 1367.22 1643.91 1364.13 1641.27L1257.6 1550.57C1253.93 1547.43 1251.82 1542.86 1251.82 1538.03C1251.82 1533.2 1253.94 1528.63 1257.6 1525.5L1364.13 1434.79C1371.05 1428.89 1381.44 1429.73 1387.33 1436.65C1393.22 1443.57 1392.39 1453.96 1385.47 1459.85L1293.67 1538.03L1385.47 1616.2C1392.39 1622.1 1393.22 1632.49 1387.33 1639.41C1384.07 1643.24 1379.44 1645.2 1374.78 1645.2Z" fill="#5E5E5E"/>
<path d="M1585.08 1645.2C1580.42 1645.2 1575.79 1643.24 1572.54 1639.41C1566.64 1632.49 1567.48 1622.1 1574.39 1616.2L1666.19 1538.03L1574.39 1459.85C1567.48 1453.96 1566.64 1443.57 1572.54 1436.65C1578.43 1429.73 1588.83 1428.89 1595.73 1434.79L1702.26 1525.5C1705.93 1528.63 1708.05 1533.2 1708.05 1538.03C1708.05 1542.86 1705.93 1547.43 1702.26 1550.57L1595.73 1641.27C1592.64 1643.91 1588.84 1645.2 1585.08 1645.2V1645.2Z" fill="#5E5E5E"/>
<path d="M1442.22 1713.24C1441.09 1713.24 1439.95 1713.12 1438.8 1712.88C1429.91 1711 1424.22 1702.27 1426.09 1693.37L1492.48 1378.16C1494.35 1369.27 1503.08 1363.58 1511.98 1365.45C1520.87 1367.32 1526.57 1376.05 1524.7 1384.95L1458.31 1700.16C1456.67 1707.92 1449.84 1713.24 1442.22 1713.24V1713.24Z" fill="#5E5E5E"/>
<defs>
<filter id="filter0_d" x="28" y="1493.04" width="800.144" height="800.144" filterUnits="userSpaceOnUse" color-interpolation-filters="sRGB">
<feFlood flood-opacity="0" result="BackgroundImageFix"/>
<feColorMatrix in="SourceAlpha" type="matrix" values="0 0 0 0 0 0 0 0 0 0 0 0 0 0 0 0 0 0 127 0"/>
<feOffset dy="4"/>
<feGaussianBlur stdDeviation="2"/>
<feColorMatrix type="matrix" values="0 0 0 0 0 0 0 0 0 0 0 0 0 0 0 0 0 0 0.59 0"/>
<feBlend mode="normal" in2="BackgroundImageFix" result="effect1_dropShadow"/>
<feBlend mode="normal" in="SourceGraphic" in2="effect1_dropShadow" result="shape"/>
</filter>
<filter id="filter1_d" x="2092.01" y="1886.51" width="778.648" height="778.648" filterUnits="userSpaceOnUse" color-interpolation-filters="sRGB">
<feFlood flood-opacity="0" result="BackgroundImageFix"/>
<feColorMatrix in="SourceAlpha" type="matrix" values="0 0 0 0 0 0 0 0 0 0 0 0 0 0 0 0 0 0 127 0"/>
<feOffset dy="4"/>
<feGaussianBlur stdDeviation="2"/>
<feColorMatrix type="matrix" values="0 0 0 0 0 0 0 0 0 0 0 0 0 0 0 0 0 0 0.59 0"/>
<feBlend mode="normal" in2="BackgroundImageFix" result="effect1_dropShadow"/>
<feBlend mode="normal" in="SourceGraphic" in2="effect1_dropShadow" result="shape"/>
</filter>
<filter id="filter2_d" x="2464.01" y="1295.4" width="744.426" height="744.426" filterUnits="userSpaceOnUse" color-interpolation-filters="sRGB">
<feFlood flood-opacity="0" result="BackgroundImageFix"/>
<feColorMatrix in="SourceAlpha" type="matrix" values="0 0 0 0 0 0 0 0 0 0 0 0 0 0 0 0 0 0 127 0"/>
<feOffset dy="4"/>
<feGaussianBlur stdDeviation="2"/>
<feColorMatrix type="matrix" values="0 0 0 0 0 0 0 0 0 0 0 0 0 0 0 0 0 0 0.59 0"/>
<feBlend mode="normal" in2="BackgroundImageFix" result="effect1_dropShadow"/>
<feBlend mode="normal" in="SourceGraphic" in2="effect1_dropShadow" result="shape"/>
</filter>
<filter id="filter3_d" x="1793.31" y="95.001" width="809.246" height="809.246" filterUnits="userSpaceOnUse" color-interpolation-filters="sRGB">
<feFlood flood-opacity="0" result="BackgroundImageFix"/>
<feColorMatrix in="SourceAlpha" type="matrix" values="0 0 0 0 0 0 0 0 0 0 0 0 0 0 0 0 0 0 127 0"/>
<feOffset dy="4"/>
<feGaussianBlur stdDeviation="2"/>
<feColorMatrix type="matrix" values="0 0 0 0 0 0 0 0 0 0 0 0 0 0 0 0 0 0 0.59 0"/>
<feBlend mode="normal" in2="BackgroundImageFix" result="effect1_dropShadow"/>
<feBlend mode="normal" in="SourceGraphic" in2="effect1_dropShadow" result="shape"/>
</filter>
<filter id="filter4_d" x="1099" y="0" width="743.291" height="743.291" filterUnits="userSpaceOnUse" color-interpolation-filters="sRGB">
<feFlood flood-opacity="0" result="BackgroundImageFix"/>
<feColorMatrix in="SourceAlpha" type="matrix" values="0 0 0 0 0 0 0 0 0 0 0 0 0 0 0 0 0 0 127 0"/>
<feOffset dy="4"/>
<feGaussianBlur stdDeviation="2"/>
<feColorMatrix type="matrix" values="0 0 0 0 0 0 0 0 0 0 0 0 0 0 0 0 0 0 0.59 0"/>
<feBlend mode="normal" in2="BackgroundImageFix" result="effect1_dropShadow"/>
<feBlend mode="normal" in="SourceGraphic" in2="effect1_dropShadow" result="shape"/>
</filter>
<filter id="filter5_d" x="346" y="108" width="796.818" height="796.818" filterUnits="userSpaceOnUse" color-interpolation-filters="sRGB">
<feFlood flood-opacity="0" result="BackgroundImageFix"/>
<feColorMatrix in="SourceAlpha" type="matrix" values="0 0 0 0 0 0 0 0 0 0 0 0 0 0 0 0 0 0 127 0"/>
<feOffset dy="4"/>
<feGaussianBlur stdDeviation="2"/>
<feColorMatrix type="matrix" values="0 0 0 0 0 0 0 0 0 0 0 0 0 0 0 0 0 0 0.59 0"/>
<feBlend mode="normal" in2="BackgroundImageFix" result="effect1_dropShadow"/>
<feBlend mode="normal" in="SourceGraphic" in2="effect1_dropShadow" result="shape"/>
</filter>
<filter id="filter6_d" x="2362.19" y="584.94" width="814.097" height="814.097" filterUnits="userSpaceOnUse" color-interpolation-filters="sRGB">
<feFlood flood-opacity="0" result="BackgroundImageFix"/>
<feColorMatrix in="SourceAlpha" type="matrix" values="0 0 0 0 0 0 0 0 0 0 0 0 0 0 0 0 0 0 127 0"/>
<feOffset dy="4"/>
<feGaussianBlur stdDeviation="2"/>
<feColorMatrix type="matrix" values="0 0 0 0 0 0 0 0 0 0 0 0 0 0 0 0 0 0 0.59 0"/>
<feBlend mode="normal" in2="BackgroundImageFix" result="effect1_dropShadow"/>
<feBlend mode="normal" in="SourceGraphic" in2="effect1_dropShadow" result="shape"/>
</filter>
<filter id="filter7_d" x="0" y="820.195" width="670.182" height="670.182" filterUnits="userSpaceOnUse" color-interpolation-filters="sRGB">
<feFlood flood-opacity="0" result="BackgroundImageFix"/>
<feColorMatrix in="SourceAlpha" type="matrix" values="0 0 0 0 0 0 0 0 0 0 0 0 0 0 0 0 0 0 127 0"/>
<feOffset dy="4"/>
<feGaussianBlur stdDeviation="2"/>
<feColorMatrix type="matrix" values="0 0 0 0 0 0 0 0 0 0 0 0 0 0 0 0 0 0 0.59 0"/>
<feBlend mode="normal" in2="BackgroundImageFix" result="effect1_dropShadow"/>
<feBlend mode="normal" in="SourceGraphic" in2="effect1_dropShadow" result="shape"/>
</filter>
<filter id="filter8_d" x="126.903" y="911.864" width="411.24" height="458.233" filterUnits="userSpaceOnUse" color-interpolation-filters="sRGB">
<feFlood flood-opacity="0" result="BackgroundImageFix"/>
<feColorMatrix in="SourceAlpha" type="matrix" values="0 0 0 0 0 0 0 0 0 0 0 0 0 0 0 0 0 0 127 0"/>
<feOffset dy="4"/>
<feGaussianBlur stdDeviation="2"/>
<feColorMatrix type="matrix" values="0 0 0 0 0 0 0 0 0 0 0 0 0 0 0 0 0 0 0.25 0"/>
<feBlend mode="normal" in2="BackgroundImageFix" result="effect1_dropShadow"/>
<feBlend mode="normal" in="SourceGraphic" in2="effect1_dropShadow" result="shape"/>
</filter>
<filter id="filter9_d" x="607.004" y="2173.54" width="715.677" height="715.677" filterUnits="userSpaceOnUse" color-interpolation-filters="sRGB">
<feFlood flood-opacity="0" result="BackgroundImageFix"/>
<feColorMatrix in="SourceAlpha" type="matrix" values="0 0 0 0 0 0 0 0 0 0 0 0 0 0 0 0 0 0 127 0"/>
<feOffset dy="4"/>
<feGaussianBlur stdDeviation="2"/>
<feColorMatrix type="matrix" values="0 0 0 0 0 0 0 0 0 0 0 0 0 0 0 0 0 0 0.59 0"/>
<feBlend mode="normal" in2="BackgroundImageFix" result="effect1_dropShadow"/>
<feBlend mode="normal" in="SourceGraphic" in2="effect1_dropShadow" result="shape"/>
</filter>
<filter id="filter10_d" x="1382.52" y="2182.3" width="796.822" height="796.822" filterUnits="userSpaceOnUse" color-interpolation-filters="sRGB">
<feFlood flood-opacity="0" result="BackgroundImageFix"/>
<feColorMatrix in="SourceAlpha" type="matrix" values="0 0 0 0 0 0 0 0 0 0 0 0 0 0 0 0 0 0 127 0"/>
<feOffset dy="4"/>
<feGaussianBlur stdDeviation="2"/>
<feColorMatrix type="matrix" values="0 0 0 0 0 0 0 0 0 0 0 0 0 0 0 0 0 0 0.59 0"/>
<feBlend mode="normal" in2="BackgroundImageFix" result="effect1_dropShadow"/>
<feBlend mode="normal" in="SourceGraphic" in2="effect1_dropShadow" result="shape"/>
</filter>
<filter id="filter11_d" x="1057.3" y="1119.43" width="855.283" height="855.283" filterUnits="userSpaceOnUse" color-interpolation-filters="sRGB">
<feFlood flood-opacity="0" result="BackgroundImageFix"/>
<feColorMatrix in="SourceAlpha" type="matrix" values="0 0 0 0 0 0 0 0 0 0 0 0 0 0 0 0 0 0 127 0"/>
<feOffset dy="4"/>
<feGaussianBlur stdDeviation="2"/>
<feColorMatrix type="matrix" values="0 0 0 0 0 0 0 0 0 0 0 0 0 0 0 0 0 0 0.59 0"/>
<feBlend mode="normal" in2="BackgroundImageFix" result="effect1_dropShadow"/>
<feBlend mode="normal" in="SourceGraphic" in2="effect1_dropShadow" result="shape"/>
</filter>
<linearGradient id="paint0_linear" x1="2436.69" y1="2275.75" x2="2436.69" y2="2202.35" gradientUnits="userSpaceOnUse">
<stop offset="0.387" stop-color="#D1D3D4" stop-opacity="0"/>
<stop offset="1" stop-color="#D1D3D4"/>
</linearGradient>
<linearGradient id="paint1_linear" x1="2528.38" y1="2239.14" x2="2528.38" y2="2162.84" gradientUnits="userSpaceOnUse">
<stop offset="0.387" stop-color="#D1D3D4" stop-opacity="0"/>
<stop offset="1" stop-color="#D1D3D4"/>
</linearGradient>
<linearGradient id="paint2_linear" x1="2392.55" y1="2308.49" x2="2568.81" y2="2308.49" gradientUnits="userSpaceOnUse">
<stop stop-color="#E8E7E5"/>
<stop offset="1" stop-color="white"/>
</linearGradient>
<linearGradient id="paint3_linear" x1="2384.44" y1="2181.51" x2="2575.81" y2="2181.51" gradientUnits="userSpaceOnUse">
<stop stop-color="#E8E7E5"/>
<stop offset="1" stop-color="white"/>
</linearGradient>
<linearGradient id="paint4_linear" x1="1572.99" y1="2231.67" x2="1987.52" y2="2924.22" gradientUnits="userSpaceOnUse">
<stop stop-color="#2383AE"/>
<stop offset="1" stop-color="#6DD7B9"/>
</linearGradient>
<clipPath id="clip0">
<rect width="297" height="337" fill="white" transform="translate(280.344 1721.06)"/>
</clipPath>
<clipPath id="clip1">
<rect width="305" height="343" fill="white" transform="translate(2328.81 2099.93)"/>
</clipPath>
<clipPath id="clip2">
<rect width="279" height="319" fill="white" transform="translate(2697.01 1504.84)"/>
</clipPath>
<clipPath id="clip3">
<rect width="389" height="290" fill="white" transform="translate(2004 351.001)"/>
</clipPath>
<clipPath id="clip4">
<rect width="334" height="334" fill="white" transform="translate(1303.74 200.998)"/>
</clipPath>
<clipPath id="clip5">
<rect width="334" height="334" fill="white" transform="translate(577 335)"/>
</clipPath>
<clipPath id="clip6">
<rect width="364" height="314" fill="white" transform="translate(2587.28 830.75)"/>
</clipPath>
<clipPath id="clip7">
<rect width="392" height="292" fill="white" transform="translate(768.96 2381.82)"/>
</clipPath>
</defs>
</svg>
