<svg width="16" height="16" fill="none" xmlns="http://www.w3.org/2000/svg"><path d="M11.55 0h-7.1A4.44 4.44 0 000 4.45v7.1A4.44 4.44 0 004.45 16h7.1A4.44 4.44 0 0016 11.55v-7.1A4.44 4.44 0 0011.55 0zm3.03 11.55a3 3 0 01-3.03 3.03h-7.1a3 3 0 01-3.03-3.03v-7.1a3 3 0 013.03-3.03h7.1a3 3 0 013.03 3.03v7.1z" fill="#FDFDFD"/><path d="M8.05 3.88a4.17 4.17 0 10-1.26 8.24 4.17 4.17 0 001.26-8.24zm0 6.82a2.75 2.75 0 11-1.02-5.4 2.75 2.75 0 011.02 5.4zm4.26-8.05a1.04 1.04 0 000 2.08c.28 0 .57-.1.75-.28a1.04 1.04 0 00-.75-1.8z" fill="#FDFDFD"/></svg>