<svg width="122" height="120" fill="none" xmlns="http://www.w3.org/2000/svg"><ellipse cx="60.9" cy="60" rx="60.3" ry="60" fill="#BB7B00"/><path d="M32 44.3c8.3 5.8 22.8 16 27 19.2a3 3 0 001.9.7 3 3 0 001.8-.7c4.3-3.2 18.8-13.4 27-19.2.6-.4.7-1 .2-1.4-1-1-2.4-1.6-3.9-1.6H35.8c-1.6 0-3 .5-4 1.6-.4.4-.3 1 .2 1.4z" fill="#fff"/><path d="M90.3 47.4c-.5-.1-1 0-1.3.2C79.8 54 68 62.3 64.4 65c-2 1.5-5 1.5-7 0-4-3-17-12.2-24.6-17.5-.3-.3-.9-.3-1.3-.2-.5.2-.7.6-.7 1v26.2c0 2.3 2.2 4.2 5 4.2H86c2.8 0 5-2 5-4.2V48.4c0-.4-.3-.8-.7-1z" fill="#fff"/></svg>