<svg width="121" height="120" fill="none" xmlns="http://www.w3.org/2000/svg"><ellipse cx="60.4" cy="60" rx="60.3" ry="60" fill="#1C8E00"/><path d="M43.8 51c.2 3.2.8 7.4 2.2 11.8 2.8 9.4 7.8 16 15 19.9 7-3.8 12-10.5 14.9-20a54 54 0 002.2-11.6l-17.2-8.6-17.1 8.6z" fill="#fff"/><path d="M89.7 45.2c0-.7-.4-1.3-1-1.6l-27-13.4a2 2 0 00-1.6 0L33 43.6c-.5.3-1 1-1 1.6 0 .4-.4 9.7 2.7 20.4 2 6.4 4.7 12 8.2 16.6A38.9 38.9 0 0061 95l.6-.1c6.9-2.6 12.7-7 17.2-12.7A49.8 49.8 0 0087 65.6c3.2-10.7 2.7-20 2.7-20.4zm-28 41.3a2 2 0 01-1.6 0 35 35 0 01-17.8-22.6 62 62 0 01-2.4-13.8c-.1-.8.3-1.5 1-1.8l19.2-9.6a2 2 0 011.7 0l19.1 9.6c.7.3 1.1 1 1 1.8a62 62 0 01-2.4 13.8 35 35 0 01-17.7 22.6z" fill="#fff"/></svg>