<svg width="804" height="460" viewBox="0 0 804 460" fill="none" xmlns="http://www.w3.org/2000/svg">
<path d="M694.418 108.909C693.307 106.225 684.855 101.609 661.922 101.609C647.69 101.609 627.89 103.381 600.799 108.498C539.153 120.127 460.852 144.898 380.329 178.24C299.806 211.581 226.911 249.403 175.103 284.755C115.628 325.322 107.389 346.86 109.186 351.214C111.956 357.921 140.422 363.749 206.071 351.006C204.161 347.929 202.324 344.801 200.56 341.63C200.497 341.518 200.433 341.405 200.371 341.293C199.633 339.96 198.909 338.618 198.196 337.27C198.073 337.037 197.95 336.805 197.827 336.571C197.161 335.302 196.508 334.024 195.865 332.739C195.708 332.424 195.552 332.11 195.395 331.795C194.784 330.562 194.184 329.325 193.596 328.079C193.421 327.71 193.249 327.338 193.076 326.967C192.512 325.756 191.956 324.544 191.412 323.322C191.231 322.911 191.053 322.5 190.873 322.089C190.347 320.886 189.824 319.681 189.318 318.468C189.313 318.458 189.31 318.448 189.305 318.44C198.122 302.004 243.505 272.655 307.564 241.186C332.799 228.788 360.93 216.064 390.864 203.67C496.775 159.82 589.666 134.857 614.572 142.366C619.193 153.568 622.963 165.208 625.783 177.215C681.202 139.82 697.189 115.585 694.418 108.909Z" fill="#ABABAB"/>
<path d="M446.888 4.42751C448.364 4.7214 449.835 5.03286 451.3 5.35391C449.835 5.03286 448.364 4.7214 446.888 4.42751Z" fill="#23272F"/>
<path d="M457.522 6.80738C459.186 7.22266 460.842 7.65391 462.493 8.10592C460.845 7.65551 459.187 7.22266 457.522 6.80738Z" fill="#23272F"/>
<path d="M452.245 5.55994C453.811 5.91133 455.372 6.27869 456.925 6.66203C455.37 6.2803 453.811 5.90974 452.245 5.55994Z" fill="#23272F"/>
<path d="M631.828 234.591C631.857 233.063 631.885 231.533 631.885 229.998C631.885 228.742 631.85 227.498 631.829 226.248C631.81 226.26 631.792 226.272 631.773 226.283C631.691 221.325 631.434 216.415 631.031 211.545C631.055 211.529 631.077 211.514 631.102 211.499C630.136 199.831 628.292 188.416 625.639 177.31C625.689 177.277 625.737 177.243 625.787 177.209C622.965 165.201 619.196 153.559 614.576 142.36C589.669 134.852 496.779 159.815 390.866 203.664C360.933 216.057 332.802 228.782 307.567 241.179C303.976 257.324 302.066 274.103 302.066 291.329C302.066 357.084 329.717 416.347 373.976 458.265C333.926 453.44 297.048 438.328 266.049 415.668C266.03 415.672 266.011 415.676 265.992 415.682C304.054 443.538 350.989 459.997 401.779 459.997C516.846 459.997 612.183 375.575 629.186 265.319C629.078 265.384 628.973 265.45 628.864 265.513C630.44 255.382 631.566 245.1 631.828 234.591Z" fill="#23272F"/>
<path d="M537.488 44.256C515.257 28.001 490.001 15.6385 462.719 8.16663C489.975 15.6448 515.199 28.025 537.415 44.2735C537.439 44.2672 537.462 44.2608 537.488 44.256Z" fill="#23272F"/>
<path d="M435.972 2.52841C437.269 2.72167 438.559 2.93411 439.851 3.14813C438.559 2.93411 437.269 2.72167 435.972 2.52841Z" fill="#23272F"/>
<path d="M430.412 1.76812C431.629 1.91825 432.84 2.08917 434.05 2.26007C432.84 2.08917 431.63 1.91825 430.412 1.76812Z" fill="#23272F"/>
<path d="M424.8 1.13882C425.928 1.25063 427.048 1.3832 428.171 1.51097C427.048 1.3832 425.926 1.25063 424.8 1.13882Z" fill="#23272F"/>
<path d="M419.12 0.643684C420.153 0.720352 421.18 0.817783 422.211 0.908826C421.18 0.81938 420.153 0.721949 419.12 0.643684Z" fill="#23272F"/>
<path d="M407.609 0.0702744C408.329 0.0878438 409.045 0.124586 409.762 0.15014C409.045 0.124586 408.329 0.0878438 407.609 0.0702744Z" fill="#23272F"/>
<path d="M413.393 0.287498C414.308 0.333818 415.218 0.399298 416.13 0.455201C415.218 0.399298 414.307 0.333818 413.393 0.287498Z" fill="#23272F"/>
<path d="M441.47 3.41647C442.855 3.65765 444.234 3.9164 445.612 4.18153C444.234 3.91799 442.855 3.65765 441.47 3.41647Z" fill="#23272F"/>
<path d="M206.082 351.002C204.171 347.924 202.327 344.8 200.56 341.626C202.326 344.8 204.163 347.926 206.071 351.003C206.076 351.003 206.079 351.003 206.082 351.002Z" fill="#23272F"/>
<path d="M191.415 323.319C191.958 324.54 192.514 325.752 193.078 326.963C192.514 325.755 191.958 324.54 191.415 323.319Z" fill="#23272F"/>
<path d="M195.866 332.736C196.509 334.02 197.162 335.296 197.829 336.567C197.162 335.298 196.509 334.02 195.866 332.736Z" fill="#23272F"/>
<path d="M198.196 337.268C198.909 338.615 199.633 339.958 200.371 341.289C199.633 339.958 198.911 338.615 198.196 337.268Z" fill="#23272F"/>
<path d="M193.597 328.076C194.186 329.322 194.787 330.559 195.396 331.792C194.787 330.559 194.187 329.319 193.597 328.076Z" fill="#23272F"/>
<path d="M189.321 318.465C189.828 319.679 190.349 320.883 190.876 322.086C190.349 320.883 189.828 319.677 189.321 318.465Z" fill="#23272F"/>
<path d="M302.066 291.331C302.066 274.105 303.976 257.327 307.567 241.182C243.509 272.65 198.126 302 189.308 318.434C189.313 318.444 189.317 318.454 189.321 318.463C189.828 319.677 190.349 320.881 190.876 322.085C191.057 322.494 191.235 322.908 191.416 323.317C191.959 324.539 192.515 325.752 193.08 326.962C193.252 327.332 193.424 327.703 193.599 328.073C194.187 329.319 194.788 330.558 195.398 331.791C195.555 332.105 195.711 332.42 195.868 332.735C196.511 334.018 197.165 335.296 197.83 336.566C197.952 336.799 198.076 337.033 198.199 337.266C198.912 338.614 199.636 339.955 200.374 341.287C200.437 341.401 200.5 341.513 200.563 341.624C202.33 344.798 204.174 347.922 206.085 351C206.169 350.984 206.247 350.97 206.33 350.954C212.364 360.678 219.105 369.908 226.471 378.591C226.565 378.571 226.658 378.553 226.753 378.532C229.901 382.237 233.09 385.892 236.462 389.388C236.397 389.403 236.336 389.415 236.273 389.428C245.48 398.988 255.5 407.76 266.236 415.62C266.173 415.637 266.115 415.65 266.053 415.665C297.052 438.327 333.929 453.438 373.979 458.263C329.717 416.349 302.066 357.086 302.066 291.331Z" fill="#191C22"/>
<path d="M537.415 44.2735C515.199 28.025 489.975 15.6448 462.718 8.16662C462.644 8.14585 462.569 8.12669 462.493 8.10592C460.845 7.65551 459.187 7.22267 457.522 6.80738C457.322 6.75787 457.123 6.70995 456.925 6.66203C455.37 6.27869 453.811 5.91133 452.244 5.55994C451.929 5.48967 451.615 5.42418 451.3 5.3555C449.835 5.03286 448.364 4.72299 446.888 4.42911C446.463 4.34445 446.037 4.26619 445.611 4.18473C444.234 3.91799 442.855 3.65925 441.47 3.41967C440.93 3.32543 440.389 3.24077 439.851 3.15133C438.561 2.9357 437.269 2.72487 435.972 2.5316C435.333 2.43577 434.69 2.35272 434.051 2.26327C432.842 2.09397 431.63 1.92306 430.415 1.77133C429.668 1.67869 428.919 1.60042 428.171 1.51417C427.047 1.38639 425.928 1.25381 424.8 1.14201C423.938 1.05576 423.073 0.988683 422.211 0.912015C421.182 0.820974 420.154 0.723541 419.12 0.646875C418.126 0.573403 417.128 0.519091 416.13 0.458396C415.218 0.402493 414.308 0.337014 413.393 0.290694C412.186 0.23 410.974 0.194863 409.762 0.153335C409.045 0.129376 408.329 0.0926354 407.609 0.0734687C405.672 0.0255518 403.729 0 401.779 0C286.678 0 191.317 84.4709 174.356 194.775C227.835 162.506 288.909 132.027 350.595 106.49C414.807 79.8997 478.555 58.754 537.415 44.2735Z" fill="#191C22"/>
<path d="M799.697 65.258V65.2515C784.741 29.1701 729.737 15.3701 640.65 25.2713C608.875 28.8092 574.127 35.2428 537.488 44.2544C537.464 44.2608 537.439 44.2671 537.415 44.272C478.557 58.7524 414.809 79.8982 350.595 106.486C288.909 132.022 227.835 162.502 174.356 194.771C60.5905 263.416 -18.755 340.169 3.85946 394.748C15.6812 423.249 54.058 437.737 112.758 437.737C154.349 437.737 206.227 430.391 265.991 415.683C266.011 415.679 266.03 415.673 266.049 415.669C266.112 415.653 266.17 415.64 266.233 415.624C255.496 407.763 245.477 398.99 236.269 389.431C192.939 398.967 154.634 403.983 124.126 403.983C83.9464 403.983 57.1692 395.407 49.7435 377.426C28.8037 326.72 169.796 220.44 364.657 140.045C490.418 88.159 607.894 59.7347 681.018 59.7315C681.022 59.7315 681.032 59.7315 681.032 59.7315C721.203 59.7315 747.975 68.3102 755.4 86.2887C768.459 117.913 718.523 171.153 631.829 226.248C631.85 227.496 631.885 228.742 631.885 229.998C631.885 231.534 631.864 233.066 631.828 234.591C631.566 245.1 630.44 255.382 628.864 265.516C628.973 265.45 629.077 265.384 629.186 265.32C756.093 188.551 819.844 113.904 799.697 65.258Z" fill="#E4E4E4"/>
<path d="M369.535 151.856C158.255 239.025 47.7653 339.145 61.5605 372.552C66.4551 384.406 89.2597 391.207 124.126 391.207C152.774 391.207 187.631 386.793 226.468 378.594C219.101 369.911 212.36 360.68 206.327 350.957C206.244 350.973 206.166 350.988 206.082 351.003C206.079 351.003 206.076 351.005 206.072 351.005C140.423 363.748 111.957 357.92 109.188 351.213C107.39 346.858 115.629 325.32 175.104 284.753C226.914 249.402 299.807 211.58 380.332 178.237C460.855 144.896 539.153 120.126 600.801 108.496C627.891 103.381 647.692 101.608 661.924 101.608C684.857 101.608 693.309 106.225 694.42 108.907C697.189 115.583 681.203 139.818 625.789 177.211C625.739 177.244 625.691 177.278 625.642 177.312C628.294 188.417 630.138 199.832 631.104 211.5C712.758 158.383 752.15 111.908 743.585 91.165C738.689 79.3104 715.889 72.5093 681.033 72.5093V59.7315L681.021 72.5093C606.394 72.5125 489.951 102.176 369.535 151.856Z" fill="#E4E4E4"/>
<path d="M226.75 378.535C226.657 378.556 226.563 378.573 226.468 378.594C187.629 386.794 152.774 391.207 124.126 391.207C89.2612 391.207 66.4566 384.407 61.5605 372.552C47.7652 339.145 158.255 239.025 369.535 151.856C489.951 102.176 606.394 72.5125 681.019 72.5093L681.032 59.7315C681.032 59.7315 681.022 59.7315 681.018 59.7315C607.894 59.7347 490.418 88.1589 364.657 140.045C169.796 220.441 28.8037 326.721 49.7435 377.428C57.1692 395.41 83.9464 403.985 124.126 403.985C154.634 403.985 192.939 398.968 236.269 389.432C236.333 389.418 236.394 389.406 236.458 389.393C233.086 385.895 229.898 382.24 226.75 378.535Z" fill="#ABABAB"/>
<path d="M743.582 91.165C752.15 111.908 712.756 158.383 631.102 211.5C631.077 211.517 631.055 211.531 631.031 211.546C631.434 216.416 631.691 221.328 631.773 226.284C631.791 226.273 631.81 226.26 631.829 226.249C718.523 171.154 768.458 117.914 755.4 86.2902C747.975 68.3119 721.203 59.7331 681.032 59.7331V72.5109C715.888 72.5093 738.688 79.3087 743.582 91.165Z" fill="#ABABAB"/>
</svg>
