<svg width="512" height="512" viewBox="0 0 512 512" fill="none" xmlns="http://www.w3.org/2000/svg">
<path d="M339.392 258.624L512 367.744V144.896L339.392 258.624Z" fill="#1B1F23"/>
<path d="M0 144.896V367.744L172.608 258.624L0 144.896Z" fill="#1B1F23"/>
<path d="M480 80H32C16.032 80 3.35996 91.904 0.959961 107.232L256 275.264L511.04 107.232C508.64 91.904 495.968 80 480 80Z" fill="#1B1F23"/>
<path d="M310.08 277.952L264.8 307.776C262.112 309.536 259.072 310.4 256 310.4C252.928 310.4 249.888 309.536 247.2 307.776L201.92 277.92L1.02393 404.992C3.48793 420.192 16.0959 432 31.9999 432H480C495.904 432 508.512 420.192 510.976 404.992L310.08 277.952Z" fill="#1B1F23"/>
</svg>
